<svg width="966" height="966" version="1.1" xmlns="http://www.w3.org/2000/svg" desc="Created with imagetracer.js version 1.2.6" ><path fill="rgb(227,7,20)" stroke="rgb(227,7,20)" stroke-width="1" opacity="0.9529411764705882" d="M 163.5 422 L 185.5 423 L 199 426 L 197 448.5 L 196 451 L 185.5 448 L 171.5 447 L 157.5 452 L 150 459.5 Q 142.4 469.4 143 487.5 L 146 501.5 Q 149.5 510.5 156.5 516 L 167.5 521 L 182.5 521 L 200 516 L 201 541.5 L 196.5 544 L 185.5 545 L 184.5 546 L 158.5 546 Q 135.4 542.1 123 527.5 Q 114.6 517.4 111 502.5 Q 112.3 497.7 110 496.5 L 110 471.5 Q 114.1 447.6 129.5 435 Q 137 428.5 147.5 425 L 163.5 422 Z " /><path fill="rgb(227,7,20)" stroke="rgb(227,7,20)" stroke-width="1" opacity="0.9529411764705882" d="M 410.5 422 L 432.5 423 L 446 426 L 445 428.5 L 445 436.5 L 444 437.5 L 443 451 L 432.5 448 L 418.5 447 L 405.5 451 L 398 457.5 L 392 468.5 L 390 478.5 L 390 489.5 Q 392.5 491 391 496.5 L 395 506.5 L 403.5 516 L 414.5 521 L 429.5 521 L 446 516 L 447 518.5 L 447 535.5 Q 449.2 536.7 448 541.5 L 446.5 543 L 431.5 546 L 405.5 546 L 395.5 544 L 385.5 540 Q 375.5 535 369 526.5 Q 361.6 516.9 358 503.5 L 357 491.5 L 356 490.5 L 356 477.5 L 359 461.5 L 363 451.5 Q 368.8 440.3 378.5 433 L 391.5 426 L 410.5 422 Z " /><path fill="rgb(227,7,20)" stroke="rgb(227,7,20)" stroke-width="1" opacity="0.9529411764705882" d="M 644.5 422 L 663.5 422 L 673.5 424 Q 691.2 428.8 702 440.5 Q 711.6 450.4 716 465.5 L 718 476.5 L 718 493.5 L 712 514.5 L 699.5 531 Q 690 539.5 676.5 544 L 667.5 546 L 640.5 546 Q 615.9 541.1 603 524.5 L 593 505.5 L 591 497.5 L 590 482.5 L 591 481.5 L 592 467.5 L 595 458.5 Q 601 444 612.5 435 L 623.5 428 L 644.5 422 Z M 650 447 L 638 452 L 629 462 L 625 473 Q 622 499 633 513 L 644 520 L 653 522 Q 664 522 671 517 L 679 508 L 684 491 L 684 475 Q 682 464 676 457 L 664 448 L 650 447 Z " /><path fill="rgb(227,7,20)" stroke="rgb(227,7,20)" stroke-width="1" opacity="0.9529411764705882" d="M 785.5 422 L 804.5 422 L 814.5 424 Q 832.2 428.8 843 440.5 Q 860.8 457.2 859 493.5 L 855 509.5 Q 849.9 522.4 840.5 531 Q 831 539.5 817.5 544 L 808.5 546 L 781.5 546 Q 756.9 541.1 744 524.5 Q 730.7 509.3 731 480.5 L 735 460.5 Q 741 444.5 753.5 435 L 764.5 428 L 785.5 422 Z M 791 447 L 779 452 Q 772 457 768 466 L 765 481 L 767 499 L 774 513 L 785 520 L 794 522 Q 805 522 812 517 Q 819 512 822 503 L 825 490 Q 827 467 817 457 L 805 448 L 791 447 Z " /><path fill="rgb(227,7,20)" stroke="rgb(227,7,20)" stroke-width="1" opacity="0.9529411764705882" d="M 221 425 L 253 425 L 253 504.5 L 256 513.5 L 261.5 519 Q 268 522.5 279.5 521 Q 287.5 518.5 292 512.5 L 298 499.5 L 299 485.5 L 300 484.5 L 300 425 L 350.5 425 L 351 425.5 L 351 434 L 336.5 434 L 333 436.5 L 332 438.5 L 332 530.5 L 337.5 535 L 351 535 L 351 542.5 L 350.5 543 L 301 543 L 300.5 529 Q 293.5 538 282.5 543 L 272.5 546 L 255.5 546 Q 237.1 542.9 228 530.5 Q 222.9 523.6 221 513.5 L 221 425 Z " /><path fill="rgb(227,7,20)" stroke="rgb(227,7,20)" stroke-width="1" opacity="0.9529411764705882" d="M 463 425 L 514 425 L 514 470.5 L 517 468.5 L 552.5 425 L 589.5 425 L 590 426.5 L 545 478.5 L 589 534.5 L 594 543 L 553.5 543 L 553 541.5 L 514.5 487 L 514 543 L 463.5 543 L 463 542.5 L 463 535 L 476.5 535 L 481 531.5 L 482 529.5 L 482 438.5 L 480 435 L 477.5 434 L 463 434 L 463 425 Z " /><path fill="rgb(0,0,0)" stroke="rgb(0,0,0)" stroke-width="1" opacity="0" d="M 0 0 L 966 0 L 966 966 L 0 966 L 0 0 Z M 164 422 L 148 425 Q 137 429 130 435 Q 114 448 110 472 L 110 497 Q 112 498 111 503 Q 115 517 123 528 Q 135 542 159 546 L 185 546 L 186 545 L 197 544 L 201 542 L 200 516 L 183 521 L 168 521 L 157 516 Q 149 511 146 502 L 143 488 Q 142 469 150 460 L 158 452 L 172 447 L 186 448 L 196 451 L 197 449 L 199 426 L 186 423 L 164 422 Z M 411 422 L 392 426 L 379 433 Q 369 440 363 452 L 359 462 L 356 478 L 356 491 L 357 492 L 358 504 Q 362 517 369 527 Q 376 535 386 540 L 396 544 L 406 546 L 432 546 L 447 543 L 448 542 Q 449 537 447 536 L 447 519 L 446 516 L 430 521 L 415 521 L 404 516 L 395 507 L 391 497 Q 393 491 390 490 L 390 479 L 392 469 L 398 458 L 406 451 L 419 447 L 433 448 L 443 451 L 444 438 L 445 437 L 445 429 L 446 426 L 433 423 L 411 422 Z M 645 422 L 624 428 L 613 435 Q 601 444 595 459 L 592 468 L 591 482 L 590 483 L 591 498 L 593 506 L 603 525 Q 616 541 641 546 L 668 546 L 677 544 Q 690 539 700 531 L 712 515 L 718 494 L 718 477 L 716 466 Q 712 450 702 441 Q 691 429 674 424 L 664 422 L 645 422 Z M 786 422 L 765 428 L 754 435 Q 741 445 735 461 L 731 481 Q 731 509 744 525 Q 757 541 782 546 L 809 546 L 818 544 Q 831 539 841 531 Q 850 522 855 510 L 859 494 Q 861 457 843 441 Q 832 429 815 424 L 805 422 L 786 422 Z M 221 425 L 221 514 Q 223 524 228 531 Q 237 543 256 546 L 273 546 L 283 543 Q 294 538 301 529 L 301 543 L 351 543 L 351 543 L 351 535 L 338 535 L 332 531 L 332 439 L 333 437 L 337 434 L 351 434 L 351 426 L 351 425 L 300 425 L 300 485 L 299 486 L 298 500 L 292 513 Q 288 519 280 521 Q 268 522 262 519 L 256 514 L 253 505 L 253 425 L 221 425 Z M 463 425 L 463 434 L 478 434 L 480 435 L 482 439 L 482 530 L 481 532 L 477 535 L 463 535 L 463 543 L 464 543 L 514 543 L 515 487 L 553 542 L 554 543 L 594 543 L 589 535 L 545 479 L 590 427 L 590 425 L 553 425 L 517 469 L 514 471 L 514 425 L 463 425 Z " /><path fill="rgb(0,0,0)" stroke="rgb(0,0,0)" stroke-width="1" opacity="0" d="M 649.5 447 L 663.5 448 L 676 456.5 Q 682 463.5 684 474.5 L 684 490.5 L 679 507.5 L 670.5 517 Q 663.9 521.9 652.5 522 L 643.5 520 L 633 512.5 Q 622.3 499.2 625 472.5 L 629 461.5 L 637.5 452 L 649.5 447 Z " /><path fill="rgb(0,0,0)" stroke="rgb(0,0,0)" stroke-width="1" opacity="0" d="M 790.5 447 L 804.5 448 L 817 456.5 Q 826.8 467.2 825 489.5 L 822 502.5 Q 818.8 511.8 811.5 517 Q 804.9 521.9 793.5 522 L 784.5 520 L 774 512.5 L 767 498.5 L 765 480.5 L 768 465.5 Q 771.6 457.1 778.5 452 L 790.5 447 Z " /></svg>