<svg xmlns="http://www.w3.org/2000/svg" xml:space="preserve" width="1000px" height="130.932px" x="0px" y="0px" viewBox="0 0 1000 130.932"><path fill="#FCC800" d="M41.37 66.878 20.748 27.689 41.37 38.043l20.629-10.354z"/><path fill="#FCC800" d="m68.559 58.374 14.076-5.973V31.817l-25.231 10.71-13.979 26.5c10.442 1.015 18.574 9.837 18.574 20.537 0 11.411-9.234 20.632-20.629 20.632-11.396 0-20.642-9.221-20.642-20.632 0-10.7 8.167-19.522 18.584-20.537l-13.957-26.5L.122 31.817V52.4l14.08 5.973C5.508 65.953 0 77.122 0 89.564c0 22.845 18.515 41.367 41.37 41.367 22.854 0 41.371-18.522 41.371-41.367 0-12.442-5.493-23.611-14.182-31.19z"/><g fill="#1EAC4B"><path d="M186.012 114.358c-3.74 3.519-8.886 6.118-15.431 7.799-6.546 1.687-14.01 2.528-22.394 2.528-8.382 0-15.861-.867-22.448-2.579-6.508-1.65-11.655-4.215-15.433-7.696-3.774-3.478-5.704-7.873-5.779-13.179 0-3.895.994-7.262 2.976-10.103 1.984-2.847 4.77-5.243 8.362-7.188h-15.264l-4.153-6.396h44.223V64.413h-29.854c-1.949 0-3.574-.657-4.886-1.963-1.307-1.306-1.962-2.94-1.962-4.882V34.559h11.446c.975 0 1.797.339 2.471 1.009.672.677 1.01 1.499 1.01 2.469v16.498c0 .97.336 1.779 1.01 2.411.671.637 1.497.994 2.47 1.067h71.046c.522 0 .879.281 1.066.844.187.559.281 1.369.281 2.413 0 .972-.094 1.744-.281 2.303-.187.559-.544.84-1.066.84H155.71v13.131h40.631c.521 0 .877.283 1.064.846.188.559.243 1.363.169 2.412.074.971.018 1.739-.169 2.298-.187.559-.543.841-1.064.841h-15.825c3.589 1.945 6.377 4.342 8.361 7.188 1.981 2.841 2.976 6.208 2.976 10.103-.081 5.305-2.024 9.686-5.841 13.126zm-17.733-26.095c-5.237-2.803-11.936-4.207-20.092-4.207-8.152 0-14.854 1.404-20.09 4.207-5.237 2.803-7.931 7.127-8.08 12.969.149 5.76 2.843 10.041 8.08 12.85 5.236 2.804 11.938 4.171 20.09 4.093 8.156.078 14.854-1.289 20.092-4.093 5.239-2.809 7.931-7.09 8.079-12.85-.148-5.842-2.84-10.167-8.079-12.969zM267.047 72.046c-2.542 2.92-5.987 5.237-10.323 6.96-4.342 1.718-9.317 2.616-14.931 2.694-9.056-.151-16.252-2.23-21.602-6.229-5.354-4.004-8.102-9.037-8.251-15.1 0-2.839.691-5.533 2.078-8.082 1.382-2.538 3.347-4.782 5.892-6.735h-10.104l-4.153-6.396H233.6v-8.641h11.898c.972 0 1.796.339 2.47 1.007.674.673 1.007 1.499 1.007 2.47v5.164h25.481c.523 0 .877.281 1.068.844.186.559.279 1.357.279 2.414 0 .971-.094 1.738-.279 2.302-.191.559-.545.835-1.068.835h-10.887a24.095 24.095 0 0 1 2.692 2.417 18.584 18.584 0 0 1 2.133 2.637h19.979v-17.17h11.561c.9 0 1.687.333 2.356 1.008.675.678 1.011 1.461 1.011 2.358V120.644h-78.117c-1.945-.073-3.574-.746-4.881-2.02-1.312-1.274-1.966-2.878-1.966-4.819V85.067h11.449c.971.068 1.777.443 2.414 1.117.635.679.991 1.456 1.067 2.361v6.285h55.107V72.046h-21.327zm-14.311-21.944c-2.654-2.877-6.302-4.391-10.943-4.547-4.638.157-8.307 1.634-10.997 4.438-2.694 2.803-4.079 6.266-4.153 10.379.074 4.193 1.458 7.697 4.153 10.495 2.69 2.811 6.359 4.25 10.997 4.324 4.641-.074 8.289-1.514 10.943-4.324 2.659-2.798 4.024-6.302 4.098-10.495-.073-3.962-1.438-7.387-4.098-10.27zm-19.47 60.778c0 .971.333 1.76 1.006 2.361a3.976 3.976 0 0 0 2.361 1.007h51.74v-13.017h-55.107v9.649zm55.107-45.345V57.12h-17.175c.078.521.151 1.069.228 1.623.073.563.112 1.107.112 1.628 0 .972-.075 1.891-.224 2.753-.149.86-.336 1.665-.564 2.411h17.623z"/></g><g fill="#00A84D"><path d="M432.673 41.264c-1.327-4.29-5.943-6.752-10.29-5.488-.023.005-23.909 7.238-23.909 7.238l-3.201.947c-1.738.522-3.352 1.663-4.536 3.175-.717.938-2.219 3.759-2.219 7.084 0 1.074.149 2.202.556 3.32 1.172 3.293 8.203 10.675 8.273 10.758 2.401 2.721 5.267 7.227 5.267 13.23 0 11.094-9.052 20.128-20.167 20.128-11.104 0-20.127-9.034-20.127-20.128 0-6.031 2.842-10.523 5.24-13.238.066-.075 7.101-7.457 8.269-10.741 1.618-4.633-.734-9.184-1.663-10.413-1.185-1.512-2.794-2.653-4.527-3.175 0 0-3.215-.947-3.228-.947l-23.88-7.238c-4.362-1.264-8.979 1.198-10.301 5.488-1.308 4.369 1.156 8.981 5.494 10.298l12.706 3.821-.228.31c-5.521 7.177-8.437 15.737-8.437 24.744 0 22.44 18.242 40.681 40.682 40.681 22.428 0 40.658-18.24 40.658-40.681 0-9.033-2.892-17.584-8.392-24.744l-.239-.31 12.708-3.821c4.323-1.299 6.79-5.929 5.491-10.298z"/><path d="M393.655 11.222C393.655 5.028 388.627 0 382.446 0c-6.159 0-11.169 5.028-11.169 11.222v18.103c0 6.168 5.01 11.187 11.169 11.187 6.182 0 11.209-5.019 11.209-11.187V11.222zM737.72 108.403h-47.772V96.129h41.431c3.44 0 6.243-3.542 6.243-7.897 0-4.373-2.803-7.919-6.243-7.919h-85.904v-9.888h80.935s.205-.035.194-.035c6.077-.111 11.019-5.134 11.019-11.191V40.087c0-6.164-5.012-11.169-11.167-11.169H589.211c-6.138.041-11.125 5.045-11.125 11.169v55.928H506.71V40.087c0-6.101-4.979-11.111-11.16-11.169h-45.182s-.08 0-.15.009c-6.014.204-10.912 5.2-10.912 11.16v78.531c0 5.57 4.191 8.878 11.204 8.878 7.003 0 11.192-3.308 11.192-8.878V44.739h22.616v55.896c0 6.173 5.033 11.199 11.223 11.199h82.545v6.784c0 5.57 4.175 8.878 11.169 8.878 7.031 0 11.214-3.308 11.214-8.878V44.739H715.24v9.878h-81.193c-6.049.119-10.975 5.156-10.975 11.217v19.08c0 6.186 5.023 11.214 11.205 11.214h33.279v12.274h-41.689c-3.388 0-6.262 3.617-6.262 7.897 0 4.378 2.813 7.933 6.262 7.933H737.72c3.476 0 6.305-3.555 6.305-7.933-.001-4.35-2.83-7.896-6.305-7.896zM812.333 40.034v69.501h-25.824c-2.067 0-3.883-1.813-3.883-3.878V40.034h29.707zm65.892 22.22c0-2.207-.266-3.623-1.413-3.623h-12.788v-25.84c0-2.069-1.813-3.874-3.883-3.874h-12.912v98.181h16.795V65.867h12.788c1.147 0 1.413-1.42 1.413-3.613zm-52.963-29.462h-59.428v76.227c0 4.262 3.483 7.742 7.756 7.742h55.545V36.666c0-2.062-1.813-3.874-3.873-3.874zM998.577 123.226H890.959l-4.65-7.229h112.269c1.175 0 1.423 1.423 1.423 3.616s-.249 3.613-1.424 3.613zM895.355 88.347V32.792h96.766c1.157 0 1.423 1.423 1.423 3.618 0 2.193-.266 3.625-1.423 3.625h-79.972v19.89h79.324c1.15 0 1.416 1.419 1.416 3.617 0 2.21-.266 3.612-1.416 3.612h-79.324v17.841c0 2.062 1.82 3.865 3.873 3.865h77.391c1.157 0 1.413 1.429 1.413 3.62 0 2.195-.256 3.618-1.413 3.618h-90.311c-4.264 0-7.747-3.49-7.747-7.751z"/></g></svg>