<svg xmlns="http://www.w3.org/2000/svg" xml:space="preserve" width="625.53241" height="100.7344" viewBox="0 0 625.5324 100.7344"><defs><linearGradient id="a" x1="0" x2="1" y1="0" y2="0" gradientTransform="scale(36.17844 -36.17844) rotate(-40.616 -5.702 -15.151)" gradientUnits="userSpaceOnUse" spreadMethod="pad"><stop offset="0" style="stop-opacity:1;stop-color:#2ca4e3"/><stop offset="0.00505027" style="stop-opacity:1;stop-color:#2ca4e3"/><stop offset="0.03039147" style="stop-opacity:1;stop-color:#2ca4e3"/><stop offset="0.997613" style="stop-opacity:1;stop-color:#17194a"/><stop offset="1" style="stop-opacity:1;stop-color:#17194a"/></linearGradient><linearGradient id="b" x1="0" x2="1" y1="0" y2="0" gradientTransform="scale(38.89972 -38.89972) rotate(-21.012 -13.584 -25.496)" gradientUnits="userSpaceOnUse" spreadMethod="pad"><stop offset="0" style="stop-opacity:1;stop-color:#17194a"/><stop offset="0.00238694" style="stop-opacity:1;stop-color:#17194a"/><stop offset="0.89215956" style="stop-opacity:1;stop-color:#2ca4e3"/><stop offset="1" style="stop-opacity:1;stop-color:#2ca4e3"/></linearGradient></defs><path d="m397.537 271.712 9.652-5.774a22.022 22.022 0 0 0-3.393-4.363 22.36 22.36 0 0 0-7.317-4.892 22.322 22.322 0 0 0-8.638-1.719c-2.997 0-5.877.573-8.639 1.72a22.346 22.346 0 0 0-7.316 4.891 22.375 22.375 0 0 0-4.893 7.316 22.327 22.327 0 0 0-1.719 8.64c0 2.996.573 5.876 1.72 8.638a22.386 22.386 0 0 0 4.892 7.316 22.346 22.346 0 0 0 7.316 4.892 22.327 22.327 0 0 0 8.64 1.72c2.996 0 5.875-.574 8.637-1.72a22.36 22.36 0 0 0 7.317-4.892 22.08 22.08 0 0 0 3.393-4.363l-9.652-5.774a11.835 11.835 0 0 1-1.719 2.16c-2.204 2.203-4.863 3.305-7.977 3.305-3.115 0-5.774-1.102-7.978-3.306-2.203-2.204-3.305-4.863-3.305-7.977 0-3.115 1.102-5.774 3.305-7.978 2.204-2.203 4.863-3.305 7.978-3.305 3.114 0 5.773 1.102 7.977 3.305a11.807 11.807 0 0 1 1.72 2.16M314.772 249.66c3.114 0 5.774 1.103 7.978 3.307 2.204 2.204 3.306 4.863 3.306 7.978 0 3.113-1.102 5.773-3.306 7.977-2.204 2.204-4.864 3.306-7.978 3.306s-5.773-1.102-7.977-3.306c-2.204-2.204-3.306-4.864-3.306-7.977 0-3.115 1.102-5.774 3.306-7.978 2.204-2.204 4.863-3.306 7.977-3.306m0-11.283a22.33 22.33 0 0 0-8.639 1.719 22.36 22.36 0 0 0-7.316 4.893 22.373 22.373 0 0 0-4.892 7.315 22.332 22.332 0 0 0-1.719 8.64c0 2.996.573 5.876 1.719 8.638a22.403 22.403 0 0 0 4.892 7.317 22.37 22.37 0 0 0 7.316 4.89 22.33 22.33 0 0 0 8.639 1.72c2.997 0 5.876-.573 8.638-1.72a22.353 22.353 0 0 0 7.317-4.89 22.387 22.387 0 0 0 4.892-7.317 22.327 22.327 0 0 0 1.72-8.638c0-2.997-.574-5.878-1.72-8.64a22.358 22.358 0 0 0-4.892-7.315 22.343 22.343 0 0 0-7.317-4.893 22.322 22.322 0 0 0-8.638-1.72" style="fill:#2ca4e3;fill-opacity:1;fill-rule:nonzero;stroke:none" transform="matrix(1.33333 0 0 -1.33333 -350.594 418.571)"/><path d="M344.32 266.247c3.115 0 5.774 1.102 7.978 3.306 2.204 2.204 3.306 4.863 3.306 7.978 0 3.113-1.102 5.773-3.306 7.976-2.204 2.204-4.863 3.306-7.977 3.306-3.115 0-5.774-1.102-7.978-3.306-2.203-2.203-3.305-4.863-3.305-7.976 0-3.115 1.102-5.774 3.305-7.978 2.204-2.204 4.863-3.306 7.978-3.306m-11.283 30.807c.852.5 1.733.94 2.645 1.323a22.319 22.319 0 0 0 8.638 1.719c2.997 0 5.876-.573 8.638-1.72a22.376 22.376 0 0 0 7.317-4.891 22.398 22.398 0 0 0 4.892-7.316 22.325 22.325 0 0 0 1.718-8.638c0-2.998-.572-5.878-1.718-8.64a22.373 22.373 0 0 0-4.892-7.315 22.36 22.36 0 0 0-7.317-4.892 22.305 22.305 0 0 0-8.638-1.72c-2.997 0-5.877.573-8.638 1.72a22.35 22.35 0 0 0-7.317 4.892 22.373 22.373 0 0 0-4.892 7.315 22.329 22.329 0 0 0-1.72 8.64v36.398h11.284zM274.229 274.791v-17.277h-11.283v56.414h11.283v-28.559l18.335 17.277h15.514l-22.566-22.566 17.504-13.885-5.162-10.04z" style="fill:#2ca4e3;fill-opacity:1;fill-rule:nonzero;stroke:none" transform="matrix(1.33333 0 0 -1.33333 -350.594 418.571)"/><path d="M306.132 281.79a22.354 22.354 0 0 1-7.316-4.893c-.127-.128-.259-.26-.381-.392l7.687-8.317c.21.25.435.493.674.733 2.203 2.202 4.864 3.306 7.975 3.306 3.116 0 5.777-1.104 7.981-3.306a11.615 11.615 0 0 0 1.948-2.549l9.748 5.626a22.425 22.425 0 0 1-3.721 4.899 22.244 22.244 0 0 1-7.317 4.893 22.305 22.305 0 0 1-8.639 1.719 22.33 22.33 0 0 1-8.639-1.719" style="fill:url(#a);stroke:none" transform="matrix(1.33333 0 0 -1.33333 -350.594 418.571)"/><path d="M352.299 269.551c-2.204-2.202-4.865-3.307-7.976-3.307-3.116 0-5.777 1.105-7.98 3.307a11.563 11.563 0 0 0-1.89 2.452l-9.743-5.626a22.05 22.05 0 0 1 3.658-4.801 22.393 22.393 0 0 1 7.316-4.894 22.272 22.272 0 0 1 8.639-1.719c2.994 0 5.875.571 8.634 1.719a22.387 22.387 0 0 1 7.317 4.894 22.572 22.572 0 0 1 1.63 1.812l-7.359 9.284c-.543-1.129-1.29-2.164-2.246-3.121" style="fill:url(#b);stroke:none" transform="matrix(1.33333 0 0 -1.33333 -350.594 418.571)"/><path d="M335.745 269.588a22.83 22.83 0 0 1-4.994 7.468 22.827 22.827 0 0 1-8.996 5.56v-4.967c-.162-3.008.423-5.948 1.593-8.767a22.843 22.843 0 0 1 4.993-7.467 22.819 22.819 0 0 1 8.462-5.377c.334 1.566.697 3.098.697 4.733 0 3.058-.585 5.998-1.755 8.817" style="fill:#2ca4e3;fill-opacity:1;fill-rule:nonzero;stroke:none" transform="matrix(1.33333 0 0 -1.33333 -350.594 418.571)"/><path d="M426.641 250.33h1.81v-5.222l4.94 5.221h2.238l-4.316-4.465 4.51-5.918h-2.21l-3.546 4.673-1.616-1.662v-3.01h-1.81z" style="fill:#5a5758;fill-opacity:1;fill-rule:nonzero;stroke:none" transform="matrix(1.33333 0 0 -1.33333 -350.594 418.571)"/><path d="M441.061 241.444c.512 0 .982.097 1.41.29.428.192.796.455 1.1.785.306.332.545.721.717 1.165.172.446.26.92.26 1.424v.03c0 .505-.088.981-.26 1.431a3.538 3.538 0 0 1-.724 1.172c-.31.332-.682.596-1.115.794a3.385 3.385 0 0 1-1.418.296 3.39 3.39 0 0 1-1.41-.289 3.339 3.339 0 0 1-1.1-.786 3.672 3.672 0 0 1-.718-1.164 3.916 3.916 0 0 1-.258-1.424v-.03c0-.504.086-.981.258-1.432.173-.45.414-.841.725-1.171.31-.332.682-.596 1.115-.794a3.382 3.382 0 0 1 1.418-.297m-.03-1.676c-.8 0-1.533.141-2.195.423a5.21 5.21 0 0 0-1.706 1.15 5.283 5.283 0 0 0-1.113 1.698 5.37 5.37 0 0 0-.4 2.069v.03c0 .731.133 1.422.4 2.069a5.25 5.25 0 0 0 1.128 1.706c.484.49 1.058.878 1.721 1.164.662.287 1.394.431 2.195.431.801 0 1.532-.141 2.195-.423a5.226 5.226 0 0 0 1.706-1.15 5.269 5.269 0 0 0 1.112-1.699 5.348 5.348 0 0 0 .401-2.068v-.03c0-.732-.133-1.422-.4-2.07a5.243 5.243 0 0 0-1.128-1.705 5.43 5.43 0 0 0-1.72-1.165 5.487 5.487 0 0 0-2.196-.43M452.536 245.183c.654 0 1.175.156 1.562.469.387.312.58.737.58 1.274v.029c0 .567-.188.996-.565 1.289-.377.292-.908.439-1.592.439h-2.663v-3.5zm-4.488 5.146h4.628c.653 0 1.23-.091 1.735-.274a3.488 3.488 0 0 0 1.26-.764c.278-.287.49-.618.639-.993.148-.377.222-.792.222-1.247v-.03c0-.425-.061-.807-.185-1.148a3 3 0 0 0-.512-.906 3.082 3.082 0 0 0-.78-.667 3.816 3.816 0 0 0-1-.422l2.804-3.932h-2.151l-2.56 3.62H449.859v-3.62h-1.81zM458.476 250.33h7.683v-1.648h-5.873v-2.669h5.206v-1.647h-5.206v-2.773h5.948v-1.647h-7.758zM474.406 244.07l-1.795 4.153-1.78-4.153zm-2.61 6.333h1.69l4.57-10.457h-1.928l-1.054 2.507h-4.91l-1.067-2.507h-1.87zM486.898 241.444c.512 0 .982.097 1.41.29.428.192.795.455 1.1.785.306.332.545.721.717 1.165.172.446.26.92.26 1.424v.03c0 .505-.088.981-.26 1.431a3.538 3.538 0 0 1-.724 1.172c-.31.332-.682.596-1.115.794a3.385 3.385 0 0 1-1.418.296 3.39 3.39 0 0 1-1.41-.289 3.339 3.339 0 0 1-1.1-.786 3.652 3.652 0 0 1-.717-1.164 3.896 3.896 0 0 1-.258-1.424v-.03c0-.504.085-.981.258-1.432.172-.45.414-.841.724-1.171.31-.332.682-.596 1.115-.794a3.382 3.382 0 0 1 1.418-.297m-.03-1.676c-.8 0-1.533.141-2.195.423a5.21 5.21 0 0 0-1.706 1.15 5.283 5.283 0 0 0-1.113 1.698 5.39 5.39 0 0 0-.4 2.069v.03c0 .731.134 1.422.4 2.069a5.25 5.25 0 0 0 1.128 1.706c.484.49 1.058.878 1.721 1.164.662.287 1.394.431 2.195.431.801 0 1.532-.141 2.195-.423a5.226 5.226 0 0 0 1.706-1.15 5.269 5.269 0 0 0 1.112-1.699 5.348 5.348 0 0 0 .401-2.068v-.03c0-.732-.133-1.422-.4-2.07a5.227 5.227 0 0 0-1.128-1.705 5.43 5.43 0 0 0-1.72-1.165 5.487 5.487 0 0 0-2.196-.43M498.721 239.768a5.215 5.215 0 0 0-3.779 1.55 5.24 5.24 0 0 0-1.113 1.699 5.436 5.436 0 0 0-.404 2.091v.03c0 .742.132 1.436.397 2.084a5.244 5.244 0 0 0 1.112 1.706 5.257 5.257 0 0 0 1.695 1.157c.653.282 1.375.423 2.166.423.475 0 .907-.04 1.298-.119a5.045 5.045 0 0 0 1.98-.846 6.98 6.98 0 0 0 .786-.653l-1.17-1.349a5.876 5.876 0 0 1-1.322.934c-.464.238-.993.356-1.587.356-.495 0-.95-.096-1.372-.289a3.404 3.404 0 0 1-1.09-.786 3.539 3.539 0 0 1-.712-1.164 4 4 0 0 1-.252-1.424v-.03c0-.504.084-.981.252-1.432.168-.45.405-.843.712-1.178.306-.337.67-.602 1.09-.794.421-.193.877-.29 1.372-.29.633 0 1.177.122 1.632.364a6.41 6.41 0 0 1 1.35.986l1.171-1.186a6.617 6.617 0 0 0-.838-.764 5.471 5.471 0 0 0-.942-.579 4.714 4.714 0 0 0-1.104-.37 6.418 6.418 0 0 0-1.328-.127M504.195 250.33h7.683v-1.648h-5.873v-2.669h5.206v-1.647h-5.206v-2.773h5.948v-1.647h-7.758zM520.126 244.07l-1.795 4.153-1.78-4.153zm-2.611 6.333h1.69l4.57-10.457h-1.93l-1.052 2.507h-4.91l-1.068-2.507h-1.868zM525.258 250.33h1.687l5.551-7.18v7.18h1.81v-10.384h-1.525l-5.713 7.387v-7.387h-1.81z" style="fill:#5a5758;fill-opacity:1;fill-rule:nonzero;stroke:none" transform="matrix(1.33333 0 0 -1.33333 -350.594 418.571)"/><path d="M434.594 291.462c-1.339 0-2.376-.42-3.11-1.26-.736-.84-1.102-1.97-1.102-3.386 0-1.417.366-2.545 1.101-3.386.735-.84 1.772-1.26 3.111-1.26 1.26 0 2.276.42 3.051 1.26.773.84 1.162 1.969 1.162 3.386s-.389 2.546-1.162 3.386c-.775.84-1.792 1.26-3.05 1.26m20.352-28.582H430.73c-1.206 0-2.189.4-2.948 1.2-.76.802-1.14 1.766-1.14 2.895v9.25h5.274v-7.912c0-.236.04-.413.12-.532.078-.118.248-.177.511-.177h17.124l.041 29.409h5.235v-11.564h5.551v-4.724h-5.55zm-9.645 28.306h-2.44c.42-.63.727-1.32.924-2.067a9.001 9.001 0 0 0 .296-2.303c0-2.835-.893-5.08-2.677-6.732a9.286 9.286 0 0 0-2.993-1.95c-1.128-.458-2.4-.688-3.818-.688-1.418 0-2.697.23-3.839.689a8.795 8.795 0 0 0-2.972 1.949c-1.785 1.653-2.677 3.897-2.677 6.732 0 .788.111 1.555.334 2.303a9.41 9.41 0 0 0 .886 2.067h-2.44v4.725h8.07v3.385h5.236v-3.385h8.11zM490.93 285.449v6.13c0 .473-.21.709-.63.709h-24.84v4.725h26.652c.577 0 1.115-.112 1.615-.335a4.121 4.121 0 0 0 1.298-.906c.367-.38.657-.813.867-1.298.21-.486.315-.991.315-1.517v-7.508h1.81v-4.724h-14.526v-5.917h8.62c.578 0 1.116-.111 1.616-.334a4.151 4.151 0 0 0 1.298-.905c.367-.381.657-.814.867-1.3.21-.486.315-1.003.315-1.555v-7.834h-5.276v6.457c0 .498-.211.747-.63.747H465.46v4.724h12.755v5.917H464.16v4.724zM522.466 262.88v34.132h5.275v-11.563h2.953v11.563h5.275V262.88h-5.275v17.844h-2.953V262.88zm-10.551 27.794c-1.102 0-1.975-.584-2.618-1.752-.644-1.167-.965-2.657-.965-4.468s.32-3.301.965-4.468c.643-1.168 1.516-1.752 2.618-1.752 1.103 0 1.975.577 2.618 1.73.643 1.156.965 2.653.965 4.49 0 .892-.086 1.718-.256 2.48-.172.76-.414 1.417-.73 1.969-.314.55-.688.984-1.121 1.299a2.445 2.445 0 0 1-1.476.472m9.33.512h-2.441c.63-.866 1.116-1.87 1.457-3.011.34-1.143.512-2.383.512-3.721 0-1.575-.223-3.025-.67-4.35-.446-1.326-1.062-2.487-1.85-3.484a8.578 8.578 0 0 0-2.815-2.284 7.692 7.692 0 0 0-3.523-.826c-1.286 0-2.474.275-3.563.826a8.589 8.589 0 0 0-2.815 2.284c-.787.997-1.397 2.158-1.83 3.484-.433 1.325-.65 2.775-.65 4.35 0 1.338.177 2.578.532 3.72.354 1.142.833 2.146 1.437 3.012h-2.441v4.725h6.692v3.385h5.275v-3.385h6.693zM565.162 279.217v17.795h5.275v-2.362h5.55v-4.725h-5.55v-3.149h5.55v-4.725h-5.55v-2.834zM605.908 297.012h5.276v-23.03h-5.276zm-18.621-21.574v-7.834h24.094v-4.724h-25.236c-1.338 0-2.362.4-3.071 1.201-.709.8-1.063 1.79-1.063 2.972v8.385zm-7.323 16.85v4.724h19.92v-4.724h-7.322c.026-2.939.729-5.23 2.107-6.87 1.377-1.64 3.3-2.605 5.767-2.893V277.8c-2.519.132-4.724.749-6.614 1.85-1.89 1.182-3.189 2.612-3.898 4.292-.761-1.706-2.086-3.137-3.976-4.292-1.811-1.101-3.989-1.718-6.535-1.85v4.725c2.387.288 4.285 1.253 5.689 2.893 1.403 1.64 2.132 3.931 2.185 6.87zM634.58 292.327c-1.182 0-2.12-.317-2.816-.95-.696-.634-1.043-1.504-1.043-2.613 0-1.108.347-1.979 1.043-2.613.695-.634 1.634-.949 2.815-.949s2.12.315 2.815.95c.695.633 1.043 1.504 1.043 2.612 0 1.11-.348 1.98-1.043 2.613-.696.633-1.634.95-2.815.95m-2.638 3.937v3.031h5.276v-3.03h12.48v-4.174h-6.929a8.903 8.903 0 0 0 .688-1.594 5.622 5.622 0 0 0 .256-1.713c0-1.18-.229-2.25-.689-3.208a7.278 7.278 0 0 0-1.909-2.46c-1.628-1.497-3.806-2.245-6.535-2.245-2.73 0-4.92.748-6.575 2.244a7.052 7.052 0 0 0-1.889 2.461c-.447.957-.669 2.027-.669 3.208s.314 2.283.944 3.307h-6.929v4.173zM657.02 277.8v4.725h11.14v6.063h5.276v-6.063h10.354v9.055c0 .472-.21.708-.63.708h-24.842v4.724h26.653c.577 0 1.115-.111 1.615-.334.497-.223.93-.525 1.298-.906.367-.381.656-.813.867-1.298.21-.486.315-.992.315-1.517v-10.432h1.811V277.8zM732.095 285.449v-4.724h-5.511V262.88h-5.275v34.133h5.275v-11.564zm-15-10.208v-4.921c-2.913.657-5.354 1.759-7.322 3.308a17.58 17.58 0 0 0-2.303 2.244 13.37 13.37 0 0 0-1.792 2.716c-.997-2.047-2.335-3.701-4.014-4.96-1.97-1.55-4.41-2.651-7.324-3.308v4.92c3.465.972 5.867 3.059 7.206 6.26.917 2.232 1.377 5.079 1.377 8.544v6.969h5.59v-6.97c0-3.594.434-6.43 1.299-8.502 1.313-3.203 3.74-5.302 7.284-6.3M552.894 285.064c-.818-.866-1.899-1.299-3.242-1.299-1.346 0-2.427.433-3.243 1.3-.817.865-1.226 1.968-1.226 3.307 0 1.284.41 2.354 1.226 3.207.816.853 1.897 1.281 3.243 1.281 1.343 0 2.424-.428 3.242-1.28.816-.854 1.225-1.924 1.225-3.208 0-1.339-.409-2.442-1.225-3.308m5.812 6.881a8.815 8.815 0 0 1-2.067 2.928 9.023 9.023 0 0 1-3.07 2.003c-1.182.472-2.48.708-3.898.708-1.417 0-2.723-.236-3.917-.708a8.993 8.993 0 0 1-3.09-2.003 9.091 9.091 0 0 1-2.028-2.928c-.486-1.113-.728-2.31-.728-3.594 0-1.336.242-2.567.728-3.693a8.613 8.613 0 0 1 2.027-2.907 8.964 8.964 0 0 1 3.091-2.003c1.194-.47 2.5-.708 3.917-.708 1.417 0 2.716.237 3.897.708a8.994 8.994 0 0 1 3.071 2.003 8.366 8.366 0 0 1 2.067 2.907c.485 1.126.73 2.357.73 3.693a8.899 8.899 0 0 1-.73 3.594M564.596 268.085a4.462 4.462 0 0 0-1.096-1.548 5.161 5.161 0 0 0-1.71-1.019 6.291 6.291 0 0 0-2.193-.37c-.82 0-1.558.124-2.21.37a5.184 5.184 0 0 0-1.693 1.02c-.475.433-.84.95-1.096 1.547a4.887 4.887 0 0 0-.385 1.951c0 .704.128 1.355.385 1.953a4.441 4.441 0 0 0 1.096 1.547 5.169 5.169 0 0 0 1.692 1.02c.653.246 1.39.37 2.211.37a6.29 6.29 0 0 0 2.192-.37 5.146 5.146 0 0 0 1.711-1.02c.474-.434.84-.95 1.096-1.547a4.91 4.91 0 0 0 .384-1.953c0-.703-.128-1.353-.384-1.95m4.557 6.118c-.73 1.232-1.75 2.257-3.057 3.078l-.23.14c-.873.493-1.84.885-2.904 1.178-1.065.294-2.187.44-3.365.44-1.538 0-2.96-.229-4.268-.686-1.308-.457-2.436-1.085-3.384-1.88a8.828 8.828 0 0 1-2.21-2.867c-.528-1.09-.789-2.28-.789-3.57 0-1.336.261-2.538.788-3.605a8.947 8.947 0 0 1 2.211-2.83c.948-.82 2.076-1.449 3.384-1.883 1.307-.434 2.73-.65 4.268-.65 1.538 0 2.955.216 4.25.65 1.293.434 2.415 1.062 3.364 1.882.974.82 1.724 1.765 2.25 2.831.524 1.067.788 2.27.788 3.604 0 1.548-.366 2.937-1.096 4.168M639.456 267.6a4.163 4.163 0 0 0-1.07-1.44 5.094 5.094 0 0 0-1.668-.95 6.406 6.406 0 0 0-2.14-.343c-.8 0-1.52.115-2.156.344a5.119 5.119 0 0 0-1.651.949 4.15 4.15 0 0 0-1.07 1.44 4.38 4.38 0 0 0-.374 1.818c0 .655.125 1.26.375 1.817.25.557.606 1.037 1.069 1.44a5.1 5.1 0 0 0 1.65.95c.638.229 1.357.344 2.158.344.775 0 1.488-.115 2.139-.344a5.076 5.076 0 0 0 1.669-.95 4.154 4.154 0 0 0 1.069-1.44 4.396 4.396 0 0 0 .375-1.817c0-.655-.126-1.261-.375-1.817m4.446 5.697c-.713 1.146-1.708 2.1-2.983 2.865l-.225.13a12.913 12.913 0 0 1-6.115 1.507c-1.5 0-2.89-.213-4.164-.638-1.276-.426-2.376-1.01-3.301-1.752a8.277 8.277 0 0 1-2.157-2.668c-.514-1.016-.77-2.124-.77-3.324 0-1.244.256-2.363.77-3.356.512-.992 1.23-1.872 2.157-2.636.925-.763 2.025-1.347 3.3-1.751 1.276-.404 2.665-.606 4.165-.606s2.883.202 4.145.606c1.263.404 2.358.988 3.283 1.75.95.765 1.682 1.645 2.195 2.637.512.993.769 2.112.769 3.356 0 1.44-.357 2.734-1.07 3.88" style="fill:#656263;fill-opacity:1;fill-rule:nonzero;stroke:none" transform="matrix(1.33333 0 0 -1.33333 -350.594 418.571)"/><path d="M679.45 268.439a4.695 4.695 0 0 0-1.206-1.626 5.756 5.756 0 0 0-1.884-1.071 7.229 7.229 0 0 0-2.412-.388c-.904 0-1.715.13-2.434.388a5.777 5.777 0 0 0-1.863 1.07 4.683 4.683 0 0 0-1.206 1.627 4.93 4.93 0 0 0-.423 2.05c0 .739.14 1.423.423 2.05a4.688 4.688 0 0 0 1.206 1.626 5.759 5.759 0 0 0 1.863 1.07c.72.26 1.53.389 2.434.389.874 0 1.678-.13 2.412-.388a5.739 5.739 0 0 0 1.884-1.071 4.7 4.7 0 0 0 1.206-1.625 4.966 4.966 0 0 0 .423-2.051c0-.74-.142-1.422-.423-2.05m5.016 6.428c-.805 1.293-1.927 2.37-3.365 3.232l-.254.148c-.96.517-2.026.929-3.196 1.237a14.468 14.468 0 0 1-3.703.462c-1.693 0-3.26-.24-4.699-.72s-2.68-1.14-3.725-1.976c-1.044-.862-1.855-1.866-2.433-3.011-.579-1.145-.868-2.396-.868-3.75 0-1.403.29-2.666.868-3.786.578-1.12 1.39-2.112 2.433-2.974 1.044-.862 2.286-1.52 3.725-1.976 1.44-.456 3.006-.684 4.7-.684 1.692 0 3.252.228 4.676.684 1.425.456 2.66 1.114 3.704 1.976 1.072.862 1.898 1.854 2.476 2.974.578 1.12.868 2.383.868 3.786 0 1.626-.402 3.084-1.206 4.378M617.65 280.399h33.858v-4.016H617.65Z" style="fill:#656263;fill-opacity:1;fill-rule:nonzero;stroke:none" transform="matrix(1.33333 0 0 -1.33333 -350.594 418.571)"/><path d="M545.243 241.564c.622 0 1.109.118 1.464.355s.533.594.533 1.069v.029c0 .445-.176.788-.525 1.03-.35.244-.885.365-1.605.365h-2.883v-2.848zm-.533 4.39c.591 0 1.064.116 1.419.348.355.232.533.587.533 1.062v.029c0 .415-.156.739-.467.97-.31.233-.761.35-1.352.35h-2.616v-2.76zm-4.293 4.376h4.649c1.194 0 2.097-.306 2.709-.92.464-.464.696-1.038.696-1.72v-.03a2.56 2.56 0 0 0-.125-.838 2.418 2.418 0 0 0-.323-.638 2.294 2.294 0 0 0-.472-.482 3.956 3.956 0 0 0-.551-.356c.304-.11.582-.235.833-.378.251-.144.467-.315.649-.512.182-.198.322-.43.42-.698a2.7 2.7 0 0 0 .147-.933v-.031c0-.464-.091-.875-.273-1.23a2.443 2.443 0 0 0-.778-.89 3.667 3.667 0 0 0-1.214-.542 6.244 6.244 0 0 0-1.57-.185h-4.797zM554.746 239.783c-.673 0-1.28.096-1.824.29a3.692 3.692 0 0 0-1.395.866 3.89 3.89 0 0 0-.89 1.432c-.208.57-.31 1.228-.31 1.98v5.978h1.808v-5.903c0-.97.234-1.706.702-2.21.467-.505 1.113-.757 1.94-.757.814 0 1.456.243 1.923.727.467.484.701 1.206.701 2.165v5.978h1.81v-5.889c0-.77-.106-1.448-.319-2.032a3.996 3.996 0 0 0-.897-1.46 3.623 3.623 0 0 0-1.402-.875c-.549-.194-1.165-.29-1.847-.29M564.73 239.798c-.8 0-1.568.136-2.3.407a6.271 6.271 0 0 0-2.032 1.254l1.098 1.305a6.367 6.367 0 0 1 1.528-1c.513-.234 1.098-.35 1.75-.35.563 0 1.011.12 1.341.358.331.237.498.553.498.949v.029c0 .188-.033.354-.097.497a1.089 1.089 0 0 1-.356.408 2.824 2.824 0 0 1-.715.356c-.303.109-.695.218-1.183.327a11.55 11.55 0 0 0-1.478.437c-.43.163-.794.36-1.086.594a2.276 2.276 0 0 0-.669.852c-.154.336-.23.742-.23 1.217v.029a2.802 2.802 0 0 0 .992 2.173c.31.262.681.468 1.115.616a4.38 4.38 0 0 0 1.422.223c.762 0 1.447-.112 2.055-.335a6.123 6.123 0 0 0 1.714-.971l-.98-1.38c-.474.347-.943.61-1.41.794a3.806 3.806 0 0 1-1.407.274c-.535 0-.95-.118-1.248-.355-.296-.238-.443-.53-.443-.876v-.03c0-.198.032-.372.103-.526.07-.154.194-.292.38-.415.183-.124.436-.241.757-.348.322-.11.732-.223 1.227-.342.547-.138 1.03-.292 1.45-.46a3.649 3.649 0 0 0 1.048-.615 2.45 2.45 0 0 0 .634-.846 2.73 2.73 0 0 0 .215-1.12v-.03c0-.484-.09-.92-.272-1.305a2.858 2.858 0 0 0-.757-.98 3.332 3.332 0 0 0-1.168-.606 5.091 5.091 0 0 0-1.497-.208M570.381 250.329h1.81v-10.383h-1.81zM574.682 250.33h1.688l5.55-7.18v7.18h1.81v-10.384h-1.524l-5.714 7.387v-7.387h-1.81zM586.103 250.33h7.684v-1.648h-5.874v-2.669h5.207v-1.647h-5.207v-2.773h5.948v-1.647h-7.758zM599.394 239.798c-.8 0-1.568.136-2.3.407a6.282 6.282 0 0 0-2.032 1.254l1.097 1.305a6.391 6.391 0 0 1 1.53-1c.512-.234 1.096-.35 1.748-.35.565 0 1.011.12 1.343.358.331.237.498.553.498.949v.029c0 .188-.033.354-.098.497a1.08 1.08 0 0 1-.356.408 2.807 2.807 0 0 1-.715.356c-.302.109-.695.218-1.182.327a11.52 11.52 0 0 0-1.479.437c-.43.163-.793.36-1.086.594a2.286 2.286 0 0 0-.669.852c-.154.336-.23.742-.23 1.217v.029a2.802 2.802 0 0 0 .993 2.173c.31.262.68.468 1.114.616.434.148.91.223 1.423.223.761 0 1.446-.112 2.055-.335a6.132 6.132 0 0 0 1.713-.971l-.979-1.38c-.475.347-.944.61-1.41.794a3.815 3.815 0 0 1-1.408.274c-.535 0-.95-.118-1.247-.355-.297-.238-.445-.53-.445-.876v-.03c0-.198.034-.372.105-.526.07-.154.194-.292.38-.415.182-.124.435-.241.757-.348.322-.11.731-.223 1.227-.342a11.772 11.772 0 0 0 1.45-.46c.421-.168.77-.374 1.048-.615.278-.243.488-.524.632-.846.143-.321.216-.694.216-1.12v-.03c0-.484-.09-.92-.272-1.305a2.825 2.825 0 0 0-.758-.98 3.331 3.331 0 0 0-1.166-.606 5.1 5.1 0 0 0-1.497-.208M608.591 239.798c-.8 0-1.568.136-2.3.407a6.282 6.282 0 0 0-2.032 1.254l1.097 1.305a6.391 6.391 0 0 1 1.53-1c.513-.234 1.097-.35 1.749-.35.564 0 1.01.12 1.343.358.33.237.497.553.497.949v.029c0 .188-.033.354-.098.497a1.08 1.08 0 0 1-.356.408 2.807 2.807 0 0 1-.715.356c-.302.109-.695.218-1.182.327a11.52 11.52 0 0 0-1.479.437c-.43.163-.793.36-1.086.594a2.286 2.286 0 0 0-.669.852c-.154.336-.23.742-.23 1.217v.029a2.802 2.802 0 0 0 .993 2.173c.308.262.68.468 1.114.616.434.148.91.223 1.423.223.761 0 1.446-.112 2.055-.335a6.132 6.132 0 0 0 1.713-.971l-.979-1.38c-.475.347-.944.61-1.41.794a3.815 3.815 0 0 1-1.408.274c-.535 0-.95-.118-1.247-.355-.297-.238-.445-.53-.445-.876v-.03c0-.198.034-.372.105-.526.07-.154.194-.292.38-.415.181-.124.435-.241.757-.348.322-.11.731-.223 1.227-.342a11.772 11.772 0 0 0 1.45-.46c.421-.168.77-.374 1.048-.615.278-.243.488-.524.632-.846.143-.321.216-.694.216-1.12v-.03c0-.484-.09-.92-.272-1.305a2.825 2.825 0 0 0-.758-.98 3.331 3.331 0 0 0-1.166-.606 5.1 5.1 0 0 0-1.497-.208M622.71 239.768c-.76 0-1.463.138-2.105.415-.643.277-1.2.656-1.673 1.135a5.273 5.273 0 0 0-1.113 1.699 5.454 5.454 0 0 0-.403 2.091v.03c0 .742.132 1.436.396 2.084a5.26 5.26 0 0 0 1.112 1.706 5.283 5.283 0 0 0 1.696 1.157c.653.282 1.374.423 2.166.423.474 0 .907-.04 1.297-.119a5.08 5.08 0 0 0 1.981-.846 7.07 7.07 0 0 0 .786-.653l-1.172-1.349a5.87 5.87 0 0 1-1.32.934c-.465.238-.994.356-1.587.356-.495 0-.952-.096-1.372-.289a3.419 3.419 0 0 1-1.803-1.95 4 4 0 0 1-.252-1.424v-.03c0-.504.084-.981.252-1.432.169-.45.406-.843.712-1.178a3.338 3.338 0 0 1 1.09-.794c.42-.193.878-.29 1.373-.29.632 0 1.176.122 1.63.364.456.242.907.571 1.35.986l1.173-1.186a6.617 6.617 0 0 0-.838-.764 5.54 5.54 0 0 0-.941-.579 4.73 4.73 0 0 0-1.106-.37 6.412 6.412 0 0 0-1.328-.127M633.17 241.444c.51 0 .981.097 1.41.29.428.192.794.455 1.1.785.305.332.543.721.715 1.165.173.446.26.92.26 1.424v.03c0 .505-.087.981-.26 1.431a3.52 3.52 0 0 1-.723 1.172 3.5 3.5 0 0 1-1.114.794 3.391 3.391 0 0 1-1.418.296c-.513 0-.983-.096-1.41-.289a3.335 3.335 0 0 1-1.1-.786 3.654 3.654 0 0 1-.718-1.164 3.917 3.917 0 0 1-.259-1.424v-.03c0-.504.087-.981.26-1.432.172-.45.412-.841.723-1.171a3.472 3.472 0 0 1 1.115-.794 3.385 3.385 0 0 1 1.418-.297m-.029-1.676c-.8 0-1.534.141-2.196.423a5.221 5.221 0 0 0-1.706 1.15 5.371 5.371 0 0 0-1.513 3.767v.03c0 .731.134 1.422.401 2.069a5.231 5.231 0 0 0 1.127 1.706c.484.49 1.058.878 1.721 1.164.662.287 1.394.431 2.195.431.801 0 1.533-.141 2.196-.423a5.243 5.243 0 0 0 1.705-1.15 5.288 5.288 0 0 0 1.113-1.699c.266-.647.4-1.336.4-2.068v-.03c0-.732-.134-1.422-.4-2.07a5.261 5.261 0 0 0-1.128-1.705 5.424 5.424 0 0 0-1.72-1.165 5.48 5.48 0 0 0-2.195-.43M644.644 245.183c.654 0 1.175.156 1.562.469.387.312.58.737.58 1.274v.029c0 .567-.188.996-.565 1.289-.377.292-.907.439-1.592.439h-2.664v-3.5zm-4.488 5.146h4.628c.653 0 1.23-.091 1.735-.274a3.488 3.488 0 0 0 1.26-.764 3.02 3.02 0 0 0 .639-.993c.148-.377.223-.792.223-1.247v-.03c0-.425-.062-.807-.185-1.148a3.024 3.024 0 0 0-.513-.906 3.082 3.082 0 0 0-.78-.667 3.816 3.816 0 0 0-1-.422l2.804-3.932h-2.151l-2.56 3.62h-2.291v-3.62h-1.81zM654.521 244.93c.694 0 1.243.174 1.644.522.403.347.603.794.603 1.34v.03c0 .615-.203 1.08-.61 1.392-.407.313-.952.469-1.637.469h-2.129v-3.752zm-3.938 5.399h4.094c.603 0 1.15-.08 1.64-.244a3.505 3.505 0 0 0 1.245-.704c.341-.308.603-.674.786-1.098.183-.426.274-.9.274-1.424v-.03c0-.583-.109-1.096-.327-1.536a3.193 3.193 0 0 0-.89-1.104 3.991 3.991 0 0 0-1.325-.675 5.567 5.567 0 0 0-1.62-.23h-2.068v-3.337h-1.809zM664.84 241.444c.51 0 .982.097 1.41.29.428.192.794.455 1.1.785.305.332.543.721.715 1.165.173.446.26.92.26 1.424v.03c0 .505-.087.981-.26 1.431a3.52 3.52 0 0 1-.723 1.172 3.5 3.5 0 0 1-1.113.794 3.391 3.391 0 0 1-1.418.296c-.513 0-.983-.096-1.411-.289a3.335 3.335 0 0 1-1.1-.786 3.654 3.654 0 0 1-.717-1.164 3.917 3.917 0 0 1-.26-1.424v-.03c0-.504.088-.981.26-1.432a3.472 3.472 0 0 1 1.839-1.965 3.385 3.385 0 0 1 1.418-.297m-.03-1.676c-.8 0-1.533.141-2.195.423a5.221 5.221 0 0 0-1.706 1.15 5.371 5.371 0 0 0-1.513 3.767v.03c0 .731.134 1.422.4 2.069a5.231 5.231 0 0 0 1.128 1.706c.484.49 1.058.878 1.72 1.164.663.287 1.395.431 2.196.431.8 0 1.533-.141 2.195-.423a5.237 5.237 0 0 0 1.706-1.15 5.288 5.288 0 0 0 1.113-1.699c.266-.647.4-1.336.4-2.068v-.03c0-.732-.134-1.422-.4-2.07a5.261 5.261 0 0 0-1.128-1.705 5.424 5.424 0 0 0-1.721-1.165 5.48 5.48 0 0 0-2.194-.43M676.314 245.183c.654 0 1.175.156 1.562.469.387.312.581.737.581 1.274v.029c0 .567-.189.996-.566 1.289-.377.292-.907.439-1.592.439h-2.664v-3.5zm-4.488 5.146h4.628c.653 0 1.231-.091 1.735-.274a3.496 3.496 0 0 0 1.261-.764 3.02 3.02 0 0 0 .638-.993c.148-.377.223-.792.223-1.247v-.03c0-.425-.062-.807-.185-1.148a3.024 3.024 0 0 0-.513-.906 3.082 3.082 0 0 0-.779-.667 3.816 3.816 0 0 0-1.001-.422l2.804-3.932h-2.151l-2.559 3.62h-2.292v-3.62h-1.809zM688.543 244.07l-1.796 4.153-1.779-4.153zm-2.611 6.333h1.691l4.569-10.457h-1.929l-1.053 2.507h-4.909l-1.069-2.507h-1.869zM694.865 248.638h-3.293v1.691h8.425v-1.691h-3.293v-8.692h-1.839zM701.732 250.329h1.81v-10.383h-1.81zM710.677 241.444c.511 0 .982.097 1.411.29.428.192.794.455 1.1.785.305.332.543.721.715 1.165.173.446.26.92.26 1.424v.03c0 .505-.087.981-.26 1.431a3.52 3.52 0 0 1-.723 1.172 3.5 3.5 0 0 1-1.114.794 3.391 3.391 0 0 1-1.418.296c-.513 0-.983-.096-1.41-.289a3.335 3.335 0 0 1-1.1-.786 3.636 3.636 0 0 1-.718-1.164 3.917 3.917 0 0 1-.259-1.424v-.03c0-.504.087-.981.26-1.432a3.472 3.472 0 0 1 1.839-1.965 3.382 3.382 0 0 1 1.417-.297m-.029-1.676c-.8 0-1.534.141-2.196.423a5.221 5.221 0 0 0-1.706 1.15 5.353 5.353 0 0 0-1.513 3.767v.03c0 .731.133 1.422.401 2.069a5.231 5.231 0 0 0 1.127 1.706c.484.49 1.058.878 1.721 1.164.662.287 1.394.431 2.195.431.801 0 1.533-.141 2.195-.423a5.237 5.237 0 0 0 1.706-1.15 5.288 5.288 0 0 0 1.113-1.699c.266-.647.4-1.336.4-2.068v-.03c0-.732-.134-1.422-.4-2.07a5.261 5.261 0 0 0-1.128-1.705 5.424 5.424 0 0 0-1.72-1.165 5.48 5.48 0 0 0-2.195-.43M717.664 250.33h1.688l5.551-7.18v7.18h1.81v-10.384h-1.525l-5.714 7.387v-7.387h-1.81z" style="fill:#5a5758;fill-opacity:1;fill-rule:nonzero;stroke:none" transform="matrix(1.33333 0 0 -1.33333 -350.594 418.571)"/></svg>