<svg xmlns="http://www.w3.org/2000/svg" xml:space="preserve" width="1000px" height="544px" x="0px" y="0px" viewBox="0 0 1000 544"><g fill="#1C1C1B"><path d="M445.807 511.75v-26.945c0-3.89-.115-7.099-.34-9.607h8.016c5.763 0 10.18 1.51 13.256 4.515 3.073 3.012 4.609 7.479 4.609 13.401 0 5.861-1.536 10.43-4.609 13.714-3.076 3.284-7.363 4.923-12.871 4.923h-8.061zm4.973-4.345h3.475c3.896 0 6.881-1.285 8.958-3.862 2.074-2.576 3.114-6.051 3.114-10.43 0-9.56-5.185-14.068-15.547-13.523v27.815zM486.942 484.757c2.513 0 4.668.707 6.47 2.128 1.802 1.414 3.097 3.148 3.889 5.188.786 2.046 1.184 4.256 1.184 6.643 0 2.38-.397 4.59-1.184 6.636-.792 2.047-2.087 3.774-3.889 5.188-1.802 1.421-3.957 2.128-6.47 2.128-3.668 0-6.486-1.387-8.451-4.154-1.962-2.768-2.944-6.031-2.944-9.798s.982-7.037 2.944-9.805c1.965-2.766 4.783-4.154 8.451-4.154zm5.844 18.304a15.28 15.28 0 0 0 .626-4.345c0-1.482-.207-2.931-.626-4.352a8.9 8.9 0 0 0-2.176-3.712c-1.03-1.068-2.25-1.599-3.668-1.599-1.417 0-2.624.53-3.62 1.599a9.09 9.09 0 0 0-2.125 3.712 15.332 15.332 0 0 0-.629 4.352c0 2.414.547 4.617 1.642 6.616 1.095 1.992 2.673 2.991 4.732 2.991 1.418 0 2.638-.523 3.668-1.57a8.74 8.74 0 0 0 2.176-3.692zM503.41 511.75v-17.576c0-3.312-.115-6.229-.34-8.737h5.409v2.074c2.026-1.836 4.216-2.754 6.568-2.754 2.831 0 5.045.966 6.636 2.896 1.595 1.931 2.391 4.427 2.391 7.486v16.61h-4.971v-16.08c0-2.088-.452-3.699-1.354-4.828-.9-1.128-2.189-1.686-3.861-1.686-1 0-2.054.395-3.166 1.183-1.107.789-1.855 1.774-2.243 2.965v18.446h-5.069zM548.119 481.282l5.12 1.884c-.323.932-.941 1.815-1.859 2.658-.918.836-1.813 1.428-2.679 1.781 1.479 1.388 2.22 3.332 2.22 5.848 0 2.475-.942 4.406-2.825 5.793-1.884 1.381-4.175 2.142-6.881 2.265-1.962.258-3.233.503-3.814.728a1.467 1.467 0 0 0-.796.652c-.177.307-.187.605-.023.891.159.293.466.469.918.53.608.231 1.584.422 2.92.585 1.337.156 2.485.271 3.451.333 2.447.259 4.46.911 6.038 1.958 1.577 1.047 2.365 2.516 2.365 4.42 0 5.501-3.943 8.254-11.83 8.254-3.349 0-6.093-.57-8.234-1.713-2.139-1.143-3.209-2.972-3.209-5.48 0-2.38 1.414-4.202 4.249-5.46-1.192-.734-1.788-1.829-1.788-3.277 0-2.318 1.207-3.576 3.621-3.767-1.514-.585-2.761-1.482-3.74-2.706-.982-1.224-1.472-2.61-1.472-4.154 0-2.733 1.026-4.916 3.091-6.541 2.057-1.625 4.552-2.44 7.482-2.44 2.189 0 3.991.292 5.408.87 1.319-.743 2.074-2.042 2.267-3.912zm-14.051 30.658c0 1.421.582 2.448 1.741 3.094 1.155.646 2.604.966 4.345.966 1.995 0 3.668-.313 5.021-.945 1.353-.625 2.025-1.666 2.025-3.114 0-1.931-2.719-3.073-8.158-3.427a27.978 27.978 0 0 1-2.078-.19c-1.93.931-2.896 2.141-2.896 3.616zm6.328-23.559c-1.707 0-3.05.408-4.032 1.23-.982.823-1.472 2.02-1.472 3.598 0 1.481.507 2.624 1.52 3.426 1.013.81 2.343 1.211 3.984 1.211 1.544 0 2.832-.415 3.862-1.23 1.029-.823 1.547-1.973 1.547-3.454 0-1.482-.518-2.646-1.547-3.502-1.03-.85-2.319-1.279-3.862-1.279zM576.561 490.55v-5.793c0-3.862-.111-7.051-.336-9.56h5.311v36.553h-4.975v-16.754h-14.098v16.754h-5.021v-26.993c0-3.794-.099-6.983-.293-9.56h5.314v15.353h14.098zM602.49 495.044c.096-1.896-.292-3.358-1.159-4.372-.87-1.013-2.125-1.516-3.767-1.516-1.354 0-2.68.326-3.984.985-1.303.66-2.391 1.632-3.257 2.924l-3.284-2.753c2.284-3.672 5.81-5.508 10.572-5.508 2.962 0 5.328.789 7.1 2.366 1.771 1.577 2.654 3.849 2.654 6.813v12.6c0 1.931.307 3.705.918 5.31h-4.586a5.731 5.731 0 0 1-.53-2.168c-1.87 1.931-4.365 2.896-7.486 2.896-2.577 0-4.708-.729-6.397-2.176-1.69-1.449-2.533-3.441-2.533-5.984 0-1.774.482-3.331 1.448-4.685.966-1.353 2.251-2.38 3.862-3.094 2.284-1.026 5.761-1.577 10.429-1.638zm-10.719 9.465c0 1.251.377 2.196 1.132 2.821.758.633 1.717.945 2.873.945 2.607 0 4.389-.707 5.337-2.128.949-1.414 1.441-3.72 1.473-6.901-.966 0-1.748.014-2.343.048s-1.377.095-2.343.19c-.965.095-1.754.266-2.365.51a13.45 13.45 0 0 0-1.881.918c-.646.367-1.121.856-1.424 1.469-.309.611-.459 1.326-.459 2.128zM613.787 511.75v-17.576c0-3.312-.115-6.229-.34-8.737h5.409v2.074c2.026-1.836 4.216-2.754 6.568-2.754 2.832 0 5.045.966 6.636 2.896 1.595 1.931 2.391 4.427 2.391 7.486v16.61h-4.971v-16.08c0-2.088-.452-3.699-1.354-4.828-.9-1.128-2.189-1.686-3.861-1.686-1 0-2.054.395-3.166 1.183-1.107.789-1.855 1.774-2.243 2.965v18.446h-5.069zM658.5 481.282l5.12 1.884c-.323.932-.942 1.815-1.86 2.658-.918.836-1.812 1.428-2.679 1.781 1.479 1.388 2.22 3.332 2.22 5.848 0 2.475-.941 4.406-2.824 5.793-1.884 1.381-4.176 2.142-6.881 2.265-1.962.258-3.233.503-3.814.728a1.467 1.467 0 0 0-.796.652c-.177.307-.187.605-.024.891.16.293.467.469.918.53.609.231 1.585.422 2.921.585 1.336.156 2.485.271 3.45.333 2.448.259 4.461.911 6.038 1.958s2.366 2.516 2.366 4.42c0 5.501-3.943 8.254-11.831 8.254-3.349 0-6.092-.57-8.233-1.713-2.139-1.143-3.21-2.972-3.21-5.48 0-2.38 1.415-4.202 4.25-5.46-1.193-.734-1.788-1.829-1.788-3.277 0-2.318 1.207-3.576 3.62-3.767-1.513-.585-2.761-1.482-3.739-2.706-.982-1.224-1.473-2.61-1.473-4.154 0-2.733 1.027-4.916 3.091-6.541 2.057-1.625 4.552-2.44 7.482-2.44 2.189 0 3.991.292 5.409.87 1.319-.743 2.074-2.042 2.267-3.912zm-14.051 30.658c0 1.421.581 2.448 1.74 3.094 1.156.646 2.604.966 4.345.966 1.996 0 3.669-.313 5.021-.945 1.354-.625 2.026-1.666 2.026-3.114 0-1.931-2.72-3.073-8.159-3.427a27.937 27.937 0 0 1-2.077-.19c-1.931.931-2.896 2.141-2.896 3.616zm6.326-23.559c-1.706 0-3.049.408-4.031 1.23-.982.823-1.473 2.02-1.473 3.598 0 1.481.507 2.624 1.52 3.426 1.014.81 2.343 1.211 3.984 1.211 1.544 0 2.832-.415 3.862-1.23 1.03-.823 1.547-1.973 1.547-3.454 0-1.482-.517-2.646-1.547-3.502-1.03-.85-2.318-1.279-3.862-1.279zM681.968 511.75v-26.993c0-3.862-.115-7.051-.34-9.56h5.409v32.113h15.835v4.439h-20.904zM716.828 484.757c2.512 0 4.668.707 6.47 2.128 1.802 1.414 3.097 3.148 3.889 5.188.786 2.046 1.184 4.256 1.184 6.643 0 2.38-.397 4.59-1.184 6.636-.792 2.047-2.087 3.774-3.889 5.188-1.802 1.421-3.958 2.128-6.47 2.128-3.668 0-6.486-1.387-8.451-4.154-1.962-2.768-2.944-6.031-2.944-9.798s.982-7.037 2.944-9.805c1.965-2.766 4.783-4.154 8.451-4.154zm5.844 18.304c.418-1.421.626-2.869.626-4.345 0-1.482-.208-2.931-.626-4.352a8.91 8.91 0 0 0-2.176-3.712c-1.029-1.068-2.25-1.599-3.668-1.599s-2.625.53-3.621 1.599a9.112 9.112 0 0 0-2.125 3.712 15.332 15.332 0 0 0-.629 4.352c0 2.414.548 4.617 1.643 6.616 1.095 1.992 2.672 2.991 4.732 2.991 1.418 0 2.639-.523 3.668-1.57a8.76 8.76 0 0 0 2.176-3.692zM730.879 489.584v-4.392h4.154v-1.687c0-3.025-.112-5.8-.336-8.309h5.31v9.995h5.793v4.392h-5.793v15.408c0 2.379.966 3.569 2.896 3.569.806 0 1.836-.204 3.091-.626l.724 3.332c-.612.414-1.4.755-2.366 1.013-.965.259-1.737.388-2.318.388-4.668 0-7-2.434-7-7.289v-15.795h-4.155zM748.407 489.584v-4.392h4.155v-1.687c0-3.025-.113-5.8-.337-8.309h5.31v9.995h5.793v4.392h-5.793v15.408c0 2.379.966 3.569 2.896 3.569.807 0 1.836-.204 3.091-.626l.724 3.332c-.611.414-1.4.755-2.365 1.013-.966.259-1.737.388-2.318.388-4.668 0-7-2.434-7-7.289v-15.795h-4.156zM789.932 500.646h-17.043c.16 2.285.86 4.141 2.098 5.576 1.24 1.435 3.019 2.148 5.338 2.148 2.767 0 5.021-.85 6.758-2.557l2.077 3.229c-1.095 1.034-2.502 1.891-4.226 2.584-1.721.693-3.438 1.04-5.141 1.04-2.736 0-5.062-.693-6.979-2.074-1.913-1.387-3.28-3.086-4.103-5.099-.82-2.006-1.231-4.223-1.231-6.637 0-3.827.996-7.126 2.992-9.872 1.995-2.754 4.831-4.135 8.499-4.135 1.996 0 3.719.375 5.168 1.115 1.447.741 2.583 1.789 3.402 3.135.823 1.354 1.425 2.862 1.813 4.515.384 1.659.578 3.522.578 5.583v1.449zm-16.948-4.249h11.684c.031-2.061-.441-3.787-1.424-5.168-.982-1.387-2.407-2.073-4.273-2.073-1.578 0-2.954.721-4.127 2.169-1.177 1.448-1.795 3.142-1.86 5.072zM795.533 511.75v-18.106c0-2.448-.111-5.181-.34-8.207h5.314v3.237c.836-1.455 2.073-2.557 3.716-3.312 1.642-.755 3.331-.993 5.072-.7l-.918 5.024c-1.836-.483-3.55-.245-5.144.721-1.592.966-2.502 2.366-2.727 4.202v17.141h-4.973zM823.248 504.604l4.974-13.47c.707-2.318 1.159-4.202 1.353-5.65h6.082a74.142 74.142 0 0 0-2.365 5.697l-7.772 19.46c-1.095 2.733-2.472 4.849-4.13 6.351-1.659 1.496-3.743 2.482-6.252 2.965l-2.271-3.569c1.932-.293 3.624-.986 5.072-2.081s2.38-2.428 2.798-4.005l-7.577-19.215c-.229-.482-.589-1.353-1.088-2.61-.5-1.258-.912-2.251-1.231-2.992h6.276a35.114 35.114 0 0 0 1.4 5.697l4.731 13.422z"/></g><g fill="#F39500"><path d="M292.771 361.346h-32.716c-19.648 0-35.574 15.928-35.574 35.574v.02c0 19.647 15.926 35.574 35.574 35.574h32.716c19.647 0 35.574-15.927 35.574-35.574v-.02c.001-19.647-15.926-35.574-35.574-35.574zm3.155 35.593c0 5.6-4.541 10.139-10.141 10.139h-18.743c-5.6 0-10.14-4.539-10.14-10.139v-.02c0-5.6 4.54-10.139 10.14-10.139h18.743c5.6 0 10.141 4.539 10.141 10.139v.02zM368.882 444.393h-75.944c-27.013 0-48.912 21.897-48.912 48.911 0 27.014 21.899 48.911 48.912 48.911h75.944c27.015 0 48.911-21.897 48.911-48.911 0-27.014-21.897-48.911-48.911-48.911zm-1.63 63.618h-72.684c-8.121 0-14.707-6.585-14.707-14.707s6.586-14.707 14.707-14.707h72.684c8.122 0 14.705 6.585 14.705 14.707s-6.583 14.707-14.705 14.707zM142.179 361.346H66.233c-27.014 0-48.911 21.896-48.911 48.911 0 27.014 21.897 48.907 48.911 48.907h75.945c27.012 0 48.911-21.894 48.911-48.907.001-27.015-21.899-48.911-48.91-48.911zm-1.632 63.617H67.863c-8.121 0-14.705-6.588-14.705-14.706 0-8.126 6.584-14.707 14.705-14.707h72.684c8.122 0 14.707 6.581 14.707 14.707 0 8.118-6.585 14.706-14.707 14.706zM195.549 349.572H15.196c-7.787 0-11.685-3.971-11.685-11.902v-3.613c0-7.785 3.828-11.682 11.476-11.682H87.42v-13.381H50.673c-5.096 0-9.313-.286-12.638-.85-3.334-.564-6.658-1.7-9.983-3.4-3.332-1.692-5.809-4.46-7.432-8.281-1.632-3.828-2.447-8.71-2.447-14.663v-46.477c0-6.087 1.067-10.339 3.187-12.745 2.125-2.404 6.162-3.61 12.108-3.61h146.151c7.647 0 11.467 3.749 11.467 11.259v4.461c0 7.649-3.889 11.469-11.683 11.469H60.231c-2.266 0-3.819.391-4.671 1.171-.851.78-1.275 2.727-1.275 5.843v20.349c0 3.539.425 5.807 1.275 6.796.852.992 2.901 1.485 6.163 1.485h120.663c7.641 0 11.467 3.757 11.467 11.26v4.464c0 7.646-3.896 11.471-11.683 11.471h-58.63v13.381h72.224c7.648 0 11.469 3.896 11.469 11.682v3.613c-.001 7.93-3.891 11.9-11.684 11.9zM319.439 349.572h-88.155c-7.792 0-11.685-3.468-11.685-10.41v-6.163c0-3.961.948-6.653 2.865-8.074 1.911-1.407 4.777-2.118 8.605-2.118h88.585c3.821 0 6.693.711 8.604 2.118 1.908 1.421 2.862 4.113 2.862 8.074v6.163c.002 6.942-3.893 10.41-11.681 10.41zM299.682 308.1H251.67c-7.789 0-11.685-3.396-11.685-10.191v-4.886c0-3.828.962-6.442 2.871-7.86 1.911-1.414 4.783-2.125 8.604-2.125h48.437c3.821 0 6.694.711 8.604 2.125 1.91 1.418 2.865 4.032 2.865 7.86v4.886c0 6.794-3.897 10.191-11.684 10.191zM370.848 295.113v64.95h11.26v-64.95c0-3.396 1.197-6.266 3.609-8.604 2.406-2.332 5.592-3.498 9.559-3.498h8.289c3.96 0 7.146 1.166 9.558 3.498 2.405 2.339 3.612 5.208 3.612 8.604v125.084c0 3.403-1.207 6.269-3.612 8.604-2.412 2.335-5.598 3.505-9.558 3.505h-8.289c-3.967 0-7.152-1.17-9.559-3.505-2.412-2.336-3.609-5.201-3.609-8.604v-30.818h-11.26v30.862c0 3.396-1.207 6.266-3.611 8.604-2.406 2.332-5.599 3.498-9.558 3.498h-8.283c-3.975 0-7.153-1.166-9.565-3.498-2.412-2.339-3.61-5.208-3.61-8.604V295.113c0-3.396 1.198-6.266 3.61-8.604 2.412-2.332 5.591-3.498 9.565-3.498h8.283c3.959 0 7.151 1.166 9.558 3.498 2.404 2.339 3.611 5.208 3.611 8.604z"/></g><g fill="#007BC3"><path d="M621.515 384.392H441.162c-7.787 0-11.685-3.964-11.685-11.896v-4.671c0-7.788 3.828-11.685 11.468-11.685h72.443v-11.685H476.64c-22.378 0-33.566-10.121-33.566-30.383v-82.64c0-3.395 1.205-6.267 3.61-8.601 2.405-2.336 5.6-3.507 9.557-3.507h9.775c3.959 0 7.153 1.171 9.565 3.507 2.396 2.334 3.61 5.206 3.61 8.601v75.844c0 3.542.558 5.953 1.694 7.225 1.138 1.274 3.325 1.917 6.589 1.917h88.155c3.253 0 5.415-.643 6.476-1.917 1.064-1.271 1.595-3.683 1.595-7.225v-75.844c0-3.395 1.207-6.267 3.61-8.601 2.407-2.336 5.6-3.507 9.561-3.507h9.773c3.961 0 7.153 1.171 9.557 3.507 2.407 2.334 3.621 5.206 3.621 8.601v82.64c0 20.262-11.199 30.383-33.572 30.383h-36.743v11.685h72.222c7.643 0 11.471 3.896 11.471 11.685v4.671c-.001 7.932-3.899 11.896-11.685 11.896zM618.754 447.055c0 3.402-1.206 6.269-3.613 8.611-2.41 2.336-5.596 3.498-9.557 3.498h-9.773c-3.965 0-7.153-1.162-9.561-3.498-2.41-2.343-3.61-5.209-3.61-8.611v-17.202c0-3.118-.421-5.063-1.274-5.845-.851-.778-2.41-1.166-4.668-1.166H455.391c-7.787 0-11.686-3.896-11.686-11.681v-5.104c0-7.642 3.828-11.467 11.478-11.467h148.276c5.946 0 9.981 1.204 12.109 3.61 2.119 2.41 3.186 6.656 3.186 12.742v36.113z"/><path d="m533.854 289.33-79.044-14.496c-7.668-1.397-10.858-5.579-9.587-12.548l1.03-5.644c.712-3.896 2.135-6.414 4.288-7.53 2.146-1.118 5.098-1.338 8.863-.649l79.467 14.569c3.761.687 6.453 1.937 8.064 3.739 1.611 1.804 2.06 4.665 1.35 8.559l-1.03 5.644c-1.271 6.969-5.737 9.754-13.401 8.356zM684.348 366.115h-28.68c-7.789 0-11.685-3.824-11.685-11.467v-6.378c0-7.503 3.828-11.26 11.478-11.26h30.59c16.849 0 33.562-.636 50.132-1.907 3.532-10.621 5.31-20.959 5.31-31.019v-9.132c0-3.11-.425-5.062-1.274-5.844-.85-.771-2.41-1.163-4.671-1.163h-70.529c-3.543 0-6.375-1.033-8.5-3.083-2.117-2.054-3.186-5.059-3.186-9.026v-5.313c0-7.934 3.828-11.893 11.468-11.893h97.938c5.946 0 9.981 1.199 12.103 3.611 2.132 2.404 3.192 6.658 3.192 12.741v21.67c0 11.042-2.057 22.587-6.163 34.629 2.692-.286 6.023-.85 9.984-1.703 3.964-.704 6.725-.392 8.281.955 1.561 1.347 2.343 4.001 2.343 7.969v9.56c0 3.965-.894 6.657-2.655 8.071-1.781 1.414-4.637 2.475-8.604 3.188-14.306 2.55-29.526 4.318-45.671 5.311v21.877c0 3.403-1.03 6.231-3.08 8.496-2.057 2.268-5.069 3.402-9.037 3.402H711.54c-3.96 0-6.973-1.135-9.022-3.402-2.063-2.265-3.08-5.093-3.08-8.496v-20.395h-15.09zm142.33 90.281H697.307c-10.195 0-18.408-2.617-24.644-7.853-6.231-5.243-9.339-13.034-9.339-23.37v-24.005c0-3.403 1.196-6.266 3.61-8.601 2.396-2.343 5.589-3.506 9.55-3.506h9.773c3.961 0 7.153 1.163 9.567 3.506 2.396 2.335 3.61 5.197 3.61 8.601v18.905c0 2.832.452 4.709 1.38 5.631.921.918 2.509 1.38 4.776 1.38h121.297c7.646 0 11.475 3.964 11.475 11.898v5.304c0 3.968-1.061 6.979-3.192 9.029-2.117 2.058-4.956 3.081-8.492 3.081zm8.925-189.274v135.322c0 3.396-1.214 6.262-3.61 8.604-2.414 2.336-5.6 3.498-9.566 3.498h-9.774c-3.961 0-7.153-1.162-9.55-3.498-2.414-2.343-3.61-5.209-3.61-8.604v-8.071h-27.197c-7.786 0-11.685-3.896-11.685-11.685v-4.464c0-7.646 3.828-11.474 11.467-11.474h27.415v-99.629c0-3.395 1.196-6.268 3.61-8.603 2.396-2.336 5.589-3.5 9.55-3.5h9.774c3.967 0 7.152 1.164 9.566 3.5 2.396 2.336 3.61 5.21 3.61 8.604z"/></g><circle cx="959.429" cy="171.823" r="37.063" fill="#FAB900"/><path fill="#EE7D00" d="M906.563 134.117s-20.429 57.201 26.966 106.23c3.566 3.568 7.137 7.135 10.703 10.702 7.707 7.706 14.928 13.764 17.756 24.723 1.754 6.792 1.68 14.7-1.156 21.2-5.337 12.239-19.378 14.517-31.188 11.852-12.229-2.764-20.47-10.029-28.36-19.297-16.343-19.194-27.959-41.283-34.354-65.659 0-.005-14.435-55.023 39.633-89.751z"/><circle cx="689.726" cy="175.924" r="37.062" fill="#93C01E"/><path fill="#00A099" d="M742.588 213.632s20.432-57.201-26.967-106.231c-3.566-3.568-7.133-7.136-10.702-10.702-7.704-7.705-14.928-13.766-17.757-24.723-1.754-6.794-1.679-14.701 1.156-21.198 5.341-12.24 19.382-14.519 31.188-11.852 12.229 2.761 20.47 10.026 28.36 19.292 16.342 19.196 27.959 41.287 34.354 65.661.005.005 14.436 55.025-39.632 89.753z"/><circle cx="823.202" cy="38.847" r="37.062" fill="#E9528D"/><path fill="#B65097" d="M785.498 91.711s57.199 20.429 106.229-26.966c3.566-3.568 7.136-7.135 10.702-10.702 7.707-7.705 13.766-14.928 24.723-17.759 6.796-1.752 14.703-1.679 21.196 1.156 12.242 5.339 14.521 19.38 11.852 31.188-2.761 12.23-10.022 20.471-19.29 28.36-19.194 16.34-41.285 27.96-65.661 34.355-.007.002-55.023 14.434-89.751-39.632z"/></svg>