<svg width="720" height="362" version="1.1" xmlns="http://www.w3.org/2000/svg" desc="Created with imagetracer.js version 1.2.6" ><path fill="rgb(0,0,0)" stroke="rgb(0,0,0)" stroke-width="1" opacity="0" d="M 0 0 L 720 0 L 720 362 L 0 362 L 0 0 Z M 176 34 L 175 35 L 164 35 L 147 38 L 123 46 Q 99 56 82 73 Q 50 101 39 151 Q 40 155 38 154 L 34 159 Q 33 168 39 169 L 47 168 L 50 164 Q 51 157 48 155 L 45 154 Q 47 137 53 125 Q 62 103 77 87 Q 98 63 129 50 L 152 43 L 163 41 L 172 41 L 173 40 L 190 40 L 191 41 L 200 41 L 211 43 Q 232 48 250 58 L 252 61 L 253 67 Q 256 70 264 69 L 268 64 Q 269 56 264 54 Q 257 52 256 55 Q 240 44 220 39 L 199 35 L 176 34 Z M 180 62 L 174 67 Q 173 73 175 76 L 179 78 Q 187 79 190 74 Q 208 76 222 82 Q 237 89 250 100 Q 262 111 271 127 L 280 149 L 283 163 L 283 189 L 279 207 Q 272 226 260 241 Q 240 265 205 275 L 202 275 L 196 271 L 189 273 L 186 277 L 187 284 Q 189 289 198 287 L 202 281 L 224 275 Q 241 268 254 256 Q 268 243 278 225 L 284 211 L 289 189 L 289 164 L 286 148 L 282 136 Q 274 116 260 102 Q 245 85 223 76 L 204 70 L 191 69 L 188 64 Q 186 61 180 62 Z M 274 69 L 271 73 L 292 96 Q 304 111 311 132 Q 312 136 309 135 L 308 138 Q 307 144 309 147 L 313 149 L 319 149 L 322 147 L 324 142 L 322 135 L 319 134 L 307 108 L 291 85 L 276 69 L 274 69 Z M 158 70 Q 128 76 110 93 Q 79 117 71 164 L 71 189 L 75 208 Q 82 230 96 246 Q 110 262 130 272 L 151 280 L 167 283 L 171 288 Q 180 290 182 285 Q 184 275 179 273 Q 169 271 167 277 Q 135 272 115 255 Q 95 239 84 215 L 78 196 L 77 178 L 76 177 L 77 175 L 78 157 L 83 140 Q 91 120 104 107 Q 124 83 160 76 L 159 73 Q 160 69 158 70 Z M 394 100 L 393 101 L 381 102 L 365 109 Q 352 117 348 134 Q 345 154 354 163 Q 360 170 371 174 L 394 181 L 403 186 L 407 193 Q 408 199 405 202 Q 401 207 393 208 Q 371 209 364 196 L 344 219 Q 350 226 361 230 L 370 233 L 382 234 L 383 235 Q 407 235 421 225 L 430 215 L 434 207 L 436 197 Q 437 182 431 174 L 422 164 L 412 159 L 391 153 Q 383 151 378 145 Q 377 137 379 134 Q 383 128 392 127 L 405 128 L 417 135 L 435 114 Q 428 106 417 103 L 409 101 L 394 100 Z M 496 100 Q 494 103 488 101 L 475 105 L 464 112 Q 453 121 450 138 Q 449 154 456 162 Q 463 171 476 175 Q 493 178 506 186 L 508 189 L 510 195 L 507 203 L 496 208 L 482 207 Q 472 204 467 196 L 446 219 Q 454 226 466 231 L 486 235 L 502 234 L 510 232 L 525 224 Q 532 218 536 209 L 539 193 L 538 192 L 538 184 L 533 173 Q 526 163 515 159 L 491 152 L 484 148 L 480 143 L 481 135 L 486 130 L 495 127 L 508 128 L 520 135 L 538 113 L 520 103 L 503 100 L 496 100 Z M 617 100 L 616 101 L 603 102 L 590 106 L 574 116 Q 562 126 556 141 L 552 156 L 552 166 L 551 167 Q 553 171 552 180 L 556 195 L 566 212 Q 576 222 590 229 L 603 233 L 616 234 L 617 235 Q 650 235 668 219 Q 684 205 689 180 L 689 156 L 687 147 Q 683 132 674 123 Q 656 100 617 100 Z M 176 120 L 163 125 L 153 136 L 149 149 L 150 158 L 154 167 L 166 178 L 156 222 L 157 225 L 209 225 L 196 180 Q 194 174 198 175 Q 206 168 209 157 L 209 145 L 203 132 Q 195 120 176 120 Z M 318 166 L 315 167 L 313 171 L 313 177 L 315 180 L 318 182 L 318 190 L 315 207 L 308 228 Q 298 251 281 269 Q 264 286 241 298 L 220 306 L 195 311 L 167 311 L 145 307 Q 117 299 97 284 L 96 276 Q 93 272 86 273 L 81 280 L 82 285 Q 84 290 94 288 Q 108 301 129 308 L 149 314 L 167 316 L 168 317 L 193 317 L 221 312 Q 252 302 275 283 Q 298 263 312 234 L 322 203 L 324 182 L 327 180 L 329 177 L 328 169 Q 325 165 318 166 Z M 37 184 L 38 187 L 38 196 L 40 207 L 46 227 Q 52 244 63 257 L 62 259 L 63 266 Q 65 271 74 269 L 78 264 L 77 257 Q 74 252 67 253 Q 58 240 51 223 L 45 202 L 44 189 L 43 188 L 43 184 L 37 184 Z M 474 256 L 474 282 L 477 282 L 477 257 L 474 256 Z M 412 257 L 410 258 L 406 263 L 407 268 Q 409 272 416 272 Q 419 272 418 277 L 415 279 L 409 276 L 406 280 L 410 282 L 419 281 Q 423 279 422 273 L 410 265 L 411 261 L 420 262 L 421 260 Q 419 256 412 257 Z M 428 257 L 425 261 Q 428 266 430 261 L 428 257 Z M 516 257 L 510 262 L 511 269 L 520 273 L 521 273 L 521 278 L 519 279 Q 514 280 513 277 L 509 279 L 514 282 L 523 281 L 526 276 L 525 272 L 523 269 Q 517 269 514 266 Q 513 262 516 261 L 524 262 L 525 260 Q 523 256 516 257 Z M 596 257 L 593 258 L 586 266 Q 585 274 588 278 L 595 282 Q 603 283 607 280 Q 611 277 612 271 L 609 262 Q 606 256 596 257 Z M 529 258 Q 527 264 533 262 Q 535 256 529 258 Z M 426 265 L 426 282 L 429 282 L 429 266 L 426 265 Z M 435 265 L 433 267 L 433 281 L 437 282 L 437 272 L 438 269 L 443 268 L 445 271 L 445 282 L 448 282 L 448 269 Q 447 264 440 265 L 437 267 Q 438 264 435 265 Z M 458 265 L 456 266 L 452 271 L 453 279 L 458 282 Q 462 283 464 281 Q 466 280 465 285 Q 463 288 457 286 Q 454 282 452 287 L 458 290 L 465 289 L 469 284 L 469 265 L 466 266 L 458 265 Z M 487 265 L 485 266 L 480 273 Q 480 280 486 282 Q 493 283 496 280 L 495 277 L 492 279 L 485 278 L 484 276 L 497 275 L 496 269 Q 494 264 487 265 Z M 529 265 L 529 282 L 533 282 L 533 266 L 529 265 Z M 543 265 L 541 266 L 536 273 L 537 278 Q 539 283 548 282 L 550 281 Q 551 285 548 286 L 542 286 L 538 284 L 537 287 L 543 290 L 550 289 L 554 284 L 554 266 L 550 265 L 550 267 Q 548 264 543 265 Z M 558 265 L 558 282 L 561 282 L 562 281 L 562 271 L 565 268 L 568 269 L 569 270 L 569 282 L 573 282 L 573 270 L 572 268 L 569 265 L 564 266 L 558 265 Z M 615 265 L 615 282 L 618 282 L 619 281 L 619 271 L 622 268 L 625 269 L 626 270 L 626 282 L 630 282 L 630 270 L 629 268 L 626 265 L 621 266 L 615 265 Z " /><path fill="rgb(0,0,0)" stroke="rgb(0,0,0)" stroke-width="1" opacity="0" d="M 259.5 59 Q 264.5 61.5 259.5 64 Q 254.5 61.5 259.5 59 Z " /><path fill="rgb(0,0,0)" stroke="rgb(0,0,0)" stroke-width="1" opacity="0" d="M 181.5 68 L 184 69.5 L 182.5 72 Q 178.8 73.3 180 69.5 L 181.5 68 Z " /><path fill="rgb(0,0,0)" stroke="rgb(0,0,0)" stroke-width="1" opacity="0" d="M 614.5 127 L 626.5 127 L 637.5 130 Q 646.3 134.3 652 141.5 L 659 157.5 L 659 177.5 Q 655.8 192.3 645.5 200 Q 635.4 209.4 614.5 208 Q 597.3 205.2 589 193.5 L 583 181.5 L 581 166.5 L 584 150.5 Q 587.8 140.8 595.5 135 L 603.5 130 L 614.5 127 Z " /><path fill="rgb(0,0,0)" stroke="rgb(0,0,0)" stroke-width="1" opacity="0" d="M 315.5 139 L 318 140.5 L 316.5 143 L 313 141.5 Q 312.3 139.3 314.5 140 L 315.5 139 Z " /><path fill="rgb(0,0,0)" stroke="rgb(0,0,0)" stroke-width="1" opacity="0" d="M 41.5 159 L 44 160.5 L 42.5 163 Q 38.8 164.3 40 160.5 L 41.5 159 Z " /><path fill="rgb(0,0,0)" stroke="rgb(0,0,0)" stroke-width="1" opacity="0" d="M 320.5 171 L 323 172.5 Q 324.2 177.1 319 175 L 320.5 171 Z " /><path fill="rgb(0,0,0)" stroke="rgb(0,0,0)" stroke-width="1" opacity="0" d="M 69.5 259 L 72 260.5 Q 73.2 265.1 68 263 L 69.5 259 Z " /><path fill="rgb(0,0,0)" stroke="rgb(0,0,0)" stroke-width="1" opacity="0" d="M 594.5 261 Q 605 259 607 265.5 Q 608.7 274.2 604.5 277 L 597.5 279 L 591 274.5 L 590 266.5 L 594.5 261 Z " /><path fill="rgb(0,0,0)" stroke="rgb(0,0,0)" stroke-width="1" opacity="0" d="M 459.5 268 L 465 270.5 Q 466.5 276.5 463.5 278 L 459.5 279 L 456 276.5 Q 454.5 270.5 457.5 269 L 459.5 268 Z " /><path fill="rgb(0,0,0)" stroke="rgb(0,0,0)" stroke-width="1" opacity="0" d="M 487.5 268 L 493 269 L 493 272 L 484.5 272 L 485 270.5 Q 484.3 268.3 486.5 269 L 487.5 268 Z " /><path fill="rgb(0,0,0)" stroke="rgb(0,0,0)" stroke-width="1" opacity="0" d="M 544.5 268 L 549 269 Q 550.6 271.1 550 276.5 L 544.5 279 L 541 276.5 L 540 272.5 L 542.5 269 L 544.5 268 Z " /><path fill="rgb(0,0,0)" stroke="rgb(0,0,0)" stroke-width="1" opacity="0" d="M 193.5 277 L 196 278.5 Q 197.2 283.1 192 281 L 193.5 277 Z " /><path fill="rgb(0,0,0)" stroke="rgb(0,0,0)" stroke-width="1" opacity="0" d="M 89.5 278 Q 94.5 280.5 89.5 283 Q 84.5 280.5 89.5 278 Z " /><path fill="rgb(0,0,0)" stroke="rgb(0,0,0)" stroke-width="1" opacity="0" d="M 174.5 278 Q 179.5 280.5 174.5 283 Q 169.5 280.5 174.5 278 Z " /><path fill="rgb(65,97,143)" stroke="rgb(65,97,143)" stroke-width="1" opacity="0.9372549019607843" d="M 175.5 34 L 198.5 35 L 219.5 39 Q 240 44.5 255.5 55 Q 257.3 52.3 263.5 54 Q 268.9 55.6 268 63.5 L 263.5 69 Q 255.5 70.5 253 66.5 L 252 60.5 L 249.5 58 Q 232.4 48.1 210.5 43 L 199.5 41 L 190.5 41 L 189.5 40 L 172.5 40 L 171.5 41 L 162.5 41 L 151.5 43 L 128.5 50 Q 97.5 63 77 86.5 Q 62.2 102.7 53 124.5 Q 47.2 137.2 45 153.5 L 48 155 Q 50.6 157.3 50 163.5 L 46.5 168 L 38.5 169 Q 32.5 167.5 34 158.5 L 37.5 154 Q 40.5 154.9 39 150.5 Q 49.8 101.3 81.5 73 Q 98.9 56.4 122.5 46 L 146.5 38 L 163.5 35 L 174.5 35 L 175.5 34 Z M 260 59 Q 255 62 260 64 Q 265 62 260 59 Z M 42 159 L 40 161 Q 39 164 43 163 L 44 161 L 42 159 Z " /><path fill="rgb(65,97,143)" stroke="rgb(65,97,143)" stroke-width="1" opacity="0.9372549019607843" d="M 179.5 62 Q 185.7 61.4 188 64 L 190.5 69 L 203.5 70 L 222.5 76 Q 244.7 85.3 260 101.5 Q 273.8 115.7 282 135.5 L 286 147.5 L 289 163.5 L 289 188.5 L 284 210.5 L 278 224.5 Q 268.3 242.8 253.5 256 Q 240.7 267.7 223.5 275 L 202 281 L 197.5 287 Q 188.8 288.8 187 283.5 L 186 276.5 L 188.5 273 L 195.5 271 L 201.5 275 L 204.5 275 Q 239.7 265.2 260 240.5 Q 272.1 226.1 279 206.5 L 283 188.5 L 283 162.5 L 280 148.5 L 271 126.5 Q 262.2 111.3 249.5 100 Q 237.5 89 221.5 82 Q 207.6 75.9 189.5 74 Q 187.3 79.3 178.5 78 L 175 76 Q 173.1 73.3 174 66.5 L 179.5 62 Z M 182 68 L 180 70 Q 179 73 183 72 L 184 70 L 182 68 Z M 194 277 L 192 281 Q 197 283 196 279 L 194 277 Z " /><path fill="rgb(65,97,143)" stroke="rgb(65,97,143)" stroke-width="1" opacity="0.9372549019607843" d="M 273.5 69 L 275.5 69 L 291 84.5 L 307 107.5 L 318.5 134 L 322 135 L 324 141.5 L 322 147 L 318.5 149 L 312.5 149 L 309 147 Q 307.1 144.3 308 137.5 L 309 135 Q 312.3 136.3 311 131.5 Q 303.9 111.1 292 95.5 L 271 72.5 L 273.5 69 Z M 316 139 L 315 140 Q 312 139 313 142 L 317 143 L 318 141 L 316 139 Z " /><path fill="rgb(65,97,143)" stroke="rgb(65,97,143)" stroke-width="1" opacity="0.9372549019607843" d="M 157.5 70 Q 160.1 69.2 159 72.5 L 160 76 Q 124.5 83.1 104 106.5 Q 90.8 120.3 83 139.5 L 78 156.5 L 77 174.5 L 76 176.5 L 77 177.5 L 78 195.5 L 84 214.5 Q 94.8 239.2 114.5 255 Q 134.5 272 166.5 277 Q 168.5 271 178.5 273 Q 184 275 182 284.5 Q 180 290 170.5 288 L 167 283 L 150.5 280 L 129.5 272 Q 109.7 261.8 96 245.5 Q 82.1 229.9 75 207.5 L 71 188.5 L 71 163.5 Q 78.8 116.8 109.5 93 Q 128.3 76.3 157.5 70 Z M 175 278 Q 170 281 175 283 Q 180 281 175 278 Z " /><path fill="rgb(65,97,143)" stroke="rgb(65,97,143)" stroke-width="1" opacity="0.9372549019607843" d="M 393.5 100 L 408.5 101 L 416.5 103 Q 427.9 106.1 435 113.5 L 416.5 135 L 404.5 128 L 391.5 127 Q 383.2 128.2 379 133.5 Q 376.5 137 378 144.5 Q 382.5 150.5 390.5 153 L 411.5 159 L 421.5 164 L 431 173.5 Q 436.9 181.6 436 196.5 L 434 206.5 L 430 214.5 L 420.5 225 Q 406.8 235.3 382.5 235 L 381.5 234 L 369.5 233 L 360.5 230 Q 350.4 226.1 344 218.5 L 363.5 196 Q 371.4 208.6 392.5 208 Q 400.8 206.8 405 201.5 Q 407.8 198.8 407 192.5 L 402.5 186 L 393.5 181 L 370.5 174 Q 360.4 170.1 354 162.5 Q 345.2 153.8 348 133.5 Q 352.2 117.1 364.5 109 L 380.5 102 L 392.5 101 L 393.5 100 Z " /><path fill="rgb(65,97,143)" stroke="rgb(65,97,143)" stroke-width="1" opacity="0.9372549019607843" d="M 495.5 100 L 502.5 100 L 519.5 103 L 538 113 L 519.5 135 L 507.5 128 L 494.5 127 L 485.5 130 L 481 134.5 L 480 142.5 L 483.5 148 L 490.5 152 L 514.5 159 Q 526.1 163.4 533 172.5 L 538 183.5 L 538 191.5 L 539 192.5 L 536 208.5 Q 531.9 217.9 524.5 224 L 509.5 232 L 501.5 234 L 485.5 235 L 465.5 231 Q 454 226.5 446 218.5 L 466.5 196 Q 471.8 203.7 481.5 207 L 495.5 208 L 507 202.5 L 510 194.5 L 508 188.5 L 505.5 186 Q 492.9 178.1 475.5 175 Q 463.3 170.7 456 161.5 Q 449 153.5 450 137.5 Q 452.7 120.7 463.5 112 L 474.5 105 L 487.5 101 Q 493.7 102.8 495.5 100 Z " /><path fill="rgb(65,97,143)" stroke="rgb(65,97,143)" stroke-width="1" opacity="0.9372549019607843" d="M 616.5 100 Q 656.1 100.4 674 122.5 Q 682.8 132.2 687 146.5 L 689 155.5 L 689 179.5 Q 684.3 205.3 667.5 219 Q 650 235 616.5 235 L 615.5 234 L 602.5 233 L 589.5 229 Q 575.5 222.5 566 211.5 L 556 194.5 L 552 179.5 Q 553.3 171.3 551 166.5 L 552 165.5 L 552 155.5 L 556 140.5 Q 562.1 125.6 573.5 116 L 589.5 106 L 602.5 102 L 615.5 101 L 616.5 100 Z M 615 127 L 604 130 L 596 135 Q 588 141 584 151 L 581 167 L 583 182 L 589 194 Q 597 205 615 208 Q 635 209 646 200 Q 656 192 659 178 L 659 158 L 652 142 Q 646 134 638 130 L 627 127 L 615 127 Z " /><path fill="rgb(65,97,143)" stroke="rgb(65,97,143)" stroke-width="1" opacity="0.9372549019607843" d="M 175.5 120 Q 195.4 119.6 203 131.5 L 209 144.5 L 209 156.5 Q 206 168.5 197.5 175 Q 194.1 174.1 196 179.5 L 209 225 L 156.5 225 L 156 221.5 L 166 177.5 L 154 166.5 L 150 157.5 L 149 148.5 L 153 135.5 L 162.5 125 L 175.5 120 Z " /><path fill="rgb(65,97,143)" stroke="rgb(65,97,143)" stroke-width="1" opacity="0.9372549019607843" d="M 317.5 166 Q 325.5 164.5 328 168.5 L 329 176.5 L 327 180 L 324 181.5 L 322 202.5 L 312 233.5 Q 298 263 274.5 283 Q 252.4 302.4 220.5 312 L 192.5 317 L 167.5 317 L 166.5 316 L 148.5 314 L 128.5 308 Q 108.4 300.6 93.5 288 Q 84 290 82 284.5 L 81 279.5 L 85.5 273 Q 93.5 271.5 96 275.5 L 97 284 Q 116.8 299 144.5 307 L 166.5 311 L 194.5 311 L 219.5 306 L 240.5 298 Q 263.9 286.4 281 268.5 Q 297.8 251.3 308 227.5 L 315 206.5 L 318 189.5 L 318 181.5 L 315 180 L 313 176.5 L 313 170.5 L 315 167 L 317.5 166 Z M 321 171 L 319 175 Q 324 177 323 173 L 321 171 Z M 90 278 Q 85 281 90 283 Q 95 281 90 278 Z " /><path fill="rgb(65,97,143)" stroke="rgb(65,97,143)" stroke-width="1" opacity="0.9372549019607843" d="M 37 184 L 43 184 L 43 187.5 L 44 188.5 L 45 201.5 L 51 222.5 Q 57.8 239.7 67 253 Q 74.3 252 77 256.5 L 78 263.5 L 73.5 269 Q 64.8 270.8 63 265.5 L 62 258.5 L 63 256.5 Q 52.4 243.6 46 226.5 L 40 206.5 L 38 195.5 L 38 186.5 L 37 184 Z M 70 259 L 68 263 Q 73 265 72 261 L 70 259 Z " /><path fill="rgb(65,97,143)" stroke="rgb(65,97,143)" stroke-width="1" opacity="0.9372549019607843" d="M 474 256 L 477 256.5 L 477 282 L 474 281.5 L 474 256 Z " /><path fill="rgb(65,97,143)" stroke="rgb(65,97,143)" stroke-width="1" opacity="0.9372549019607843" d="M 411.5 257 Q 418.8 255.8 421 259.5 L 419.5 262 L 411 261 L 410 264.5 L 422 272.5 Q 422.9 279.4 418.5 281 L 409.5 282 L 406 279.5 L 408.5 276 L 414.5 279 L 418 276.5 Q 418.5 272.5 415.5 272 Q 409.1 271.9 407 267.5 L 406 262.5 L 409.5 258 L 411.5 257 Z " /><path fill="rgb(65,97,143)" stroke="rgb(65,97,143)" stroke-width="1" opacity="0.9372549019607843" d="M 427.5 257 L 430 260.5 Q 427.5 265.5 425 260.5 L 427.5 257 Z " /><path fill="rgb(65,97,143)" stroke="rgb(65,97,143)" stroke-width="1" opacity="0.9372549019607843" d="M 515.5 257 Q 522.8 255.8 525 259.5 L 523.5 262 L 515.5 261 Q 513.3 261.8 514 265.5 Q 516.8 268.8 522.5 269 L 525 271.5 L 526 275.5 L 522.5 281 L 513.5 282 L 509 278.5 L 512.5 277 Q 513.9 279.6 518.5 279 L 521 278 L 521 273 L 519.5 273 L 511 268.5 L 510 261.5 L 515.5 257 Z " /><path fill="rgb(65,97,143)" stroke="rgb(65,97,143)" stroke-width="1" opacity="0.9372549019607843" d="M 595.5 257 Q 605.6 255.9 609 261.5 L 612 270.5 Q 611.1 277.1 606.5 280 Q 602.8 283.3 594.5 282 L 588 277.5 Q 584.7 273.8 586 265.5 L 592.5 258 L 595.5 257 Z M 595 261 L 590 267 L 591 275 L 598 279 L 605 277 Q 609 274 607 266 Q 605 259 595 261 Z " /><path fill="rgb(65,97,143)" stroke="rgb(65,97,143)" stroke-width="1" opacity="0.9372549019607843" d="M 529 258 Q 535 256 533 262 Q 527 264 529 258 Z " /><path fill="rgb(65,97,143)" stroke="rgb(65,97,143)" stroke-width="1" opacity="0.9372549019607843" d="M 426 265 L 429 265.5 L 429 282 L 426 281.5 L 426 265 Z " /><path fill="rgb(65,97,143)" stroke="rgb(65,97,143)" stroke-width="1" opacity="0.9372549019607843" d="M 434.5 265 Q 437.8 263.9 437 266.5 L 439.5 265 Q 446.8 263.8 448 268.5 L 448 281.5 L 445 282 L 445 270.5 L 442.5 268 L 438 269 L 437 271.5 L 437 282 L 433 280.5 L 433 266.5 L 434.5 265 Z " /><path fill="rgb(65,97,143)" stroke="rgb(65,97,143)" stroke-width="1" opacity="0.9372549019607843" d="M 457.5 265 L 465.5 266 L 469 265 L 469 283.5 L 464.5 289 L 457.5 290 L 452 286.5 Q 454.2 281.8 456.5 286 Q 463.3 287.8 465 284.5 Q 466.5 280.1 463.5 281 Q 462.3 283.3 457.5 282 L 453 278.5 L 452 270.5 L 455.5 266 L 457.5 265 Z M 460 268 L 458 269 Q 454 271 456 277 L 460 279 L 464 278 Q 466 277 465 271 L 460 268 Z " /><path fill="rgb(65,97,143)" stroke="rgb(65,97,143)" stroke-width="1" opacity="0.9372549019607843" d="M 486.5 265 Q 494.1 263.9 496 268.5 L 497 275 L 484 275.5 L 485 278 L 491.5 279 L 494.5 277 L 496 279.5 Q 493.5 283.5 485.5 282 Q 480.3 279.8 480 272.5 L 484.5 266 L 486.5 265 Z M 488 268 L 487 269 Q 484 268 485 271 L 485 272 L 493 272 L 493 269 L 488 268 Z " /><path fill="rgb(65,97,143)" stroke="rgb(65,97,143)" stroke-width="1" opacity="0.9372549019607843" d="M 529 265 L 533 265.5 L 533 282 L 529 281.5 L 529 265 Z " /><path fill="rgb(65,97,143)" stroke="rgb(65,97,143)" stroke-width="1" opacity="0.9372549019607843" d="M 542.5 265 Q 548.3 263.8 549.5 267 L 550 265 L 554 265.5 L 554 283.5 L 549.5 289 L 542.5 290 L 537 286.5 L 538 284 L 541.5 286 L 547.5 286 Q 550.8 285.3 550 280.5 L 547.5 282 Q 538.9 283.1 537 277.5 L 536 272.5 L 540.5 266 L 542.5 265 Z M 545 268 L 543 269 L 540 273 L 541 277 L 545 279 L 550 277 Q 551 271 549 269 L 545 268 Z " /><path fill="rgb(65,97,143)" stroke="rgb(65,97,143)" stroke-width="1" opacity="0.9372549019607843" d="M 558 265 L 563.5 266 L 568.5 265 L 572 267.5 L 573 269.5 L 573 282 L 569 282 L 569 269.5 L 567.5 269 L 564.5 268 L 562 270.5 L 562 280.5 L 560.5 282 L 558 281.5 L 558 265 Z " /><path fill="rgb(65,97,143)" stroke="rgb(65,97,143)" stroke-width="1" opacity="0.9372549019607843" d="M 615 265 L 620.5 266 L 625.5 265 L 629 267.5 L 630 269.5 L 630 282 L 626 282 L 626 269.5 L 624.5 269 L 621.5 268 L 619 270.5 L 619 280.5 L 617.5 282 L 615 281.5 L 615 265 Z " /></svg>