<?xml version="1.0" standalone="no"?>
<!DOCTYPE svg PUBLIC "-//W3C//DTD SVG 20010904//EN"
 "http://www.w3.org/TR/2001/REC-SVG-20010904/DTD/svg10.dtd">
<svg version="1.0" xmlns="http://www.w3.org/2000/svg"
 width="773.000000pt" height="650.000000pt" viewBox="0 0 773.000000 650.000000"
 preserveAspectRatio="xMidYMid meet">

<g transform="translate(0.000000,650.000000) scale(0.100000,-0.100000)"
fill="#000000" stroke="none">
<path d="M3605 5864 c-178 -103 -436 -253 -1009 -585 l-178 -104 1 -313 c2
-298 3 -316 24 -370 l22 -57 5 250 c5 256 7 264 48 327 30 46 38 52 397 258
165 95 386 222 490 282 105 61 249 144 321 185 l132 76 -21 76 c-11 42 -23 79
-26 83 -4 4 -96 -45 -206 -108z"/>
<path d="M6807 5833 c-64 -37 -117 -69 -117 -72 1 -3 54 -37 120 -74 l119 -68
121 70 121 69 -120 71 c-66 39 -121 71 -123 71 -2 0 -56 -30 -121 -67z"/>
<path d="M6239 5736 c-28 -19 -36 -31 -35 -53 2 -37 11 -50 47 -69 28 -14 32
-14 64 6 30 19 35 27 35 60 0 33 -5 41 -34 59 -18 12 -35 21 -37 21 -3 0 -21
-11 -40 -24z"/>
<path d="M6542 5509 l3 -213 80 -48 79 -47 43 25 43 25 52 -28 c29 -15 56 -29
61 -31 4 -2 7 66 7 151 0 134 -2 156 -17 169 -14 11 -190 116 -346 205 -4 2
-6 -91 -5 -208z"/>
<path d="M2762 5468 c-17 -17 -15 -43 4 -58 22 -19 49 9 40 44 -7 28 -25 33
-44 14z"/>
<path d="M4396 5439 c-30 -24 -70 -91 -80 -133 -15 -65 38 -116 87 -83 30 20
77 68 77 79 0 5 -30 -7 -67 -27 -67 -35 -87 -39 -63 -10 7 9 10 27 7 44 -5 25
6 50 48 109 1 1 16 -3 33 -9 28 -10 31 -14 25 -41 -4 -20 -1 -33 8 -38 19 -13
27 -4 34 40 13 79 -47 117 -109 69z"/>
<path d="M2694 5406 c-4 -10 -2 -22 4 -28 8 -8 13 -7 18 6 4 10 2 22 -4 28 -8
8 -13 7 -18 -6z"/>
<path d="M6182 5328 c-40 -22 -72 -43 -72 -46 0 -4 33 -25 73 -46 l74 -39 72
43 72 43 -28 16 c-15 9 -48 29 -73 43 l-46 26 -72 -40z"/>
<path d="M4432 5340 c0 -14 2 -19 5 -12 2 6 2 18 0 25 -3 6 -5 1 -5 -13z"/>
<path d="M4411 5334 c0 -11 3 -14 6 -6 3 7 2 16 -1 19 -3 4 -6 -2 -5 -13z"/>
<path d="M4382 5310 c0 -14 2 -19 5 -12 2 6 2 18 0 25 -3 6 -5 1 -5 -13z"/>
<path d="M2130 5161 c-91 -53 -202 -119 -247 -145 -46 -26 -83 -51 -83 -55 0
-4 6 -16 14 -26 13 -18 17 -17 92 26 250 143 420 242 427 249 10 9 -13 50 -28
49 -5 0 -84 -44 -175 -98z"/>
<path d="M7164 5205 c-35 -35 -26 -49 29 -53 41 -3 48 -6 53 -29 6 -21 8 -23
16 -9 15 26 31 19 24 -11 l-6 -28 15 25 c8 14 14 39 15 57 0 67 -96 98 -146
48z"/>
<path d="M6713 5172 c-35 -21 -63 -39 -63 -42 0 -3 32 -24 72 -47 l71 -41 51
31 c112 66 108 54 30 98 -38 21 -76 38 -84 38 -8 -1 -43 -17 -77 -37z"/>
<path d="M4373 4979 c-46 -29 -41 -36 5 -8 46 28 47 29 36 29 -5 0 -24 -10
-41 -21z"/>
<path d="M1998 4909 c-102 -59 -138 -86 -138 -100 0 -10 5 -19 10 -19 6 0 73
37 150 81 100 59 140 87 140 100 0 11 -6 19 -12 19 -7 -1 -75 -37 -150 -81z"/>
<path d="M7202 4978 c0 -7 -4 -59 -8 -115 -4 -57 -10 -103 -13 -103 -3 0 -24
11 -46 25 -43 26 -71 31 -95 15 -11 -7 -6 -8 16 -4 24 5 43 -1 77 -21 69 -40
82 -28 91 82 4 48 8 97 9 108 1 11 -5 21 -14 23 -9 1 -16 -3 -17 -10z"/>
<path d="M4180 4869 c-74 -44 -137 -84 -138 -89 -2 -6 32 12 75 38 43 26 99
59 126 72 26 14 57 33 70 42 48 37 -4 13 -133 -63z"/>
<path d="M2013 4838 c-120 -69 -143 -86 -143 -106 0 -13 3 -21 8 -19 215 117
282 161 282 183 0 13 -1 24 -2 24 -2 0 -67 -37 -145 -82z"/>
<path d="M5175 4900 c-8 -13 20 -24 40 -16 8 3 15 10 15 16 0 13 -47 13 -55 0z"/>
<path d="M2010 4759 c-114 -66 -136 -83 -138 -105 l-4 -27 44 25 c224 127 248
142 248 165 0 13 -3 23 -7 22 -5 0 -69 -36 -143 -80z"/>
<path d="M6975 4780 c-13 -6 -15 -9 -5 -9 8 0 22 4 30 9 18 12 2 12 -25 0z"/>
<path d="M4002 4757 c-18 -19 -22 -35 -22 -85 l0 -62 -31 0 c-111 0 -240 -165
-240 -306 l0 -52 -272 -157 c-150 -87 -338 -196 -419 -243 l-148 -85 0 -39 c0
-21 2 -38 5 -38 2 0 62 33 132 74 274 157 404 233 566 328 93 54 173 98 178
98 5 0 26 -9 46 -20 21 -11 46 -20 56 -20 14 0 17 -7 14 -37 -5 -45 0 -63 19
-63 10 0 14 15 14 54 0 52 2 55 36 77 42 25 117 123 134 173 8 26 24 41 80 71
50 27 69 43 66 54 -3 9 -10 37 -17 64 -13 54 -22 58 -39 18 -6 -16 -24 -41
-40 -56 l-28 -27 -7 32 c-5 22 -21 41 -52 63 l-45 32 4 62 c3 42 10 68 23 82
26 29 13 36 -13 8z m2 -239 c11 -42 6 -85 -11 -100 -10 -8 -56 -36 -103 -63
-47 -26 -89 -50 -94 -53 -20 -11 5 73 36 125 57 94 157 147 172 91z m-85 -244
c-30 -32 -75 -56 -97 -52 -10 2 5 16 43 40 72 44 87 47 54 12z"/>
<path d="M6921 4761 c-7 -5 -9 -11 -5 -14 5 -3 15 1 22 9 14 16 5 18 -17 5z"/>
<path d="M2010 4680 c-114 -66 -136 -83 -138 -105 -4 -31 -16 -36 166 68 102
58 122 74 122 93 0 13 -3 24 -7 23 -5 0 -69 -36 -143 -79z"/>
<path d="M6940 4736 c0 -3 14 -12 30 -21 17 -9 30 -13 30 -11 0 3 -13 12 -30
21 -16 9 -30 13 -30 11z"/>
<path d="M7080 4700 c-18 -12 -2 -12 25 0 13 6 15 9 5 9 -8 0 -22 -4 -30 -9z"/>
<path d="M7307 4699 c-23 -13 -104 -16 -141 -5 l-29 9 6 -150 c4 -82 10 -201
13 -264 l7 -114 -47 -23 c-34 -16 -46 -28 -44 -40 5 -26 43 -26 102 2 53 25
53 26 59 78 4 29 7 91 8 138 1 65 3 78 9 55 9 -32 27 -180 37 -302 5 -67 7
-73 28 -73 13 0 26 8 30 18 13 33 17 231 7 328 -6 55 -8 128 -4 164 8 68 -1
167 -15 181 -4 4 -16 3 -26 -2z"/>
<path d="M7018 4688 c6 -6 18 -8 28 -6 14 3 12 5 -9 10 -19 3 -25 2 -19 -4z"/>
<path d="M2820 4624 c-63 -37 -134 -78 -157 -91 -44 -25 -62 -43 -44 -43 5 0
13 5 16 10 14 23 31 6 43 -43 18 -80 15 -105 -15 -134 l-28 -27 36 22 c44 27
49 27 49 5 0 -22 -95 -79 -105 -63 -4 6 -1 18 6 26 10 12 9 13 -5 8 -19 -7
-21 -43 -3 -50 12 -4 139 63 270 143 60 37 71 49 37 38 -14 -4 -20 -2 -20 9 0
19 34 38 54 30 12 -5 16 0 16 20 0 31 0 31 -51 5 -37 -18 -40 -19 -37 -3 1 9
15 26 30 37 22 16 30 18 42 8 13 -11 15 -2 13 71 -2 65 -5 83 -17 86 -8 1 -67
-27 -130 -64z m-20 -49 c0 -9 -11 -20 -24 -26 -14 -7 -22 -17 -20 -23 3 -7 -8
-18 -23 -25 -36 -16 -36 -16 -40 11 -2 18 7 29 45 50 55 32 62 33 62 13z m70
-100 c0 -8 -18 -24 -40 -35 -37 -19 -40 -19 -40 -3 0 18 44 52 68 53 6 0 12
-7 12 -15z m-90 -50 c0 -8 -18 -24 -40 -35 -34 -17 -40 -18 -40 -5 0 8 15 24
33 35 38 24 47 25 47 5z"/>
<path d="M2010 4599 c-113 -66 -136 -83 -138 -105 l-4 -26 64 36 c35 20 100
58 146 83 66 38 82 51 82 70 0 13 -3 23 -7 22 -5 0 -69 -36 -143 -80z"/>
<path d="M2010 4520 c-116 -67 -135 -82 -138 -105 l-4 -28 54 32 c29 17 95 54
146 83 75 42 92 56 92 75 0 13 -3 23 -7 22 -5 0 -69 -36 -143 -79z"/>
<path d="M2105 4495 c-22 -13 -76 -44 -120 -69 -107 -60 -118 -68 -113 -93 3
-19 13 -15 121 47 160 93 167 98 167 120 0 25 -6 25 -55 -5z"/>
<path d="M6280 4403 c-25 -15 -109 -64 -187 -110 -79 -46 -143 -90 -143 -97 0
-21 225 -146 262 -146 20 0 72 24 147 68 64 38 146 86 183 106 68 38 86 58 65
74 -44 34 -218 125 -247 128 -25 3 -47 -3 -80 -23z m247 -78 c4 -12 -52 -45
-76 -45 -33 0 -31 14 6 36 39 23 64 26 70 9z m-327 -24 c0 -5 -7 -12 -16 -15
-9 -3 -14 -12 -11 -19 2 -6 -9 -20 -25 -29 -31 -20 -53 -23 -43 -8 3 6 -3 10
-14 10 -33 0 -25 16 22 44 42 25 87 34 87 17z m396 -12 c13 -21 -59 -50 -78
-31 -7 7 -1 15 18 26 35 18 51 20 60 5z m-179 -25 c4 -11 -58 -44 -82 -44 -27
0 -16 19 23 39 38 21 53 22 59 5z m-369 -40 c28 -8 29 -30 1 -44 -44 -24 -94
14 -51 39 20 12 21 12 50 5z m266 -13 c9 -15 -64 -52 -87 -45 -18 6 -16 9 19
30 42 26 59 29 68 15z m-100 -60 c7 -11 -54 -51 -77 -51 -32 0 -27 20 10 39
42 22 59 25 67 12z m106 -23 c0 -15 -90 -68 -113 -68 -35 0 -24 20 26 48 56
33 87 40 87 20z"/>
<path d="M2083 4325 c-40 -23 -76 -45 -80 -46 -24 -11 -124 -72 -128 -79 -7
-12 24 -80 37 -80 9 0 206 110 267 149 11 7 11 15 1 47 -7 22 -15 42 -19 46
-3 4 -38 -13 -78 -37z"/>
<path d="M2374 4157 c-49 -29 -143 -84 -209 -122 -66 -38 -122 -70 -124 -71
-4 -3 168 -646 174 -653 3 -2 44 19 92 46 l88 50 5 149 c5 145 6 150 34 186
l28 38 6 215 c3 118 3 215 0 215 -3 0 -45 -24 -94 -53z"/>
<path d="M1043 4145 c0 -8 4 -12 9 -9 5 3 6 10 3 15 -9 13 -12 11 -12 -6z"/>
<path d="M4165 4137 c-47 -27 -55 -49 -22 -64 20 -10 32 -7 76 18 55 32 61 43
32 59 -28 14 -41 13 -86 -13z"/>
<path d="M1043 4065 c0 -22 2 -30 4 -17 2 12 2 30 0 40 -3 9 -5 -1 -4 -23z"/>
<path d="M4267 4073 c-26 -15 -46 -31 -44 -37 2 -6 25 -23 52 -38 l50 -27 47
26 c27 14 48 32 48 39 0 13 -78 64 -96 64 -5 0 -30 -12 -57 -27z"/>
<path d="M4003 4044 c-49 -29 -54 -46 -18 -62 34 -16 29 -18 73 27 28 28 36
43 29 50 -17 17 -38 13 -84 -15z"/>
<path d="M1000 4040 c0 -5 4 -10 9 -10 6 0 13 5 16 10 3 6 -1 10 -9 10 -9 0
-16 -4 -16 -10z"/>
<path d="M3861 4024 c0 -11 3 -14 6 -6 3 7 2 16 -1 19 -3 4 -6 -2 -5 -13z"/>
<path d="M3889 4038 c-9 -17 -5 -60 8 -90 14 -32 18 -35 34 -25 23 14 25 33 4
41 -9 3 -15 19 -15 41 0 24 -4 35 -15 35 -8 0 -16 -1 -16 -2z"/>
<path d="M981 4013 c-1 -7 -8 -10 -18 -6 -10 3 -15 3 -11 -1 5 -7 27 -13 52
-15 4 -1 5 -8 2 -17 -5 -14 -4 -15 9 -4 15 12 22 0 8 -14 -4 -3 -8 -17 -10
-29 -2 -17 -1 -19 6 -7 5 8 7 19 3 25 -3 5 2 4 11 -4 18 -14 23 -51 8 -51 -5
0 -7 10 -5 23 4 20 3 19 -6 -3 -6 -14 -9 -40 -5 -57 4 -20 2 -33 -5 -33 -5 0
-10 -9 -10 -21 0 -13 4 -18 12 -13 7 4 8 3 4 -5 -4 -6 -11 -9 -16 -6 -4 3 -16
-18 -27 -47 -11 -32 -37 -72 -69 -105 -27 -29 -49 -56 -47 -58 2 -3 0 -3 -3
-1 -3 3 -24 -5 -45 -16 -38 -20 -50 -20 -127 -4 -7 1 -11 5 -10 8 2 3 -5 15
-15 26 -11 12 -16 26 -12 31 3 6 1 11 -5 11 -8 0 -10 9 -6 24 5 20 3 23 -18
19 -20 -4 -24 -12 -29 -61 -6 -74 0 -173 12 -185 5 -5 15 -6 23 -1 13 9 18 10
39 13 5 0 7 6 3 13 -4 7 -3 8 5 4 6 -4 24 2 40 13 16 12 61 38 100 58 39 20
68 40 64 46 -3 6 -1 7 4 4 14 -9 139 68 135 83 -1 6 2 9 7 5 6 -3 17 8 26 26
23 43 18 269 -5 270 -10 0 -11 2 -2 6 6 2 12 12 12 21 0 15 -2 15 -10 2 -6
-10 -10 -11 -10 -2 0 6 -7 12 -16 12 -8 0 -12 5 -9 10 4 6 11 7 17 4 7 -4 8
-2 4 4 -5 9 -13 9 -26 2 -13 -7 -20 -6 -23 3 -4 9 -6 9 -6 0z"/>
<path d="M4206 4008 c11 -17 12 -60 2 -87 l-8 -23 42 25 c23 13 44 29 46 35 2
6 -15 22 -37 36 -45 29 -56 32 -45 14z"/>
<path d="M4308 3947 c-70 -39 -128 -77 -128 -84 0 -6 10 -13 23 -15 13 -2 28
-16 38 -35 l16 -32 144 83 c79 46 145 90 147 97 3 15 -72 59 -98 59 -8 0 -72
-33 -142 -73z"/>
<path d="M928 3963 c7 -3 16 -2 19 1 4 3 -2 6 -13 5 -11 0 -14 -3 -6 -6z"/>
<path d="M830 3950 c-9 -6 -10 -10 -3 -10 6 0 15 5 18 10 8 12 4 12 -15 0z"/>
<path d="M3810 3926 c-14 -14 -31 -26 -39 -26 -19 0 -131 -63 -131 -74 0 -13
32 -35 52 -36 9 0 22 8 27 18 10 16 10 16 11 -2 0 -12 5 -16 15 -12 11 4 15
-1 15 -17 0 -32 18 -47 56 -47 18 0 34 -5 36 -11 2 -7 13 -9 26 -5 17 6 21 13
17 27 -6 17 -3 19 19 13 45 -11 51 7 10 30 -26 14 -40 30 -42 46 -2 14 -10 32
-17 40 -7 8 -17 30 -22 49 l-9 33 -24 -26z"/>
<path d="M4465 3887 c-60 -35 -110 -68 -112 -74 -4 -12 75 -63 97 -63 22 0
230 123 230 137 0 12 -78 63 -96 63 -5 0 -59 -28 -119 -63z"/>
<path d="M3998 3918 c-21 -12 -38 -25 -38 -30 0 -7 69 -55 93 -64 7 -2 19 0
27 6 13 8 11 12 -8 30 -13 12 -22 33 -22 50 0 36 -4 36 -52 8z"/>
<path d="M735 3922 c2 -3 0 -13 -6 -23 -14 -27 -4 -24 14 4 13 20 13 24 1 24
-8 0 -12 -2 -9 -5z"/>
<path d="M776 3912 c-3 -5 1 -9 9 -9 8 0 12 4 9 9 -3 4 -7 8 -9 8 -2 0 -6 -4
-9 -8z"/>
<path d="M974 3898 c6 -21 -19 -31 -34 -12 -7 8 -17 14 -22 14 -5 0 2 -14 17
-32 14 -17 22 -34 17 -37 -5 -3 -8 -25 -7 -49 1 -25 -1 -38 -6 -31 -5 9 -10 3
-14 -17 -4 -16 -9 -36 -12 -44 -4 -8 -5 -20 -5 -26 3 -14 -29 -14 -47 0 -12 9
-13 7 -8 -8 6 -16 5 -17 -7 -7 -9 8 -16 8 -20 2 -4 -5 -1 -13 4 -16 11 -7 -15
-34 -32 -35 -11 0 -39 71 -42 106 -1 16 -6 36 -10 42 -8 13 -26 7 -26 -9 0 -6
5 -7 11 -3 8 5 8 1 0 -14 -11 -21 -38 -24 -50 -4 -4 6 -7 -15 -6 -48 0 -47 4
-63 20 -75 11 -9 13 -13 5 -9 -13 7 -13 5 -1 -9 7 -9 17 -14 22 -11 5 3 9 0 9
-5 0 -11 47 -12 65 -2 6 3 12 6 15 6 18 2 68 38 85 61 11 15 25 33 31 39 22
22 63 113 70 153 4 28 1 48 -11 68 -9 16 -14 21 -11 12z m-231 -203 c-3 -9 -8
-14 -10 -11 -3 3 -2 9 2 15 9 16 15 13 8 -4z m18 -84 c-7 -5 -11 -13 -8 -18 3
-5 -3 -9 -13 -9 -11 0 -16 5 -12 15 3 9 1 12 -6 7 -6 -3 -13 -2 -17 3 -3 6 5
8 19 5 14 -2 28 1 31 7 4 5 10 8 13 4 4 -3 0 -10 -7 -14z m109 -5 c0 -2 -7 -7
-16 -10 -8 -3 -12 -2 -9 4 6 10 25 14 25 6z m-40 -22 c0 -8 -19 -13 -24 -6 -3
5 1 9 9 9 8 0 15 -2 15 -3z"/>
<path d="M858 3893 c7 -3 16 -2 19 1 4 3 -2 6 -13 5 -11 0 -14 -3 -6 -6z"/>
<path d="M775 3880 c-3 -5 -5 -10 -3 -11 48 -11 61 -7 29 11 -13 7 -22 7 -26
0z"/>
<path d="M825 3880 c3 -5 8 -10 11 -10 2 0 4 5 4 10 0 6 -5 10 -11 10 -5 0 -7
-4 -4 -10z"/>
<path d="M3940 3866 c0 -2 7 -7 16 -10 8 -3 12 -2 9 4 -6 10 -25 14 -25 6z"/>
<path d="M4560 3791 c-74 -44 -136 -85 -138 -92 -3 -15 72 -59 98 -59 21 1
282 152 287 167 5 14 -69 63 -94 63 -10 0 -79 -36 -153 -79z"/>
<path d="M840 3850 c0 -5 5 -10 11 -10 5 0 7 5 4 10 -3 6 -8 10 -11 10 -2 0
-4 -4 -4 -10z"/>
<path d="M720 3820 c-11 -7 -11 -10 -2 -10 7 0 10 -5 6 -11 -4 -7 -2 -10 5 -8
7 3 12 9 11 14 -1 5 7 12 17 16 17 7 16 8 -2 8 -11 0 -27 -4 -35 -9z"/>
<path d="M800 3821 c0 -7 -5 -9 -12 -5 -7 5 -8 3 -3 -5 5 -9 10 -10 18 -2 6 6
8 14 4 18 -4 3 -7 1 -7 -6z"/>
<path d="M830 3815 c-11 -13 -10 -14 4 -9 9 3 16 10 16 15 0 13 -6 11 -20 -6z"/>
<path d="M910 3810 c-13 -8 -12 -10 3 -10 9 0 17 5 17 10 0 12 -1 12 -20 0z"/>
<path d="M766 3787 c3 -10 9 -15 12 -12 3 3 0 11 -7 18 -10 9 -11 8 -5 -6z"/>
<path d="M4278 3779 c-52 -27 -51 -56 2 -87 l41 -23 49 27 c28 15 50 33 50 40
0 12 -80 64 -97 64 -4 -1 -25 -10 -45 -21z"/>
<path d="M4788 3773 c-27 -14 -48 -31 -48 -37 0 -6 23 -24 50 -39 l50 -28 50
27 c28 15 50 33 50 40 0 11 -83 64 -99 64 -3 0 -27 -12 -53 -27z"/>
<path d="M860 3778 c0 -4 -7 -8 -15 -8 -8 0 -12 -6 -9 -14 4 -10 0 -13 -13
-10 -23 6 -56 -26 -35 -34 9 -3 10 -8 2 -17 -6 -7 -8 -20 -4 -28 5 -13 9 -14
24 -5 10 7 17 15 14 19 -2 4 4 6 13 5 10 0 19 9 23 24 6 23 7 24 17 6 9 -16
12 -13 26 23 21 52 21 57 0 40 -10 -8 -14 -9 -10 -2 5 8 0 11 -13 10 -11 -1
-20 -5 -20 -9z"/>
<path d="M3546 3781 c-3 -5 3 -19 13 -32 16 -21 22 -22 45 -11 29 13 34 37 10
46 -23 9 -62 7 -68 -3z"/>
<path d="M681 3752 c0 -4 4 -16 8 -26 7 -19 8 -19 13 1 4 14 0 24 -8 27 -8 3
-14 2 -13 -2z"/>
<path d="M7013 3745 c0 -8 4 -12 9 -9 5 3 6 10 3 15 -9 13 -12 11 -12 -6z"/>
<path d="M3700 3735 c0 -8 14 -21 30 -30 36 -19 41 -2 8 26 -28 22 -38 24 -38
4z"/>
<path d="M3932 3730 c-27 -17 -31 -23 -22 -39 17 -33 76 -64 98 -52 16 9 18
17 12 49 -12 69 -30 77 -88 42z"/>
<path d="M3480 3730 c0 -5 5 -10 11 -10 5 0 7 5 4 10 -3 6 -8 10 -11 10 -2 0
-4 -4 -4 -10z"/>
<path d="M6720 3725 c0 -8 9 -15 19 -15 26 0 35 16 15 24 -25 10 -34 7 -34 -9z"/>
<path d="M3631 3706 c-13 -7 -20 -15 -15 -18 14 -8 124 -20 124 -14 0 8 -62
46 -75 46 -5 -1 -21 -7 -34 -14z"/>
<path d="M4652 3694 c-24 -14 -41 -31 -39 -37 2 -7 24 -23 50 -37 l47 -25 47
25 c26 14 48 30 50 36 4 12 -77 64 -99 64 -7 0 -32 -12 -56 -26z"/>
<path d="M3362 3674 c-47 -28 -50 -44 -9 -58 20 -7 36 -4 71 15 48 25 54 37
34 57 -19 19 -49 14 -96 -14z"/>
<path d="M4236 3684 c-7 -19 -8 -64 -1 -64 11 0 55 32 55 40 0 4 -11 15 -24
23 -22 15 -25 15 -30 1z"/>
<path d="M4337 3662 c-59 -32 -58 -49 5 -82 l46 -24 48 29 c26 17 48 35 48 40
1 6 -22 22 -49 37 l-50 27 -48 -27z"/>
<path d="M7350 3670 c0 -27 46 -38 68 -16 15 15 15 18 2 26 -8 5 -27 10 -42
10 -21 0 -28 -5 -28 -20z"/>
<path d="M3930 3627 c0 -27 13 -36 26 -16 3 6 -1 18 -10 27 -15 15 -16 14 -16
-11z"/>
<path d="M4528 3623 c-27 -14 -48 -31 -48 -37 0 -6 23 -24 50 -39 l50 -28 50
27 c28 15 50 32 50 39 0 10 -88 66 -101 65 -2 0 -25 -12 -51 -27z"/>
<path d="M3475 3615 c-22 -14 -40 -30 -40 -36 0 -5 21 -22 47 -37 l48 -27 47
25 c62 32 66 54 16 70 -21 7 -42 16 -47 21 -15 14 -27 11 -71 -16z"/>
<path d="M3987 3612 c-34 -21 -31 -37 11 -63 l32 -21 0 51 c0 56 -2 57 -43 33z"/>
<path d="M3205 3584 c-47 -27 -51 -45 -12 -58 23 -8 37 -6 73 13 45 24 53 38
32 59 -18 18 -48 13 -93 -14z"/>
<path d="M4235 3598 c-2 -7 -6 -32 -8 -55 -6 -63 10 -71 73 -37 27 15 50 32
50 38 0 12 -81 66 -99 66 -6 0 -13 -6 -16 -12z"/>
<path d="M3648 3566 c-26 -19 -22 -33 12 -51 29 -15 30 -15 26 7 -3 13 -5 31
-5 41 -1 20 -10 21 -33 3z"/>
<path d="M3348 3542 c-27 -15 -48 -32 -48 -37 0 -6 21 -23 47 -39 l48 -29 52
28 c29 15 53 33 53 39 0 9 -89 67 -101 66 -2 0 -25 -13 -51 -28z"/>
<path d="M4393 3544 c-24 -14 -43 -31 -43 -37 0 -19 86 -60 112 -53 31 8 88
44 88 55 0 11 -83 61 -102 61 -7 0 -32 -12 -55 -26z"/>
<path d="M3950 3547 c0 -7 3 -29 6 -49 l7 -38 28 17 c38 23 37 37 -6 62 -23
13 -35 16 -35 8z"/>
<path d="M3543 3504 c-24 -14 -43 -31 -43 -38 0 -7 22 -25 49 -39 l49 -27 46
26 c25 14 46 32 46 40 0 15 -71 64 -92 64 -7 0 -32 -12 -55 -26z"/>
<path d="M3053 3494 c-49 -29 -54 -46 -18 -62 20 -9 31 -7 69 14 58 32 62 39
34 58 -30 21 -36 20 -85 -10z"/>
<path d="M4281 3479 c-19 -11 -39 -18 -47 -15 -7 3 -27 -2 -45 -11 -38 -19
-123 -12 -150 13 -18 16 -19 16 -19 0 0 -12 -7 -16 -22 -14 -19 2 -24 -2 -26
-26 -6 -48 7 -98 24 -92 24 9 15 -9 -16 -32 -29 -22 -61 -29 -59 -14 1 4 1 21
0 37 l-2 30 -14 -26 c-20 -37 -64 -52 -132 -47 -71 6 -96 31 -87 88 5 29 3 38
-11 44 -20 7 -115 -43 -115 -61 0 -12 66 -53 105 -64 18 -5 16 -7 -12 -22 -41
-22 -41 -32 -3 -52 17 -9 30 -20 30 -26 0 -6 -20 1 -45 15 l-44 26 -51 -27
c-27 -16 -49 -34 -48 -41 2 -7 24 -25 50 -39 l48 -26 51 28 c74 40 53 16 -26
-30 -36 -21 -65 -42 -65 -46 0 -4 21 -19 46 -34 36 -21 53 -25 80 -20 l34 6 0
-86 0 -85 -41 0 c-36 0 -40 -2 -37 -22 2 -14 11 -24 23 -26 11 -1 37 -8 58
-14 26 -8 41 -8 48 -1 6 6 14 73 18 148 7 117 11 140 26 152 11 7 22 13 26 13
10 0 47 -90 54 -135 3 -22 8 -51 11 -64 4 -21 2 -23 -19 -17 -32 8 -55 -17
-37 -39 7 -8 19 -15 27 -15 8 0 28 -8 43 -17 43 -25 58 -7 52 61 l-4 54 43
-10 c84 -18 92 -17 100 22 4 19 11 100 15 180 3 80 9 149 11 153 8 14 51 -120
62 -193 15 -93 15 -91 -15 -80 -30 12 -44 6 -44 -18 0 -22 109 -77 124 -62 14
14 16 103 5 200 -6 47 -11 116 -12 154 l-2 69 85 49 c47 26 85 54 85 61 0 6
-23 24 -51 39 l-50 27 -33 -20z m-247 -335 c3 -26 6 -80 6 -120 l0 -74 -39 0
-39 0 -16 71 c-23 104 -22 115 22 143 20 14 42 25 48 25 6 1 14 -20 18 -45z"/>
<path d="M3213 3464 c-24 -14 -43 -31 -43 -37 0 -7 22 -24 48 -39 l48 -27 49
27 c27 15 50 32 52 37 3 11 -80 65 -100 65 -7 0 -31 -12 -54 -26z"/>
<path d="M3405 3424 c-22 -13 -40 -28 -40 -34 0 -6 21 -23 47 -38 l48 -27 47
25 c27 14 49 32 51 40 3 16 -72 61 -98 59 -8 0 -33 -12 -55 -25z"/>
<path d="M2893 3404 c-48 -29 -54 -49 -19 -65 20 -10 32 -7 75 17 28 16 51 32
51 36 0 9 -42 38 -55 38 -5 -1 -29 -12 -52 -26z"/>
<path d="M3087 3392 c-25 -15 -49 -32 -51 -39 -5 -11 75 -63 96 -63 22 0 106
53 102 64 -2 6 -26 23 -52 38 l-47 27 -48 -27z"/>
<path d="M3277 3352 c-26 -15 -46 -33 -45 -40 2 -7 24 -25 51 -39 l47 -26 48
26 c26 14 48 32 50 39 2 10 -84 69 -99 68 -2 0 -25 -13 -52 -28z"/>
<path d="M2738 3313 c-53 -29 -60 -48 -24 -64 20 -9 33 -7 75 16 28 16 51 32
51 36 0 8 -40 39 -50 39 -3 0 -26 -12 -52 -27z"/>
<path d="M2948 3311 c-27 -14 -48 -31 -48 -36 0 -6 24 -23 53 -39 l52 -28 48
27 c26 15 47 32 47 39 0 11 -90 68 -101 65 -2 -1 -25 -13 -51 -28z"/>
<path d="M3473 3314 c-24 -14 -43 -32 -43 -38 0 -7 21 -25 48 -39 l47 -26 50
27 c27 15 50 32 52 38 3 10 -85 64 -103 64 -5 -1 -28 -12 -51 -26z"/>
<path d="M3143 3274 c-24 -14 -43 -31 -43 -38 0 -6 22 -24 49 -39 l50 -28 50
28 c28 15 51 33 51 38 0 12 -85 65 -103 65 -7 -1 -31 -12 -54 -26z"/>
<path d="M2813 3234 c-24 -14 -43 -31 -43 -38 0 -6 23 -24 51 -39 l50 -28 47
29 c25 15 47 33 49 39 4 12 -77 63 -99 63 -7 -1 -32 -12 -55 -26z"/>
<path d="M3333 3233 c-24 -13 -43 -28 -43 -33 0 -11 85 -60 104 -60 23 0 96
48 96 63 0 14 -78 58 -100 56 -8 -1 -34 -12 -57 -26z"/>
<path d="M2582 3222 c-58 -29 -65 -47 -26 -64 22 -11 32 -9 72 14 51 29 57 44
27 64 -18 12 -27 10 -73 -14z"/>
<path d="M3008 3196 c-21 -11 -40 -26 -42 -33 -5 -12 76 -63 99 -63 23 0 104
51 99 63 -6 17 -79 57 -101 56 -10 -1 -35 -11 -55 -23z"/>
<path d="M3208 3162 c-26 -15 -48 -32 -48 -38 0 -6 24 -24 53 -39 l52 -27 48
27 c26 15 47 32 47 38 0 10 -90 68 -101 66 -2 0 -25 -12 -51 -27z"/>
<path d="M2677 3156 c-21 -12 -36 -27 -35 -36 2 -8 24 -26 50 -40 l46 -24 48
26 c27 15 50 31 52 37 4 13 -79 61 -104 60 -10 -1 -36 -11 -57 -23z"/>
<path d="M2848 3104 c-43 -25 -78 -52 -78 -60 0 -7 23 -25 50 -39 l50 -25 80
46 c44 25 80 51 80 58 0 10 -88 67 -101 66 -2 -1 -39 -21 -81 -46z"/>
<path d="M3403 3124 c-24 -14 -43 -32 -43 -38 0 -7 23 -25 50 -40 l50 -27 47
28 c26 16 48 33 50 38 3 10 -87 65 -103 65 -5 -1 -28 -12 -51 -26z"/>
<path d="M3008 3046 c-62 -35 -108 -67 -108 -76 0 -15 73 -60 98 -60 21 0 231
124 232 137 0 12 -85 64 -104 62 -6 -1 -59 -29 -118 -63z"/>
<path d="M3263 3042 c-24 -15 -43 -30 -43 -33 0 -10 86 -59 103 -59 25 0 106
51 101 63 -5 15 -84 57 -104 56 -8 0 -34 -13 -57 -27z"/>
<path d="M3467 3009 c-27 -16 -47 -35 -45 -40 2 -6 25 -23 51 -37 l47 -27 48
27 c26 15 48 33 50 40 1 10 -86 69 -101 68 -1 0 -24 -14 -50 -31z"/>
<path d="M3110 2954 c-42 -25 -75 -51 -75 -60 0 -8 20 -27 45 -41 l46 -26 82
47 c45 26 82 53 82 60 0 10 -88 67 -101 65 -2 0 -38 -20 -79 -45z"/>
<path d="M7185 2965 c-28 -27 -35 -71 -10 -61 8 3 31 -6 51 -19 40 -27 54 -31
54 -15 0 6 6 10 14 10 24 0 19 -89 -9 -142 -40 -76 -32 -91 19 -37 38 40 45
54 51 103 8 64 -11 133 -48 167 -31 28 -91 26 -122 -6z"/>
<path d="M3276 2900 c-55 -33 -103 -60 -108 -60 -4 0 -8 -8 -8 -17 0 -19 67
-63 94 -63 23 0 235 123 236 136 0 11 -90 64 -106 64 -5 -1 -54 -28 -108 -60z"/>
<path d="M6567 2944 c-10 -11 3 -24 24 -24 10 0 19 7 19 15 0 15 -31 21 -43 9z"/>
<path d="M6867 2933 c-25 -25 9 -48 49 -33 22 9 24 13 14 25 -13 15 -51 20
-63 8z"/>
<path d="M5234 2889 c-10 -17 11 -31 42 -27 18 2 30 10 32 21 3 13 -4 17 -32
17 -19 0 -38 -5 -42 -11z"/>
<path d="M2672 2822 c-51 -29 -67 -57 -58 -106 6 -30 11 -36 31 -36 33 0 85
71 85 114 0 50 -10 55 -58 28z"/>
<path d="M5776 2770 c-104 -53 -409 -237 -417 -252 -12 -22 -2 -46 25 -61 12
-7 83 -56 158 -109 108 -78 143 -98 169 -98 25 0 90 32 244 120 116 67 216
127 224 134 7 8 10 22 7 33 -5 15 -246 197 -310 234 -31 18 -65 17 -100 -1z
m138 -136 c80 -39 102 -110 51 -164 -60 -63 -215 -81 -311 -36 -60 28 -84 58
-84 104 0 43 44 86 109 107 61 20 183 14 235 -11z"/>
<path d="M5710 2637 c-65 -15 -104 -41 -121 -81 -17 -39 3 -73 61 -106 38 -21
58 -25 130 -25 63 1 94 6 120 19 80 42 100 88 60 138 -39 51 -154 76 -250 55z
m143 -86 c22 -75 17 -83 -53 -75 -91 10 -110 15 -110 28 0 19 23 26 66 19 39
-6 38 -10 19 54 -9 31 2 45 33 41 23 -3 28 -11 45 -67z"/>
<path d="M2430 2683 c-55 -32 -51 -29 -54 -45 -2 -7 -6 -20 -9 -28 -16 -43
-20 -116 -24 -453 l-4 -368 29 15 c26 13 31 13 58 -5 39 -25 44 -24 44 9 0 15
6 34 13 41 10 11 9 12 -1 6 -11 -6 -13 4 -10 48 3 52 2 56 -29 76 -18 11 -37
21 -43 21 -6 0 -10 94 -10 270 0 211 3 268 13 265 32 -12 80 72 75 133 l-3 42
-45 -27z"/>
<path d="M6985 2584 c7 -20 18 -40 25 -44 7 -4 11 -17 8 -28 -8 -28 -1 -35 69
-74 35 -19 60 -37 57 -40 -9 -10 16 -312 27 -323 6 -5 44 -10 85 -10 61 0 78
3 89 18 18 25 39 207 31 269 -4 28 -14 64 -22 80 -14 28 -15 28 -46 12 -24
-12 -48 -15 -95 -11 -42 3 -63 1 -63 -6 0 -24 -17 11 -34 69 -17 57 -22 63
-73 93 -30 17 -58 31 -63 31 -4 0 -2 -16 5 -36z"/>
<path d="M2190 2540 c-19 -10 -43 -22 -52 -26 -13 -4 -18 -17 -18 -44 0 -45
-17 -97 -42 -129 -17 -22 -18 -49 -18 -367 l0 -344 28 13 c15 6 29 14 32 17
16 18 102 60 112 54 6 -4 8 -3 5 3 -4 6 9 19 28 29 l35 19 0 342 0 343 -23 0
c-34 0 -54 30 -49 73 2 20 3 37 1 37 -2 0 -20 -9 -39 -20z m68 -491 c-10 -6
-14 4 -16 43 -2 34 1 54 10 59 10 6 14 -4 16 -43 2 -34 -1 -54 -10 -59z"/>
<path d="M4975 2450 c-8 -14 13 -40 32 -40 8 0 23 5 34 11 16 8 18 13 8 25
-13 16 -65 19 -74 4z"/>
<path d="M1919 2388 c-44 -28 -47 -33 -54 -85 -4 -31 -9 -62 -12 -70 -4 -11
-1 -12 21 -2 19 9 23 15 14 21 -7 4 -8 8 -2 8 5 0 15 -5 22 -12 9 -9 13 -7 18
5 3 9 11 14 17 10 6 -4 8 2 5 15 -4 12 -2 20 3 16 5 -3 14 7 19 21 12 31 13
105 3 104 -5 0 -29 -14 -54 -31z"/>
<path d="M530 2317 l0 -82 49 -27 48 -28 43 57 c32 43 39 58 28 65 -7 4 -48
28 -90 52 l-78 45 0 -82z"/>
<path d="M6997 2343 c-12 -11 -8 -21 12 -26 22 -5 54 11 46 24 -7 10 -48 12
-58 2z"/>
<path d="M4653 2290 c0 -30 2 -43 4 -27 2 15 2 39 0 55 -2 15 -4 2 -4 -28z"/>
<path d="M2010 2016 c0 -191 4 -296 10 -296 6 0 10 103 10 289 0 183 -4 292
-10 296 -7 4 -10 -95 -10 -289z"/>
<path d="M1706 2265 c-8 -9 -19 -16 -23 -17 -4 -1 -20 -9 -35 -17 -25 -14 -28
-22 -28 -68 0 -49 2 -53 27 -59 20 -5 30 -2 43 13 9 11 26 25 38 32 19 10 21
15 10 34 -6 12 -10 39 -9 60 3 41 0 44 -23 22z"/>
<path d="M4639 2209 c-11 -6 -11 -11 -2 -20 12 -12 43 -6 43 10 0 14 -25 20
-41 10z"/>
<path d="M1763 2112 l-113 -66 0 -94 0 -94 23 14 c12 8 60 37 107 63 125 71
120 65 120 162 0 60 -3 83 -12 83 -7 -1 -64 -31 -125 -68z"/>
<path d="M3875 2104 c-168 -91 -185 -102 -185 -114 0 -6 9 -10 20 -10 22 0 46
-35 30 -45 -18 -11 -11 -27 10 -22 30 8 322 190 327 204 7 19 -24 63 -45 63
-9 -1 -80 -35 -157 -76z"/>
<path d="M6750 2152 c-25 -15 -89 -52 -142 -82 -54 -30 -98 -61 -98 -68 0 -25
28 -23 76 6 27 16 93 55 147 86 91 54 112 77 76 84 -8 1 -34 -10 -59 -26z"/>
<path d="M530 2007 l0 -164 93 -51 c51 -29 96 -52 99 -52 16 0 15 33 -4 72
-12 24 -25 59 -29 78 -22 102 -42 171 -47 166 -10 -11 -32 16 -32 40 0 20 -20
41 -67 68 -10 6 -13 -28 -13 -157z"/>
<path d="M6528 2123 c7 -3 16 -2 19 1 4 3 -2 6 -13 5 -11 0 -14 -3 -6 -6z"/>
<path d="M1459 2066 c-9 -25 -13 -46 -9 -46 5 0 11 6 13 13 3 7 6 6 6 -5 1 -9
-8 -20 -19 -23 -11 -4 -18 -11 -15 -16 4 -5 1 -9 -6 -9 -7 0 -10 -3 -6 -6 3
-3 20 5 39 18 18 12 35 24 37 25 2 1 -1 8 -7 15 -6 7 -12 28 -14 46 l-3 34
-16 -46z"/>
<path d="M1485 1952 l-120 -69 -3 -92 c-1 -50 0 -91 4 -91 15 0 236 133 240
145 3 6 4 49 2 94 l-3 82 -120 -69z"/>
<path d="M6695 1977 c-22 -13 -61 -36 -88 -51 -26 -15 -45 -31 -42 -36 3 -5
34 7 68 28 34 21 74 44 90 51 15 8 27 18 27 23 0 13 -12 10 -55 -15z"/>
<path d="M6665 1914 c-86 -49 -102 -61 -93 -69 7 -8 178 94 178 106 0 12 5 14
-85 -37z"/>
<path d="M1768 1872 l-117 -67 -1 -78 0 -79 33 20 c17 11 66 39 107 62 109 62
108 60 108 140 0 39 -3 70 -6 69 -4 0 -60 -31 -124 -67z"/>
<path d="M6197 1929 c7 -7 15 -10 18 -7 3 3 -2 9 -12 12 -14 6 -15 5 -6 -5z"/>
<path d="M6653 1862 c-76 -43 -98 -62 -74 -62 15 0 171 93 171 102 0 13 -12 8
-97 -40z"/>
<path d="M6658 1818 c-47 -29 -84 -56 -81 -61 3 -4 15 -2 26 6 12 7 52 31 90
52 59 35 82 55 60 55 -5 0 -47 -24 -95 -52z"/>
<path d="M2507 1839 c7 -7 15 -10 18 -7 3 3 -2 9 -12 12 -14 6 -15 5 -6 -5z"/>
<path d="M7212 1805 c-18 -19 -39 -35 -46 -35 -18 0 -30 -30 -17 -43 13 -13
61 7 61 25 0 7 5 20 10 28 9 13 11 13 20 0 7 -11 10 -6 10 23 0 20 -1 37 -2
37 -2 0 -18 -16 -36 -35z"/>
<path d="M4131 1811 c-8 -5 -9 -11 -3 -15 5 -3 12 1 16 9 6 17 6 18 -13 6z"/>
<path d="M260 1706 l0 -94 203 -117 c111 -64 243 -141 292 -169 50 -29 155
-90 235 -136 80 -45 162 -93 182 -106 21 -13 42 -24 48 -24 7 0 10 34 9 95 -1
59 -5 95 -12 95 -6 0 -18 6 -26 14 -9 7 -41 27 -71 43 -86 47 -249 141 -317
184 -34 21 -64 39 -66 39 -6 0 -184 101 -234 133 -24 15 -45 27 -48 27 -3 0
-30 16 -60 34 -30 19 -72 44 -94 56 l-41 20 0 -94z"/>
<path d="M7317 1770 c-13 -45 -23 -55 -41 -41 -14 12 -16 10 -16 -18 0 -42 36
-45 46 -3 4 15 11 30 16 33 6 4 8 17 6 30 l-4 24 -7 -25z"/>
<path d="M1478 1702 l-118 -66 0 -78 0 -77 125 72 125 72 0 73 c0 39 -3 72 -7
72 -5 -1 -61 -31 -125 -68z"/>
<path d="M735 1740 c-5 -8 -1 -16 9 -22 9 -5 16 -15 16 -22 0 -6 17 -28 37
-47 21 -18 28 -23 16 -9 -12 14 -33 45 -46 68 -16 29 -27 40 -32 32z"/>
<path d="M6693 1693 c-53 -31 -60 -39 -52 -55 13 -25 23 -23 96 18 45 25 63
41 61 52 -5 28 -40 23 -105 -15z"/>
<path d="M2672 1603 c-19 -8 -4 -23 24 -23 16 0 24 5 22 13 -5 13 -26 18 -46
10z"/>
<path d="M1845 1420 c3 -5 -6 -34 -20 -66 -14 -31 -23 -59 -20 -62 2 -3 16 21
31 52 l26 57 36 -22 c69 -41 68 -37 21 -138 -23 -50 -44 -91 -46 -91 -12 0
-93 53 -93 61 0 5 -4 9 -10 9 -24 0 -6 -22 45 -55 63 -40 73 -42 82 -17 3 9
15 37 26 62 46 105 57 133 53 137 -12 12 -136 81 -131 73z"/>
<path d="M4240 1400 c0 -5 6 -10 14 -10 8 0 18 5 21 10 3 6 -3 10 -14 10 -12
0 -21 -4 -21 -10z"/>
<path d="M1786 1253 c-6 -14 -5 -15 5 -6 7 7 10 15 7 18 -3 3 -9 -2 -12 -12z"/>
<path d="M2520 1266 c0 -3 9 -10 20 -16 11 -6 20 -8 20 -6 0 3 -9 10 -20 16
-11 6 -20 8 -20 6z"/>
<path d="M6920 1091 c0 -11 21 -19 38 -14 21 8 13 23 -13 23 -14 0 -25 -4 -25
-9z"/>
<path d="M1584 957 c0 -7 -5 -41 -12 -77 -11 -58 -11 -75 7 -160 12 -52 21
-109 21 -127 0 -46 46 -76 125 -81 99 -6 111 21 80 181 -8 43 -15 108 -15 143
0 83 -13 105 -52 92 -38 -13 -95 -4 -129 21 -15 12 -26 15 -25 8z"/>
<path d="M2782 911 c2 -9 13 -16 27 -16 36 0 37 22 1 27 -24 4 -30 1 -28 -11z"/>
<path d="M1406 881 c-44 -7 -58 -26 -27 -36 29 -9 58 2 64 25 3 11 4 19 4 19
-1 -1 -20 -5 -41 -8z"/>
<path d="M3268 818 c3 -12 14 -18 34 -18 39 0 32 22 -9 31 -26 5 -30 3 -25
-13z"/>
<path d="M4115 820 c3 -5 27 -22 53 -37 26 -15 58 -35 71 -45 13 -10 28 -15
33 -11 6 3 3 10 -8 16 -11 6 -21 13 -24 16 -12 14 -68 40 -74 34 -3 -3 -6 -2
-6 4 0 5 -12 15 -26 21 -14 7 -23 8 -19 2z"/>
<path d="M3700 720 c-9 -6 -10 -10 -3 -10 6 0 15 5 18 10 8 12 4 12 -15 0z"/>
<path d="M4286 723 c-5 -5 152 -102 187 -116 28 -11 19 0 -20 24 -119 72 -162
96 -167 92z"/>
<path d="M5416 635 c-21 -12 -34 -25 -29 -28 4 -3 24 8 43 24 42 34 38 35 -14
4z"/>
<path d="M5346 594 c-27 -19 -13 -30 14 -11 12 8 18 17 13 20 -4 3 -17 -1 -27
-9z"/>
<path d="M4505 590 c8 -13 65 -42 65 -33 0 4 6 0 13 -9 6 -9 44 -33 82 -54 39
-21 72 -41 75 -44 3 -4 15 -12 27 -19 16 -8 24 -8 29 1 4 7 3 8 -4 4 -7 -4
-12 -3 -12 2 0 5 -30 25 -66 43 -36 19 -70 40 -76 46 -6 7 -18 13 -28 13 -10
0 -20 7 -24 15 -3 8 -14 15 -24 15 -11 0 -25 7 -32 15 -14 17 -35 21 -25 5z"/>
<path d="M5266 550 c-26 -15 -44 -30 -38 -34 6 -3 16 0 24 7 7 7 25 18 41 24
15 7 27 17 27 23 0 5 -1 10 -2 9 -2 -1 -25 -14 -52 -29z"/>
<path d="M5145 479 c-108 -70 -164 -93 -225 -91 -30 2 -64 9 -77 17 -12 8 -28
15 -35 15 -7 0 2 -10 21 -22 23 -15 52 -22 94 -24 65 -2 107 14 209 81 29 19
58 35 65 35 15 0 26 17 16 23 -5 3 -35 -13 -68 -34z"/>
<path d="M1702 343 c-6 -2 -10 -9 -7 -13 8 -12 -35 -40 -62 -40 -16 0 -23 -6
-23 -20 0 -26 29 -26 74 1 28 16 36 27 36 50 0 16 -1 29 -2 28 -2 0 -9 -3 -16
-6z"/>
<path d="M1833 247 c4 -19 -51 -32 -83 -20 -26 10 -30 9 -30 -7 0 -10 6 -20
13 -23 14 -5 88 6 120 18 23 9 22 31 -3 38 -11 3 -18 0 -17 -6z"/>
</g>
</svg>
