<svg width="40" height="40" viewBox="0 0 40 40" fill="none" xmlns="http://www.w3.org/2000/svg">
<path fill-rule="evenodd" clip-rule="evenodd" d="M34.1418 5.85731C33.556 5.27152 32.6063 5.27152 32.0205 5.85731L19.9995 17.8783L7.97863 5.85746C7.39284 5.27167 6.44309 5.27167 5.85731 5.85746C5.27152 6.44325 5.27152 7.39299 5.85731 7.97878L17.8782 19.9996L5.85753 32.0203C5.27175 32.606 5.27175 33.5558 5.85753 34.1416C6.44332 34.7274 7.39307 34.7274 7.97885 34.1416L19.9995 22.121L32.0203 34.1417C32.606 34.7275 33.5558 34.7275 34.1416 34.1417C34.7274 33.5559 34.7274 32.6062 34.1416 32.0204L22.1208 19.9996L34.1418 7.97863C34.7276 7.39284 34.7276 6.44309 34.1418 5.85731Z" fill="#101010"/>
</svg>
