<?xml version="1.0" encoding="UTF-8"?>
<svg version="1.1" xmlns="http://www.w3.org/2000/svg" width="1032" height="570">
<path d="M0 0 C340.56 0 681.12 0 1032 0 C1032 188.1 1032 376.2 1032 570 C691.44 570 350.88 570 0 570 C0 381.9 0 193.8 0 0 Z " fill="#F9F9F9" transform="translate(0,0)"/>
<path d="M0 0 C8.72070202 5.6175325 16.27007751 13.22360808 18.9453125 23.45703125 C19.4393419 26.0963664 19.84640505 28.71063565 20.140625 31.37890625 C22.05875 31.65734375 22.05875 31.65734375 24.015625 31.94140625 C32.41842093 33.83368943 39.19830739 39.28976532 43.95703125 46.3671875 C48.87875359 54.73249114 49.6273881 63.65574479 47.51953125 73.1875 C44.54357269 81.66567527 38.91481509 88.23787817 30.953125 92.37890625 C25.08292089 95.11011591 19.6191865 95.53025712 13.2043457 95.54003906 C12.41988571 95.54500397 11.63542572 95.54996887 10.82719421 95.55508423 C8.24025584 95.56964936 5.65337884 95.57649928 3.06640625 95.58203125 C1.25904846 95.58778842 -0.54830933 95.59354608 -2.35566711 95.5993042 C-6.14425947 95.60979888 -9.93283071 95.61565122 -13.72143555 95.61914062 C-18.55531591 95.62461466 -23.38891309 95.64862584 -28.22270489 95.67711258 C-31.95726818 95.69581986 -35.69176445 95.7009489 -39.42637062 95.7024765 C-41.20720781 95.70548656 -42.98804428 95.71345885 -44.76883507 95.72666168 C-57.66695494 95.81544448 -68.3058049 95.56522402 -78.58984375 86.8359375 C-85.49890568 79.35607527 -88.25602444 70.27570925 -88.13671875 60.3203125 C-87.39524291 52.45649127 -83.45523725 44.91536445 -77.859375 39.37890625 C-72.63936442 35.60843312 -66.46574133 31.37890625 -59.859375 31.37890625 C-59.77300781 30.76144531 -59.68664062 30.14398438 -59.59765625 29.5078125 C-57.83940391 18.9099062 -52.86821459 10.57603912 -44.859375 3.37890625 C-31.06821821 -5.78907866 -14.96815743 -7.98498162 0 0 Z " fill="#2D5CDB" transform="translate(241.859375,237.62109375)"/>
<path d="M0 0 C5.90092219 3.97177455 9.80685785 9.46005661 11.62109375 16.36328125 C13.04809653 26.29345525 13.08652483 36.92776944 7.3359375 45.47265625 C2.14930646 51.82679587 -2.93598698 55.33837016 -11.109375 56.40625 C-19.66954508 56.80813592 -26.28331579 55.10545084 -32.80859375 49.42578125 C-34.41663558 47.7054572 -35.71125184 45.96936828 -37 44 C-37.4125 43.40058594 -37.825 42.80117188 -38.25 42.18359375 C-42.43693878 34.75468502 -42.21096018 25.24234189 -41 17 C-38.40731741 8.50736126 -33.91214214 2.28312574 -26.1640625 -2.01953125 C-17.33219291 -5.96683623 -8.16302937 -4.85628362 0 0 Z " fill="#393939" transform="translate(811,257)"/>
<path d="M0 0 C1.84395286 1.23227843 3.54241789 2.56976164 5.11328125 4.140625 C5.77328125 2.490625 6.43328125 0.840625 7.11328125 -0.859375 C10.41328125 -0.859375 13.71328125 -0.859375 17.11328125 -0.859375 C17.18762952 5.84836421 17.24197772 12.55586169 17.27807617 19.26391602 C17.29313043 21.54423198 17.31357833 23.82451914 17.33959961 26.10473633 C17.37613019 29.38890709 17.39304164 32.67269385 17.40625 35.95703125 C17.42173386 36.97084366 17.43721771 37.98465607 17.45317078 39.02919006 C17.45454684 44.8619617 16.95508888 49.00562289 14.11328125 54.140625 C8.24605467 59.85345088 2.67548877 60.50328244 -5.28466797 60.43603516 C-11.07033947 60.29284652 -15.0318208 59.76067273 -19.40625 55.74609375 C-22.23885244 52.6637853 -22.88671875 51.42029366 -22.88671875 47.140625 C-19.50499097 46.84513422 -16.25914096 46.69757108 -12.88671875 47.140625 C-11.17990928 48.76615783 -9.5101168 50.43178495 -7.88671875 52.140625 C-4.01491662 53.03289216 -0.66904082 52.35250389 3.11328125 51.328125 C5.67380724 48.5275497 5.4113969 47.18346661 5.42578125 43.453125 C5.34533711 41.68105555 5.24841417 39.9093648 5.11328125 38.140625 C4.37078125 38.78 3.62828125 39.419375 2.86328125 40.078125 C-1.57717511 43.40846727 -5.3565229 43.69364458 -10.88671875 43.140625 C-16.45767308 40.72480929 -19.96447154 37.51755986 -22.88671875 32.140625 C-25.0930619 25.52159554 -25.22132695 16.05030712 -22.9453125 9.3828125 C-18.17189137 1.51190493 -9.20302989 -4.19185626 0 0 Z " fill="#3C3C3C" transform="translate(457.88671875,268.859375)"/>
<path d="M0 0 C2.55487361 1.41937423 4.30159733 3.08510814 6.25 5.25 C6.58 3.6 6.91 1.95 7.25 0.25 C10.55 0.25 13.85 0.25 17.25 0.25 C17.34902386 7.11844699 17.4215434 13.98647659 17.46972656 20.85546875 C17.48981709 23.19115438 17.51709461 25.52678987 17.55175781 27.86230469 C17.60038691 31.22343331 17.62299492 34.58389575 17.640625 37.9453125 C17.66127014 38.98615997 17.68191528 40.02700745 17.70318604 41.09939575 C17.70505615 47.16898825 17.29189367 50.62765115 13.25 55.25 C6.99152297 61.03909126 0.34067041 60.75649863 -7.80859375 60.59765625 C-12.92087603 60.14672154 -16.14774475 58.89194952 -19.75 55.25 C-22.05027934 52.23088336 -22.75 51.04198146 -22.75 47.25 C-21.1473218 47.14175157 -19.54254252 47.06429355 -17.9375 47 C-17.04417969 46.95359375 -16.15085937 46.9071875 -15.23046875 46.859375 C-12.75 47.25 -12.75 47.25 -11.11328125 49.203125 C-10.66339844 49.87859375 -10.21351563 50.5540625 -9.75 51.25 C-6.17365687 52.44211438 -3.50935317 52.50926574 0.25 52.25 C2.56279611 51.09360194 4.42409828 50.07590172 6.25 48.25 C6.32226502 46.39712498 6.3338122 44.54166122 6.3125 42.6875 C6.30347656 41.67558594 6.29445313 40.66367187 6.28515625 39.62109375 C6.27355469 38.83863281 6.26195312 38.05617188 6.25 37.25 C5.321875 38.054375 4.39375 38.85875 3.4375 39.6875 C-0.71835522 43.28924119 -4.30557226 43.61911375 -9.75 43.25 C-15.45781525 41.0810302 -19.26224192 37.76305642 -22.37109375 32.51171875 C-25.16110761 25.91211089 -24.82575413 17.47726239 -22.5625 10.6875 C-17.61498771 1.30428704 -10.20706165 -2.78374409 0 0 Z " fill="#3A3A3A" transform="translate(660.75,268.75)"/>
<path d="M0 0 C3.4040265 2.03532418 6.16024931 4.10949909 8.5625 7.3125 C9.24444028 10.04535024 9.41822507 12.4750931 9.5625 15.3125 C6.2625 15.3125 2.9625 15.3125 -0.4375 15.3125 C-0.7778125 14.136875 -0.7778125 14.136875 -1.125 12.9375 C-2.207505 10.19721107 -2.207505 10.19721107 -4.5625 9 C-9.72426506 7.76566488 -13.68949153 7.42065894 -18.5 9.875 C-20.78019314 12.25970697 -20.78019314 12.25970697 -20.625 15.875 C-19.76493087 19.41767412 -19.76493087 19.41767412 -17.0625 21.0625 C-14.06697442 22.09543986 -11.12302815 22.94661136 -8.0625 23.75 C-1.42160364 25.50045366 5.39803627 27.60751769 9.71484375 33.34375 C11.63591156 37.80558492 11.24893532 42.59811403 10.5625 47.3125 C8.11548498 52.79381365 4.7869196 54.79358341 -0.4375 57.3125 C-6.92789467 59.4476843 -16.14433291 59.64976271 -22.5 57.0625 C-27.89740594 53.84702412 -31.11631208 51.29872147 -33.4375 45.3125 C-33.4375 43.6625 -33.4375 42.0125 -33.4375 40.3125 C-30.1375 40.3125 -26.8375 40.3125 -23.4375 40.3125 C-23.025 41.26125 -22.6125 42.21 -22.1875 43.1875 C-20.32488171 46.51360408 -19.85091645 47.045172 -16.4375 48.3125 C-11.3266983 48.96753569 -6.88155069 49.0486827 -2.25 46.6875 C-0.21261643 44.38969779 -0.21261643 44.38969779 0.125 41.25 C-0.15473936 38.31500755 -0.15473936 38.31500755 -1.94921875 36.78125 C-6.0219292 34.37726393 -10.51035435 33.46852193 -15.0625 32.29492188 C-22.14966534 30.36035112 -27.10434927 27.41100844 -31.4375 21.3125 C-32.99694339 18.19361322 -32.72066275 15.7670855 -32.4375 12.3125 C-30.06341695 6.11923987 -26.05901797 2.81051027 -20.375 -0.4375 C-13.98782378 -2.96168973 -6.22447427 -2.90003915 0 0 Z " fill="#383838" transform="translate(600.4375,254.6875)"/>
<path d="M0 0 C3.12111844 2.65627101 5.61527021 5.09757967 7 9 C7 10.32 7 11.64 7 13 C3.62190116 13.28520534 0.36731298 13.45297727 -3 13 C-4.875 10.625 -4.875 10.625 -6 8 C-10.13235372 5.37113881 -14.25164054 5.33371155 -19 6 C-22.22838773 7.33016164 -22.22838773 7.33016164 -24 10 C-23.9363921 13.70054409 -23.9363921 13.70054409 -23 17 C-17.66046362 19.22086911 -12.35376986 21.21192027 -6.8125 22.875 C-1.53686944 24.58822023 2.31585645 26.82702187 6 31 C8.1075328 35.2150656 7.51511506 40.42250022 7 45 C5.27838851 49.25950429 2.85543078 51.46535576 -1 53.875 C-8.42273263 56.65852474 -16.65098573 56.96644761 -24.375 55.25 C-30.80216309 52.18944615 -34.0720284 49.41901467 -37 43 C-37 41.35 -37 39.7 -37 38 C-33.7 38 -30.4 38 -27 38 C-26.5875 38.94875 -26.175 39.8975 -25.75 40.875 C-23.88738171 44.20110408 -23.41341645 44.732672 -20 46 C-14.8891983 46.65503569 -10.44405069 46.7361827 -5.8125 44.375 C-3.77511643 42.07719779 -3.77511643 42.07719779 -3.4375 38.9375 C-3.71723936 36.00250755 -3.71723936 36.00250755 -5.51171875 34.46875 C-9.5844292 32.06476393 -14.07285435 31.15602193 -18.625 29.98242188 C-24.47725964 28.38494111 -28.75765898 25.94729615 -33.375 21.9375 C-35.88358199 17.40275563 -35.6198253 13.06573268 -35 8 C-32.89713727 2.62601747 -28.42784696 -0.8143073 -23.3125 -3.3125 C-14.84093948 -5.07074841 -7.44434909 -4.628378 0 0 Z " fill="#383838" transform="translate(353,257)"/>
<path d="M0 0 C5.01968409 2.98925008 8.45827835 6.43633737 10.8984375 11.8046875 C11.6484375 15.0546875 11.6484375 15.0546875 11.6484375 24.0546875 C1.7484375 24.0546875 -8.1515625 24.0546875 -18.3515625 24.0546875 C-16.47712029 32.74771719 -16.47712029 32.74771719 -12.3515625 35.0546875 C-6.85560534 35.60582271 -6.85560534 35.60582271 -1.9765625 33.5546875 C2.05669904 31.24996662 6.1042928 31.81645079 10.6484375 32.0546875 C10.42930883 35.88943914 9.70815356 36.99632863 6.8984375 39.7421875 C0.09369165 44.5840259 -6.16607127 44.86313108 -14.3515625 44.0546875 C-19.78243865 42.37778539 -23.14450396 38.54456946 -26.3515625 34.0546875 C-29.64361009 27.44749022 -29.54952344 18.55384762 -27.6640625 11.47265625 C-25.19899473 6.10086273 -21.36204016 2.46522587 -15.9921875 -0.05078125 C-10.81529342 -1.80449241 -5.12103932 -2.05862378 0 0 Z " fill="#383838" transform="translate(530.3515625,268.9453125)"/>
<path d="M0 0 C4.09305594 1.73936374 6.31419866 3.90271786 8.66015625 7.65625 C10.29127693 11.72691852 10.49653798 15.03498818 10.4375 19.375 C10.43210205 20.12797363 10.4267041 20.88094727 10.42114258 21.65673828 C10.2425841 28.15965464 8.9915029 32.62951964 4.55078125 37.6328125 C0.82068216 40.92131296 -4.28060043 40.45526783 -8.98046875 40.3984375 C-12.93026674 39.87724811 -14.93463248 38.73988366 -17.6640625 35.890625 C-22.19011942 29.48532807 -23.13842555 21.64678296 -22 14 C-20.33995863 8.94893394 -18.13474206 5.13474206 -14.375 1.375 C-9.49637791 -0.61258678 -5.18986196 -0.8662324 0 0 Z " fill="#F8F7F8" transform="translate(802,263)"/>
<path d="M0 0 C3.3 0 6.6 0 10 0 C10.33 1.98 10.66 3.96 11 6 C11.763125 5.195625 12.52625 4.39125 13.3125 3.5625 C17.39166269 -0.32693419 21.01763506 -0.41089969 26.42578125 -0.33984375 C30.4968322 0.19760911 33.38455353 1.84342668 36 5 C38.58501211 10.14275446 39.36347953 13.83119919 39.29296875 19.68359375 C39.28872391 20.38396255 39.28447906 21.08433136 39.28010559 21.80592346 C39.26347156 24.01686 39.2258518 26.22684457 39.1875 28.4375 C39.17243326 29.94725235 39.15874836 31.45701916 39.14648438 32.96679688 C39.11361921 36.64483434 39.06194582 40.32232407 39 44 C35.37 44 31.74 44 28 44 C27.98541748 43.07662842 27.97083496 42.15325684 27.95581055 41.2019043 C27.89473692 37.77422796 27.8205839 34.34735338 27.73754883 30.92016602 C27.70430577 29.43720146 27.67627177 27.95411056 27.65356445 26.47094727 C27.62000532 24.33815707 27.56769362 22.20652388 27.51171875 20.07421875 C27.48553467 18.79119873 27.45935059 17.50817871 27.43237305 16.1862793 C27.24708409 13.0639752 27.24708409 13.0639752 25.71411133 11.08520508 C23.2792363 9.543684 20.85888881 9.58551702 18.03515625 9.50390625 C15.02000793 10.23888482 13.92150167 11.58308624 12 14 C11.35856672 17.28116076 11.35856672 17.28116076 11.390625 20.953125 C11.37408875 21.61334656 11.35755249 22.27356812 11.34051514 22.95379639 C11.29211549 25.05262626 11.27068481 27.15073222 11.25 29.25 C11.22183317 30.6771196 11.19190472 32.10420559 11.16015625 33.53125 C11.08636237 37.02067609 11.03673721 40.50996472 11 44 C7.37 44 3.74 44 0 44 C0 29.48 0 14.96 0 0 Z " fill="#3E3E3E" transform="translate(687,268)"/>
<path d="M0 0 C3.3 0 6.6 0 10 0 C10.33 2.31 10.66 4.62 11 7 C11.86625 5.824375 11.86625 5.824375 12.75 4.625 C15.42322843 1.5062335 17.29513743 0.24194419 21.3671875 -0.3359375 C27.074042 -0.42482931 30.67833732 -0.11586922 35 4 C40.24076933 11.62293721 39.4561868 19.63785803 39.25 28.5 C39.22990494 30.00518458 39.21165948 31.51039505 39.1953125 33.015625 C39.15155298 36.67762737 39.08269216 40.33864578 39 44 C35.37 44 31.74 44 28 44 C27.98541748 43.07662842 27.97083496 42.15325684 27.95581055 41.2019043 C27.89473692 37.77422796 27.8205839 34.34735338 27.73754883 30.92016602 C27.70430577 29.43720146 27.67627177 27.95411056 27.65356445 26.47094727 C27.62000532 24.33815707 27.56769362 22.20652388 27.51171875 20.07421875 C27.48553467 18.79119873 27.45935059 17.50817871 27.43237305 16.1862793 C27.24708409 13.0639752 27.24708409 13.0639752 25.71411133 11.08520508 C23.2792363 9.543684 20.85888881 9.58551702 18.03515625 9.50390625 C15.02000793 10.23888482 13.92150167 11.58308624 12 14 C11.35856672 17.28116076 11.35856672 17.28116076 11.390625 20.953125 C11.37408875 21.61334656 11.35755249 22.27356812 11.34051514 22.95379639 C11.29211549 25.05262626 11.27068481 27.15073222 11.25 29.25 C11.22183317 30.6771196 11.19190472 32.10420559 11.16015625 33.53125 C11.08636237 37.02067609 11.03673721 40.50996472 11 44 C7.37 44 3.74 44 0 44 C0 29.48 0 14.96 0 0 Z " fill="#3F3F3F" transform="translate(831,268)"/>
<path d="M0 0 C4.23486736 3.7215501 6.93418584 6.88778757 7.3125 12.5625 C7.21003876 18.22860666 5.28039659 21.53795706 1.375 25.625 C-2.50527531 28.18744596 -5.32384449 29.01388972 -9.9375 28.8125 C-13.4375 27.875 -13.4375 27.875 -15.9375 26.8125 C-16.52820014 28.75853274 -16.52820014 28.75853274 -16.9375 30.8125 C-16.4425 31.3075 -16.4425 31.3075 -15.9375 31.8125 C-15.6875 34.25 -15.6875 34.25 -15.9375 36.8125 C-18.9375 38.8125 -18.9375 38.8125 -21 38.5 C-22.9375 37.8125 -22.9375 37.8125 -24.9375 36.8125 C-24.751875 37.781875 -24.56625 38.75125 -24.375 39.75 C-24.230625 40.760625 -24.08625 41.77125 -23.9375 42.8125 C-25.87020582 44.74520582 -29.32391388 44.43913055 -31.9375 44.8125 C-32.4325 45.3075 -32.4325 45.3075 -32.9375 45.8125 C-35.77109542 46.1107732 -37.37535378 46.16852594 -39.8125 44.625 C-40.9375 42.8125 -40.9375 42.8125 -40.74633789 40.43359375 C-39.77330133 37.28040312 -38.61403413 36.18980912 -36.12109375 34.0625 C-27.22300507 26.77359335 -27.22300507 26.77359335 -21.953125 17.01953125 C-22.06909467 13.65899313 -22.06909467 13.65899313 -22.5859375 10.49609375 C-22.9375 7.8125 -22.9375 7.8125 -21.25 4.1875 C-15.33098529 -1.89148808 -8.01462898 -3.2399564 0 0 Z " fill="#F5FAFD" transform="translate(235.9375,269.1875)"/>
<path d="M0 0 C3.9323173 2.65202795 6.18648186 5.30944559 7.6875 9.8125 C7.7721817 12.32618055 7.80351885 14.81119374 7.78515625 17.32421875 C7.7837413 18.05244339 7.78232635 18.78066803 7.78086853 19.53096008 C7.77527659 21.85401539 7.76272562 24.17697388 7.75 26.5 C7.74498396 28.07617048 7.74042123 29.65234248 7.73632812 31.22851562 C7.7253098 35.08988098 7.70805074 38.95117408 7.6875 42.8125 C4.3875 42.8125 1.0875 42.8125 -2.3125 42.8125 C-2.3218457 41.9246582 -2.33119141 41.03681641 -2.34082031 40.12207031 C-2.38490681 36.81904081 -2.44654746 33.51729993 -2.52001953 30.21484375 C-2.54819611 28.78723063 -2.56942727 27.35946247 -2.58349609 25.93164062 C-2.60497392 23.87549668 -2.65163974 21.82120998 -2.703125 19.765625 C-2.72407227 18.52973633 -2.74501953 17.29384766 -2.76660156 16.02050781 C-3.4029248 12.28111277 -4.34007869 11.0894554 -7.3125 8.8125 C-9.28985077 8.19027707 -9.28985077 8.19027707 -11.3125 8.3125 C-12.3025 8.29703125 -12.3025 8.29703125 -13.3125 8.28125 C-16.28132484 9.0698441 -17.40645131 10.41996619 -19.3125 12.8125 C-19.95393328 16.09366076 -19.95393328 16.09366076 -19.921875 19.765625 C-19.93841125 20.42584656 -19.95494751 21.08606812 -19.97198486 21.76629639 C-20.02038451 23.86512626 -20.04181519 25.96323222 -20.0625 28.0625 C-20.09066683 29.4896196 -20.12059528 30.91670559 -20.15234375 32.34375 C-20.22613763 35.83317609 -20.27576279 39.32246472 -20.3125 42.8125 C-23.6125 42.8125 -26.9125 42.8125 -30.3125 42.8125 C-30.3125 28.6225 -30.3125 14.4325 -30.3125 -0.1875 C-27.3425 -0.1875 -24.3725 -0.1875 -21.3125 -0.1875 C-20.9825 1.7925 -20.6525 3.7725 -20.3125 5.8125 C-19.44625 4.636875 -19.44625 4.636875 -18.5625 3.4375 C-13.55561577 -2.40386494 -6.95284179 -2.49252819 0 0 Z " fill="#343434" transform="translate(418.3125,269.1875)"/>
<path d="M0 0 C3.3 0 6.6 0 10 0 C10.09902386 6.86844699 10.1715434 13.73647659 10.21972656 20.60546875 C10.23981709 22.94115438 10.26709461 25.27678987 10.30175781 27.61230469 C10.35038691 30.97343331 10.37299492 34.33389575 10.390625 37.6953125 C10.41127014 38.73615997 10.43191528 39.77700745 10.45318604 40.84939575 C10.45505615 46.91898825 10.04189367 50.37765115 6 55 C-0.25847703 60.78909126 -6.90932959 60.50649863 -15.05859375 60.34765625 C-20.17087603 59.89672154 -23.39774475 58.64194952 -27 55 C-29.30027934 51.98088336 -30 50.79198146 -30 47 C-28.3973218 46.89175157 -26.79254252 46.81429355 -25.1875 46.75 C-24.29417969 46.70359375 -23.40085937 46.6571875 -22.48046875 46.609375 C-20 47 -20 47 -18.36328125 48.953125 C-17.91339844 49.62859375 -17.46351563 50.3040625 -17 51 C-13.42365687 52.19211438 -10.75935317 52.25926574 -7 52 C-4.68720389 50.84360194 -2.82590172 49.82590172 -1 48 C-0.92773498 46.14712498 -0.9161878 44.29166122 -0.9375 42.4375 C-0.94652344 41.42558594 -0.95554687 40.41367187 -0.96484375 39.37109375 C-0.97644531 38.58863281 -0.98804688 37.80617188 -1 37 C-1.99 37 -2.98 37 -4 37 C-2.125 29.375 -2.125 29.375 -1 26 C-0.88119646 24.1903182 -0.8248035 22.37603553 -0.8125 20.5625 C-0.79123047 19.14130859 -0.79123047 19.14130859 -0.76953125 17.69140625 C-1.00590422 14.93105073 -1.70667657 13.40338241 -3 11 C-2.625 8.75 -2.625 8.75 -2 7 C-1.34 7 -0.68 7 0 7 C0 4.69 0 2.38 0 0 Z " fill="#353535" transform="translate(668,269)"/>
<path d="M0 0 C1.84395286 1.23227843 3.54241789 2.56976164 5.11328125 4.140625 C5.77328125 2.820625 6.43328125 1.500625 7.11328125 0.140625 C7.23828125 6.765625 7.23828125 6.765625 6.11328125 10.140625 C5.12328125 10.470625 4.13328125 10.800625 3.11328125 11.140625 C2.45328125 10.480625 1.79328125 9.820625 1.11328125 9.140625 C-1.92376443 8.63640506 -4.84474469 8.68595272 -7.88671875 9.140625 C-10.38832693 11.01683113 -11.50617527 12.37953803 -12.88671875 15.140625 C-13.3931504 20.68646672 -13.43966116 25.63260025 -11.51171875 30.890625 C-8.04088433 33.86562593 -5.6775484 33.74492943 -1.2265625 33.64453125 C1.4604451 33.06586016 2.40382388 32.24241685 4.11328125 30.140625 C4.77328125 30.470625 5.43328125 30.800625 6.11328125 31.140625 C5.76265625 31.73875 5.41203125 32.336875 5.05078125 32.953125 C3.78023427 35.24875714 3.78023427 35.24875714 5.11328125 38.140625 C0.79853723 41.85609902 -1.601216 42.87691314 -7.13671875 43.515625 C-12.05589216 43.02370766 -15.12178538 41.2835259 -18.88671875 38.140625 C-24.88701169 30.44794175 -24.98260626 21.54255207 -23.88671875 12.140625 C-22.0653192 6.80490682 -18.57586521 3.22558977 -13.88671875 0.140625 C-9.42104627 -1.34793249 -4.40637862 -2.00704616 0 0 Z " fill="#3B3B3B" transform="translate(457.88671875,268.859375)"/>
<path d="M0 0 C3.3 0 6.6 0 10 0 C10 19.14 10 38.28 10 58 C6.7 58 3.4 58 0 58 C0 38.86 0 19.72 0 0 Z " fill="#333333" transform="translate(484,254)"/>
<path d="M0 0 C2.75569447 2.18159145 4.43588747 3.87177494 6 7 C6.53013375 13.23926648 6.68427506 18.67826936 3 24 C-1.01034263 26.67356175 -4.28600308 26.70026766 -9 26 C-12.06706746 23.79800285 -13.51865898 21.42089347 -15 18 C-15.85207851 12.01331849 -14.89602349 7.25574633 -12 2 C-7.99745384 -0.66836411 -4.70686701 -0.8340238 0 0 Z " fill="#F6F5F6" transform="translate(662,277)"/>
<path d="M0 0 C3.1716236 2.34715001 4.75734634 5.27203902 6 9 C6.46183941 15.00391227 5.45911689 19.82981317 1.703125 24.671875 C-1.18780687 26.92627141 -4.07907917 26.52252416 -7.6171875 26.4296875 C-10 26 -10 26 -12.5625 23.625 C-15.58713779 18.10174839 -15.61302655 13.26921822 -15 7 C-12.25317881 0.0353112 -6.94462346 -1.29537018 0 0 Z " fill="#F6F6F6" transform="translate(459,277)"/>
<path d="M0 0 C3.3 0 6.6 0 10 0 C10 14.19 10 28.38 10 43 C6.7 43 3.4 43 0 43 C0 28.81 0 14.62 0 0 Z " fill="#353535" transform="translate(619,269)"/>
<path d="M0 0 C3.3 0 6.6 0 10 0 C10 14.19 10 28.38 10 43 C6.7 43 3.4 43 0 43 C0 28.81 0 14.62 0 0 Z " fill="#323232" transform="translate(368,269)"/>
<path d="M0 0 C8.58 0 17.16 0 26 0 C26 2.64 26 5.28 26 8 C17.42 8 8.84 8 0 8 C0 5.36 0 2.72 0 0 Z " fill="#333333" transform="translate(735,284)"/>
<path d="M0 0 C-5.23792129 3.49194753 -11.02712826 3.16621265 -17.16088867 3.25292969 C-18.35466377 3.2750074 -18.35466377 3.2750074 -19.57255554 3.29753113 C-22.18763567 3.34418622 -24.80275181 3.38370193 -27.41796875 3.421875 C-28.76110358 3.44266491 -28.76110358 3.44266491 -30.13137245 3.46387482 C-34.86152714 3.53691091 -39.59172288 3.60447846 -44.32202148 3.66748047 C-49.21165662 3.73364893 -54.10079269 3.81825543 -58.99006176 3.9070549 C-62.74994884 3.97205614 -66.50993344 4.02358257 -70.27007484 4.07138824 C-72.07350741 4.09666374 -73.87687594 4.12703458 -75.68013573 4.16255951 C-78.19590104 4.21084883 -80.71120152 4.24011361 -83.22729492 4.26464844 C-83.97384338 4.28321396 -84.72039185 4.30177948 -85.48956299 4.32090759 C-90.53314329 4.34184238 -90.53314329 4.34184238 -92.98579407 2.54595947 C-94 1 -94 1 -94 0 C-92.92116043 0.00222061 -91.84232086 0.00444122 -90.73078918 0.00672913 C-80.56349217 0.02700128 -70.39619925 0.04199181 -60.2288866 0.05181217 C-55.00178497 0.05703063 -49.77469966 0.06410949 -44.54760742 0.07543945 C-39.50314359 0.08630513 -34.45869545 0.09228466 -29.41422081 0.09487724 C-27.48970988 0.09672484 -25.56519982 0.10033271 -23.64069557 0.10573006 C-20.94509652 0.11298927 -18.24956233 0.11398887 -15.55395508 0.11352539 C-14.75841721 0.11712067 -13.96287933 0.12071594 -13.14323425 0.12442017 C-9.03412996 0.11677556 -3.59476309 -1.79738155 0 0 Z " fill="#E9F9FE" transform="translate(270,332)"/>
<path d="M0 0 C2.875 1.625 2.875 1.625 5 4 C5.33 5.98 5.66 7.96 6 10 C-0.6 10 -7.2 10 -14 10 C-13.02703433 5.13517165 -12.56899586 3.85009638 -8.74609375 0.953125 C-5.68461387 -0.71801838 -3.37531098 -0.55232362 0 0 Z " fill="#F5F5F5" transform="translate(526,276)"/>
<path d="M0 0 C0.99 0 1.98 0 3 0 C3 14.19 3 28.38 3 43 C2.01 43 1.02 43 0 43 C0 28.81 0 14.62 0 0 Z " fill="#3B3B3B" transform="translate(368,269)"/>
<path d="M0 0 C1.8125 1.125 1.8125 1.125 3 3 C3.3125 6.0625 3.3125 6.0625 3 9 C1 11 1 11 -2.5 11.25 C-6 11 -6 11 -8 9 C-8.3125 5.5 -8.3125 5.5 -8 2 C-4.76746204 -0.15502531 -3.74849077 -0.46856135 0 0 Z " fill="#3C3C3C" transform="translate(627,251)"/>
<path d="M0 0 C2.9375 0.8125 2.9375 0.8125 4.9375 2.8125 C5.25 5.8125 5.25 5.8125 4.9375 8.8125 C1.48504176 11.11413882 -0.00988713 11.15740322 -4.0625 10.8125 C-6.0625 8.8125 -6.0625 8.8125 -6.375 5.875 C-6.0625 2.8125 -6.0625 2.8125 -4.9375 0.875 C-3.0625 -0.1875 -3.0625 -0.1875 0 0 Z " fill="#3A3A3A" transform="translate(374.0625,251.1875)"/>
<path d="M0 0 C2.4375 0.75 2.4375 0.75 4.4375 2.75 C4.8008156 5.58386167 4.7943671 7.15522151 3.3125 9.625 C1.4375 10.75 1.4375 10.75 -1.6875 10.5 C-4.5625 9.75 -4.5625 9.75 -5.5625 8.75 C-5.8125 5.3125 -5.8125 5.3125 -5.5625 1.75 C-2.5625 -0.25 -2.5625 -0.25 0 0 Z " fill="#4065D0" transform="translate(228.5625,277.25)"/>
<path d="M0 0 C0.66 0.33 1.32 0.66 2 1 C1.34 1.721875 0.68 2.44375 0 3.1875 C-2.96872235 7.48025183 -2.16148029 12.17351385 -1.84765625 17.171875 C-1.89792969 18.10515625 -1.94820312 19.0384375 -2 20 C-2.99 20.66 -3.98 21.32 -5 22 C-5.24913692 19.25048889 -5.47491836 16.5023728 -5.6875 13.75 C-5.76033203 12.97269531 -5.83316406 12.19539063 -5.90820312 11.39453125 C-6.32710208 5.62851034 -6.32710208 5.62851034 -4.70703125 2.515625 C-3 1 -3 1 0 0 Z " fill="#4165C9" transform="translate(216,270)"/>
<path d="M0 0 C0.33 0.99 0.66 1.98 1 3 C-3.88389693 5.95604288 -6.36893237 7.12373476 -12.125 7.0625 C-13.22070312 7.05347656 -14.31640625 7.04445313 -15.4453125 7.03515625 C-16.70988281 7.01775391 -16.70988281 7.01775391 -18 7 C-18.33 6.01 -18.66 5.02 -19 4 C-18.35933594 4.10699219 -17.71867188 4.21398437 -17.05859375 4.32421875 C-10.9782722 5.16694588 -7.37717625 5.02466164 -2 2 C-1.34 1.34 -0.68 0.68 0 0 Z " fill="#4467CA" transform="translate(239,292)"/>
<path d="M0 0 C2.8023603 2.38632362 3.69868887 4.48422708 4.6875 8 C4.93886719 8.86625 5.19023437 9.7325 5.44921875 10.625 C6 13 6 13 6 16 C7.98 16.33 9.96 16.66 12 17 C12 17.33 12 17.66 12 18 C8.625 17.6875 8.625 17.6875 5 17 C2.70053583 13.55080374 2.19230965 10.8618978 1.375 6.8125 C0.98441406 4.90404297 0.98441406 4.90404297 0.5859375 2.95703125 C0.39257812 1.98121094 0.19921875 1.00539062 0 0 Z " fill="#476DCE" transform="translate(256,253)"/>
<path d="M0 0 C0.66 0.33 1.32 0.66 2 1 C0.34540386 4.91086359 -2.29301434 7.76482202 -5 11 C-6.03655068 12.64418383 -7.05184571 14.30330285 -8 16 C-8.33 15.34 -8.66 14.68 -9 14 C-7.11568628 8.5673033 -3.80237433 4.22486037 0 0 Z " fill="#4769CE" transform="translate(164,277)"/>
<path d="M0 0 C0.66 0 1.32 0 2 0 C2 5.61 2 11.22 2 17 C1.01 16.67 0.02 16.34 -1 16 C-0.67 10.72 -0.34 5.44 0 0 Z " fill="#E4F1FE" transform="translate(153,292)"/>
<path d="M0 0 C3.3 0 6.6 0 10 0 C9.67 0.99 9.34 1.98 9 3 C5.625 3.1875 5.625 3.1875 2 3 C1.34 2.01 0.68 1.02 0 0 Z " fill="#E5E5E5" transform="translate(715,312)"/>
<path d="M0 0 C0.66 0.33 1.32 0.66 2 1 C1.34 2.32 0.68 3.64 0 5 C-0.66 5 -1.32 5 -2 5 C-2.33 5.66 -2.66 6.32 -3 7 C-3.99 7.33 -4.98 7.66 -6 8 C-4.55746343 4.63408134 -2.66735273 2.48952921 0 0 Z " fill="#4366D0" transform="translate(197,241)"/>
<path d="M0 0 C1.3921875 0.2784375 1.3921875 0.2784375 2.8125 0.5625 C6.01343771 1.24123881 6.01343771 1.24123881 9 0 C8.67 0.99 8.34 1.98 8 3 C6.02 3 4.04 3 2 3 C1.67 3.66 1.34 4.32 1 5 C0.67 3.35 0.34 1.7 0 0 Z " fill="#5C75CB" transform="translate(211,306)"/>
<path d="M0 0 C0.66 0.33 1.32 0.66 2 1 C0.8553125 1.8971875 0.8553125 1.8971875 -0.3125 2.8125 C-2.3483575 4.46959332 -4.1978279 6.10297674 -6 8 C-6 5 -6 5 -4.6875 3.61328125 C-3.125 2.40885417 -1.5625 1.20442708 0 0 Z " fill="#424242" transform="translate(327,255)"/>
<path d="M0 0 C2.31 0.33 4.62 0.66 7 1 C6.01 1.495 6.01 1.495 5 2 C5 2.66 5 3.32 5 4 C3.0625 3.6875 3.0625 3.6875 1 3 C0.67 2.01 0.34 1.02 0 0 Z " fill="#E3EEFA" transform="translate(176,332)"/>
</svg>
