<svg width="768" height="256" version="1.1" xmlns="http://www.w3.org/2000/svg" desc="Created with imagetracer.js version 1.2.6" ><path fill="rgb(0,0,0)" stroke="rgb(0,0,0)" stroke-width="1" opacity="0" d="M 0 0 L 504.5 0 L 505 0.5 L 505 121.5 L 505.5 122 L 518 122 L 519 119.5 L 519.5 110 L 526.5 118 L 540.5 124 L 553.5 124 L 560.5 122 L 572 115 L 580 103.5 L 584 92.5 L 585 73.5 L 581 57.5 L 575 47 L 572 45.5 Q 572.8 43.3 570.5 44 Q 562 34 540.5 37 Q 528.3 40.3 522 49.5 L 521.5 51 L 521 0 L 768 0 L 768 137 Q 750 135.6 744 147.5 L 741.5 153 L 740 138 L 727.5 138 L 726 139.5 L 727 142.5 L 727 222 L 741.5 222 L 743 220.5 L 743 169.5 Q 744.8 159.8 751.5 155 Q 756.9 150.2 768 152 L 768 256 L 559 256 L 559.5 212 Q 567.8 225.2 590.5 224 Q 607.3 220.8 615 208.5 L 622 192.5 L 623 171.5 L 621 162.5 L 617 153.5 L 606.5 142 Q 597.7 134.3 578.5 137 Q 567.4 139.9 561 147.5 L 558.5 152 L 557 138 L 544.5 138 L 543 139.5 Q 541.8 144.3 544 145.5 L 544 256 L 0.5 256 L 0 255.5 L 0 115.5 L 1 115.5 L 53 207 L 55.5 208 L 164.5 208 L 216 120.5 L 220 110.5 L 169 21.5 L 164.5 16 L 54.5 16 L 53 17.5 L 18 77.5 L 15 83.5 L 15 86.5 L 16 89 L 22.5 90 L 27 84.5 L 56 32 Q 58.7 30.9 58 33.5 L 67 49.5 L 34 107 L 2.5 107 L 0.5 109 L 0 0 Z M 271 6 L 295 105 L 296 106 L 290 104 L 271 104 Q 260 106 253 112 Q 245 118 242 129 Q 240 145 247 153 L 260 163 L 286 175 Q 292 179 294 188 L 294 194 L 291 202 L 282 209 L 272 211 Q 254 211 244 203 L 240 216 L 245 219 L 254 222 L 265 223 L 266 224 Q 287 225 299 215 Q 308 208 310 195 Q 311 179 304 171 L 295 162 L 276 154 L 264 147 L 258 139 Q 257 128 261 124 Q 265 118 273 117 Q 291 115 300 122 L 316 122 L 319 114 L 342 28 L 348 62 L 363 121 L 364 122 L 380 122 L 389 87 L 401 48 L 402 41 L 412 9 L 412 6 L 396 6 L 383 54 L 383 58 Q 376 76 373 99 L 372 100 L 368 80 L 352 16 L 351 8 L 350 6 L 333 6 L 333 11 L 320 56 L 320 60 L 318 64 L 310 101 L 307 95 L 307 90 L 288 8 L 287 6 L 271 6 Z M 445 37 Q 435 39 430 44 Q 417 53 414 72 Q 411 100 424 112 Q 423 114 426 113 L 426 115 Q 433 121 446 124 L 467 124 L 482 120 L 483 119 L 480 107 L 468 111 L 449 111 L 439 106 Q 431 100 429 89 Q 428 84 430 84 L 487 84 L 487 67 Q 485 56 480 50 Q 471 34 445 37 Z M 487 136 L 486 137 L 474 138 L 461 143 L 464 154 L 477 149 Q 482 151 484 148 L 490 148 L 497 150 L 504 160 L 505 169 L 502 168 L 501 169 L 490 169 L 480 171 L 467 177 Q 458 183 455 195 L 456 209 L 461 217 L 476 224 Q 493 225 502 217 L 506 212 L 507 216 L 507 222 L 521 222 L 521 211 L 520 210 L 520 161 L 514 147 L 505 139 L 499 137 L 487 136 Z M 672 136 L 662 138 L 650 145 Q 643 151 639 160 L 635 176 L 636 194 Q 639 205 646 213 L 659 221 L 671 224 L 692 223 L 704 219 L 702 207 L 689 211 Q 671 213 662 207 Q 655 203 652 195 L 650 183 L 708 183 L 709 182 L 709 171 L 707 161 L 700 148 Q 695 141 687 138 L 672 136 Z M 359 137 Q 348 139 341 145 Q 328 154 324 173 L 324 190 L 325 195 L 331 208 L 341 217 L 351 222 L 361 224 L 379 223 L 389 219 L 387 207 L 375 211 L 364 211 L 353 207 Q 343 200 340 187 L 340 174 L 346 160 L 358 151 L 368 149 L 378 150 L 387 153 L 390 142 L 379 137 L 359 137 Z M 438 137 L 430 141 Q 423 146 421 154 L 420 140 L 419 138 L 406 138 L 406 222 L 407 222 L 422 222 L 422 171 L 428 158 Q 433 150 448 152 L 448 137 L 438 137 Z " /><path fill="rgb(0,0,0)" stroke="rgb(0,0,0)" stroke-width="1" opacity="0" d="M 66.5 26 L 153 26.5 L 142.5 44 L 76.5 44 L 76 42.5 L 66.5 26 Z " /><path fill="rgb(0,0,0)" stroke="rgb(0,0,0)" stroke-width="1" opacity="0" d="M 162.5 32 L 205 107 L 186.5 107 L 184 104.5 L 170 78.5 L 163.5 70 Q 158 69 157 72.5 L 156 75.5 L 174 106.5 L 154.5 107 L 136 76.5 L 162.5 32 Z " /><path fill="rgb(0,0,0)" stroke="rgb(0,0,0)" stroke-width="1" opacity="0" d="M 449.5 48 Q 463.4 47.6 468 56.5 Q 472.4 62.3 472 72 L 429 71.5 Q 431.3 57.8 440.5 51 L 449.5 48 Z " /><path fill="rgb(0,0,0)" stroke="rgb(0,0,0)" stroke-width="1" opacity="0" d="M 541.5 49 Q 558.3 49.3 564 60.5 L 568 71.5 L 568 88.5 Q 565.6 100.6 557.5 107 Q 551.8 112.8 538.5 111 Q 529.4 108.5 525 101.5 L 521 92.5 L 521 69.5 Q 523.4 59.4 530.5 54 L 541.5 49 Z " /><path fill="rgb(0,0,0)" stroke="rgb(0,0,0)" stroke-width="1" opacity="0" d="M 82.5 54 L 137 54.5 L 128 71 L 92.5 71 L 91 69.5 L 82.5 54 Z " /><path fill="rgb(0,0,0)" stroke="rgb(0,0,0)" stroke-width="1" opacity="0" d="M 72 60 Q 74.7 58.9 74 61.5 L 83 76.5 L 66 107 L 46.5 107 L 46 105.5 L 72 60 Z " /><path fill="rgb(0,0,0)" stroke="rgb(0,0,0)" stroke-width="1" opacity="0" d="M 99 82 L 121 82.5 L 109.5 101 L 99 82 Z " /><path fill="rgb(0,0,0)" stroke="rgb(0,0,0)" stroke-width="1" opacity="0" d="M 88 88 L 91 89.5 L 100 107 L 78.5 107 L 78 105.5 L 88 88 Z " /><path fill="rgb(0,0,0)" stroke="rgb(0,0,0)" stroke-width="1" opacity="0" d="M 129 88 L 132 89.5 L 141 107 L 119 106.5 L 129 88 Z " /><path fill="rgb(0,0,0)" stroke="rgb(0,0,0)" stroke-width="1" opacity="0" d="M 14 117 L 33.5 117 L 34 118.5 L 69.5 179 L 71.5 180 L 142.5 180 L 144 181.5 L 153 197.5 L 60.5 198 L 14 117 Z " /><path fill="rgb(0,0,0)" stroke="rgb(0,0,0)" stroke-width="1" opacity="0" d="M 46 117 L 65.5 117 L 66 118.5 L 83 148.5 L 73.5 165 L 48 122.5 L 46 117 Z " /><path fill="rgb(0,0,0)" stroke="rgb(0,0,0)" stroke-width="1" opacity="0" d="M 78 117 L 101 117.5 L 89.5 137 L 78 117 Z " /><path fill="rgb(0,0,0)" stroke="rgb(0,0,0)" stroke-width="1" opacity="0" d="M 119 117 L 142 117.5 L 130.5 137 L 119 117 Z " /><path fill="rgb(0,0,0)" stroke="rgb(0,0,0)" stroke-width="1" opacity="0" d="M 154.5 117 L 174 117.5 L 146.5 164 Q 144.3 164.8 145 162.5 L 136 147.5 L 154.5 117 Z " /><path fill="rgb(0,0,0)" stroke="rgb(0,0,0)" stroke-width="1" opacity="0" d="M 186.5 117 L 206 117.5 L 162.5 192 L 152 175.5 L 186.5 117 Z " /><path fill="rgb(0,0,0)" stroke="rgb(0,0,0)" stroke-width="1" opacity="0" d="M 109.5 123 L 137 169.5 L 83.5 170 L 84 168.5 L 109.5 123 Z " /><path fill="rgb(0,0,0)" stroke="rgb(0,0,0)" stroke-width="1" opacity="0" d="M 668.5 148 Q 685.2 146.3 690 156.5 L 693 162.5 L 694 172 L 651.5 172 Q 650.5 172 651 167.5 Q 653.6 156.6 661.5 151 L 668.5 148 Z " /><path fill="rgb(0,0,0)" stroke="rgb(0,0,0)" stroke-width="1" opacity="0" d="M 579.5 149 L 590.5 150 Q 598 153 602 159.5 L 607 172.5 L 607 186.5 L 603 199.5 L 595.5 208 Q 589.3 212.8 576.5 211 Q 568.5 208.5 564 202.5 L 560 194.5 L 560 180.5 L 559 179.5 L 559 177.5 Q 559.1 161.1 568.5 154 L 579.5 149 Z " /><path fill="rgb(0,0,0)" stroke="rgb(0,0,0)" stroke-width="1" opacity="0" d="M 492.5 180 L 505 180 L 505 197.5 Q 502.8 204.3 497.5 208 Q 492.4 212.9 481.5 212 Q 475.8 210.8 473 206.5 Q 469.5 202.5 471 193.5 L 477.5 185 L 483.5 182 L 492.5 180 Z " /><path fill="rgb(67,81,98)" stroke="rgb(67,81,98)" stroke-width="1" opacity="0.9333333333333333" d="M 505 0 L 520.5 0 L 521 0.5 L 521 50.5 L 522 50.5 L 529.5 42 L 540.5 37 L 557.5 37 Q 570.3 40.7 577 50.5 L 584 66.5 L 585 85.5 L 581 101.5 L 572 115 L 557.5 123 Q 550.8 125.3 540.5 124 Q 527.6 121.4 521 112.5 L 519.5 110 L 519 119.5 L 518 122 L 505.5 122 L 505 121.5 L 505 0 Z M 542 49 L 531 54 Q 523 59 521 70 L 521 93 L 525 102 Q 529 109 539 111 Q 551 113 557 108 Q 566 102 568 89 L 568 72 L 564 61 Q 558 49 542 49 Z " /><path fill="rgb(67,81,98)" stroke="rgb(67,81,98)" stroke-width="1" opacity="0.9333333333333333" d="M 271 6 L 286.5 6 L 288 7.5 L 307 89.5 L 307 94.5 L 309.5 101 L 318 63.5 L 320 59.5 L 333 7.5 L 334.5 6 L 349.5 6 L 351 7.5 L 352 15.5 L 368 79.5 L 371.5 100 L 373 98.5 L 381 61.5 L 383 57.5 L 396 6 L 411.5 6 L 412 8.5 L 402 40.5 L 401 47.5 L 389 86.5 L 380 122 L 363.5 122 L 363 120.5 L 348 61.5 L 341.5 28 L 319 113.5 L 315.5 122 L 300.5 122 L 300 118.5 L 295 104.5 L 271 6 Z " /><path fill="rgb(67,81,98)" stroke="rgb(67,81,98)" stroke-width="1" opacity="0.9333333333333333" d="M 444.5 37 Q 471.3 34.2 480 49.5 Q 485.1 56.4 487 66.5 L 487 84 L 429.5 84 Q 428.5 84 429 88.5 Q 431.2 99.8 438.5 106 L 448.5 111 L 468.5 111 L 479.5 107 L 483 118.5 L 481.5 120 L 466.5 124 L 445.5 124 Q 433.5 121.4 426 115 L 426 113 Q 423.3 114.1 424 111.5 Q 411 99.5 414 71.5 Q 417.3 53.3 429.5 44 Q 435.4 38.9 444.5 37 Z M 450 48 L 441 51 Q 431 58 429 72 L 472 72 Q 472 62 468 57 Q 463 48 450 48 Z " /><path fill="rgb(1,175,190)" stroke="rgb(1,175,190)" stroke-width="1" opacity="0.36470588235294116" d="M 54.5 16 L 164.5 16 L 167 18.5 L 171 25.5 L 169 24.5 L 164.5 17 L 54.5 17 L 53.5 18 L 54.5 16 Z " /><path fill="rgb(1,175,190)" stroke="rgb(1,175,190)" stroke-width="1" opacity="0.36470588235294116" d="M 52.5 19 L 52 20.5 L 42.5 37 L 43 35.5 L 52.5 19 Z " /><path fill="rgb(1,175,190)" stroke="rgb(1,175,190)" stroke-width="1" opacity="0.36470588235294116" d="M 65 25 L 153.5 25 L 154 26.5 L 143.5 44 L 144 42.5 L 153 26.5 L 66.5 26 L 66.5 28 L 65 25 Z " /><path fill="rgb(1,175,190)" stroke="rgb(1,175,190)" stroke-width="1" opacity="0.36470588235294116" d="M 171.5 27 L 182 44.5 L 180 43.5 L 171.5 27 Z " /><path fill="rgb(1,175,190)" stroke="rgb(1,175,190)" stroke-width="1" opacity="0.36470588235294116" d="M 67.5 29 L 76 43.5 L 75 43.5 L 67.5 29 Z " /><path fill="rgb(1,175,190)" stroke="rgb(1,175,190)" stroke-width="1" opacity="0.36470588235294116" d="M 56.5 31 L 59 32.5 L 61 36.5 L 59 35.5 L 58 32 L 56.5 31 Z " /><path fill="rgb(1,175,190)" stroke="rgb(1,175,190)" stroke-width="1" opacity="0.36470588235294116" d="M 161 31 L 164 32.5 L 169 41.5 L 167 40.5 L 162.5 32 L 156.5 41 L 157 39.5 L 161 31 Z " /><path fill="rgb(1,175,190)" stroke="rgb(1,175,190)" stroke-width="1" opacity="0.36470588235294116" d="M 55.5 33 L 55 34.5 L 52.5 39 L 53 37.5 L 55.5 33 Z " /><path fill="rgb(1,175,190)" stroke="rgb(1,175,190)" stroke-width="1" opacity="0.36470588235294116" d="M 41.5 38 L 41 39.5 L 38.5 44 L 39 42.5 L 41.5 38 Z " /><path fill="rgb(1,175,190)" stroke="rgb(1,175,190)" stroke-width="1" opacity="0.36470588235294116" d="M 61.5 38 L 68 48.5 L 66 47.5 L 61.5 38 Z " /><path fill="rgb(1,175,190)" stroke="rgb(1,175,190)" stroke-width="1" opacity="0.36470588235294116" d="M 51.5 40 L 51 41.5 L 37.5 65 L 38 63.5 L 51.5 40 Z " /><path fill="rgb(1,175,190)" stroke="rgb(1,175,190)" stroke-width="1" opacity="0.36470588235294116" d="M 155.5 42 L 155 43.5 L 152.5 48 L 153 46.5 L 155.5 42 Z " /><path fill="rgb(1,175,190)" stroke="rgb(1,175,190)" stroke-width="1" opacity="0.36470588235294116" d="M 169.5 43 L 173 48.5 L 171 47.5 L 169.5 43 Z " /><path fill="rgb(1,175,190)" stroke="rgb(1,175,190)" stroke-width="1" opacity="0.36470588235294116" d="M 37.5 45 L 37 46.5 L 34.5 51 L 35 49.5 L 37.5 45 Z " /><path fill="rgb(1,175,190)" stroke="rgb(1,175,190)" stroke-width="1" opacity="0.36470588235294116" d="M 182.5 46 L 186 51.5 L 184 50.5 L 182.5 46 Z " /><path fill="rgb(1,175,190)" stroke="rgb(1,175,190)" stroke-width="1" opacity="0.36470588235294116" d="M 151.5 49 L 151 50.5 L 148.5 55 L 149 53.5 L 151.5 49 Z " /><path fill="rgb(1,175,190)" stroke="rgb(1,175,190)" stroke-width="1" opacity="0.36470588235294116" d="M 66.5 50 L 66 51.5 L 63.5 56 L 64 54.5 L 66.5 50 Z " /><path fill="rgb(1,175,190)" stroke="rgb(1,175,190)" stroke-width="1" opacity="0.36470588235294116" d="M 173.5 50 L 180 60.5 L 178 59.5 L 173.5 50 Z " /><path fill="rgb(1,175,190)" stroke="rgb(1,175,190)" stroke-width="1" opacity="0.36470588235294116" d="M 33.5 52 L 33 53.5 L 27.5 63 L 28 61.5 L 33.5 52 Z " /><path fill="rgb(1,175,190)" stroke="rgb(1,175,190)" stroke-width="1" opacity="0.36470588235294116" d="M 81.5 53 L 137.5 53 L 138 54.5 L 127.5 72 L 91.5 72 L 91 70.5 L 82 55.5 L 84 56.5 L 92.5 71 L 127.5 71 L 128 69.5 L 137 54.5 L 81.5 54 L 81.5 53 Z " /><path fill="rgb(1,175,190)" stroke="rgb(1,175,190)" stroke-width="1" opacity="0.36470588235294116" d="M 186.5 53 L 197 70.5 L 195 69.5 L 186.5 53 Z " /><path fill="rgb(1,175,190)" stroke="rgb(1,175,190)" stroke-width="1" opacity="0.36470588235294116" d="M 147.5 56 L 147 57.5 L 144.5 62 L 145 60.5 L 147.5 56 Z " /><path fill="rgb(1,175,190)" stroke="rgb(1,175,190)" stroke-width="1" opacity="0.36470588235294116" d="M 62.5 57 L 62 58.5 L 52.5 75 L 53 73.5 L 62.5 57 Z " /><path fill="rgb(1,175,190)" stroke="rgb(1,175,190)" stroke-width="1" opacity="0.36470588235294116" d="M 73.5 58 L 76 62.5 L 74 61.5 Q 74.7 58.9 72 60 L 62.5 77 L 63 75.5 L 73.5 58 Z " /><path fill="rgb(1,175,190)" stroke="rgb(1,175,190)" stroke-width="1" opacity="0.36470588235294116" d="M 180.5 62 L 184 67.5 L 182 66.5 L 180.5 62 Z " /><path fill="rgb(1,175,190)" stroke="rgb(1,175,190)" stroke-width="1" opacity="0.36470588235294116" d="M 143.5 63 L 143 64.5 L 140.5 69 L 141 67.5 L 143.5 63 Z " /><path fill="rgb(1,175,190)" stroke="rgb(1,175,190)" stroke-width="1" opacity="0.36470588235294116" d="M 26.5 64 L 26 65.5 L 23.5 70 L 24 68.5 L 26.5 64 Z " /><path fill="rgb(1,175,190)" stroke="rgb(1,175,190)" stroke-width="1" opacity="0.36470588235294116" d="M 76.5 64 L 80 69.5 L 78 68.5 L 76.5 64 Z " /><path fill="rgb(1,175,190)" stroke="rgb(1,175,190)" stroke-width="1" opacity="0.36470588235294116" d="M 36.5 66 L 36 67.5 L 33.5 72 L 34 70.5 L 36.5 66 Z " /><path fill="rgb(1,175,190)" stroke="rgb(1,175,190)" stroke-width="1" opacity="0.36470588235294116" d="M 184.5 69 L 188 74.5 L 186 73.5 L 184.5 69 Z " /><path fill="rgb(1,175,190)" stroke="rgb(1,175,190)" stroke-width="1" opacity="0.36470588235294116" d="M 139.5 70 L 139 71.5 L 136.5 76 L 137 74.5 L 139.5 70 Z " /><path fill="rgb(1,175,190)" stroke="rgb(1,175,190)" stroke-width="1" opacity="0.36470588235294116" d="M 159.5 70 Q 166 69 167 73.5 L 176 89.5 L 174 88.5 L 163.5 71 Q 158.5 70 157.5 73 L 159.5 70 Z " /><path fill="rgb(1,175,190)" stroke="rgb(1,175,190)" stroke-width="1" opacity="0.36470588235294116" d="M 22.5 71 L 22 72.5 L 16 83.5 L 16 86.5 L 17 88.5 L 16 88.5 L 15 83.5 L 22.5 71 Z " /><path fill="rgb(1,175,190)" stroke="rgb(1,175,190)" stroke-width="1" opacity="0.36470588235294116" d="M 80.5 71 L 84 76.5 L 73.5 94 L 74 92.5 L 83 76.5 L 80.5 71 Z " /><path fill="rgb(1,175,190)" stroke="rgb(1,175,190)" stroke-width="1" opacity="0.36470588235294116" d="M 197.5 72 L 201 77.5 L 199 76.5 L 197.5 72 Z " /><path fill="rgb(1,175,190)" stroke="rgb(1,175,190)" stroke-width="1" opacity="0.36470588235294116" d="M 32.5 73 L 32 74.5 L 22.5 90 L 18 89.5 Q 22.6 90.1 24 87.5 L 32.5 73 Z " /><path fill="rgb(1,175,190)" stroke="rgb(1,175,190)" stroke-width="1" opacity="0.36470588235294116" d="M 51.5 76 L 51 77.5 L 41.5 94 L 42 92.5 L 51.5 76 Z " /><path fill="rgb(1,175,190)" stroke="rgb(1,175,190)" stroke-width="1" opacity="0.36470588235294116" d="M 188.5 76 L 199 93.5 L 197 92.5 L 188.5 76 Z " /><path fill="rgb(1,175,190)" stroke="rgb(1,175,190)" stroke-width="1" opacity="0.36470588235294116" d="M 157.5 77 L 166 91.5 L 164 90.5 L 157 78.5 L 157.5 77 Z " /><path fill="rgb(1,175,190)" stroke="rgb(1,175,190)" stroke-width="1" opacity="0.36470588235294116" d="M 61.5 78 L 61 79.5 L 58.5 84 L 59 82.5 L 61.5 78 Z " /><path fill="rgb(1,175,190)" stroke="rgb(1,175,190)" stroke-width="1" opacity="0.36470588235294116" d="M 137.5 79 L 148 96.5 L 146 95.5 L 137.5 79 Z " /><path fill="rgb(1,175,190)" stroke="rgb(1,175,190)" stroke-width="1" opacity="0.36470588235294116" d="M 201.5 79 L 212 96.5 L 210 95.5 L 201.5 79 Z " /><path fill="rgb(1,175,190)" stroke="rgb(1,175,190)" stroke-width="1" opacity="0.36470588235294116" d="M 97.5 81 L 121.5 81 L 122 82.5 L 119.5 86 L 120 84.5 L 121 82.5 L 99 82 L 104 91.5 L 102 90.5 L 97.5 81 Z " /><path fill="rgb(1,175,190)" stroke="rgb(1,175,190)" stroke-width="1" opacity="0.36470588235294116" d="M 57.5 85 L 57 86.5 L 54.5 91 L 55 89.5 L 57.5 85 Z " /><path fill="rgb(1,175,190)" stroke="rgb(1,175,190)" stroke-width="1" opacity="0.36470588235294116" d="M 88 86 Q 90.7 84.9 90 87.5 L 90.5 89 L 88 88 L 86.5 91 L 87 89.5 L 88 86 Z " /><path fill="rgb(1,175,190)" stroke="rgb(1,175,190)" stroke-width="1" opacity="0.36470588235294116" d="M 130.5 86 L 132 88.5 L 130.5 88 L 129 87.5 L 130.5 86 Z " /><path fill="rgb(1,175,190)" stroke="rgb(1,175,190)" stroke-width="1" opacity="0.36470588235294116" d="M 118.5 87 L 118 88.5 L 115.5 93 L 116 91.5 L 118.5 87 Z " /><path fill="rgb(1,175,190)" stroke="rgb(1,175,190)" stroke-width="1" opacity="0.36470588235294116" d="M 128.5 89 L 128 90.5 L 119 106.5 L 141 107 L 139 102.5 L 141 103.5 L 142 108 L 118.5 108 L 118 106.5 L 128.5 89 Z " /><path fill="rgb(1,175,190)" stroke="rgb(1,175,190)" stroke-width="1" opacity="0.36470588235294116" d="M 91.5 90 L 95 95.5 L 93 94.5 L 91.5 90 Z " /><path fill="rgb(1,175,190)" stroke="rgb(1,175,190)" stroke-width="1" opacity="0.36470588235294116" d="M 132.5 90 L 139 100.5 L 137 99.5 L 132.5 90 Z " /><path fill="rgb(1,175,190)" stroke="rgb(1,175,190)" stroke-width="1" opacity="0.36470588235294116" d="M 176.5 91 L 180 96.5 L 178 95.5 L 176.5 91 Z " /><path fill="rgb(1,175,190)" stroke="rgb(1,175,190)" stroke-width="1" opacity="0.36470588235294116" d="M 53.5 92 L 53 93.5 L 46 107 L 65.5 107 L 66 105.5 L 68.5 102 L 68 103.5 L 65.5 108 L 45.5 108 L 45 105.5 L 53.5 92 Z " /><path fill="rgb(1,175,190)" stroke="rgb(1,175,190)" stroke-width="1" opacity="0.36470588235294116" d="M 85.5 92 L 85 93.5 L 78 107 L 99.5 107 L 100 105.5 L 95 97.5 L 97 98.5 L 101 108 L 77.5 108 L 77 105.5 L 85.5 92 Z " /><path fill="rgb(1,175,190)" stroke="rgb(1,175,190)" stroke-width="1" opacity="0.36470588235294116" d="M 104.5 93 L 108 98.5 L 106 97.5 L 104.5 93 Z " /><path fill="rgb(1,175,190)" stroke="rgb(1,175,190)" stroke-width="1" opacity="0.36470588235294116" d="M 166.5 93 L 170 98.5 L 168 97.5 L 166.5 93 Z " /><path fill="rgb(1,175,190)" stroke="rgb(1,175,190)" stroke-width="1" opacity="0.36470588235294116" d="M 114.5 94 L 114 95.5 L 109.5 103 L 108 100.5 Q 110 102.2 112 98.5 L 114.5 94 Z " /><path fill="rgb(1,175,190)" stroke="rgb(1,175,190)" stroke-width="1" opacity="0.36470588235294116" d="M 40.5 95 L 40 96.5 L 37.5 101 L 38 99.5 L 40.5 95 Z " /><path fill="rgb(1,175,190)" stroke="rgb(1,175,190)" stroke-width="1" opacity="0.36470588235294116" d="M 72.5 95 L 72 96.5 L 69.5 101 L 70 99.5 L 72.5 95 Z " /><path fill="rgb(1,175,190)" stroke="rgb(1,175,190)" stroke-width="1" opacity="0.36470588235294116" d="M 199.5 95 L 203 100.5 L 201 99.5 L 199.5 95 Z " /><path fill="rgb(1,175,190)" stroke="rgb(1,175,190)" stroke-width="1" opacity="0.36470588235294116" d="M 148.5 98 L 152 103.5 L 150 102.5 L 148.5 98 Z " /><path fill="rgb(1,175,190)" stroke="rgb(1,175,190)" stroke-width="1" opacity="0.36470588235294116" d="M 180.5 98 L 184 103.5 L 182 102.5 L 180.5 98 Z " /><path fill="rgb(1,175,190)" stroke="rgb(1,175,190)" stroke-width="1" opacity="0.36470588235294116" d="M 212.5 98 L 220 111.5 L 219 111.5 L 212.5 98 Z " /><path fill="rgb(1,175,190)" stroke="rgb(1,175,190)" stroke-width="1" opacity="0.36470588235294116" d="M 170.5 100 L 174 105.5 L 172 104.5 L 170.5 100 Z " /><path fill="rgb(1,175,190)" stroke="rgb(1,175,190)" stroke-width="1" opacity="0.36470588235294116" d="M 36.5 102 L 36 103.5 L 33.5 108 L 2.5 108 L 0.5 110 L 2.5 107 L 33.5 107 L 34 105.5 L 36.5 102 Z " /><path fill="rgb(1,175,190)" stroke="rgb(1,175,190)" stroke-width="1" opacity="0.36470588235294116" d="M 203.5 102 L 206 108 L 186.5 108 L 184 105.5 L 186.5 107 L 204.5 107 L 205 105.5 L 203.5 102 Z " /><path fill="rgb(1,175,190)" stroke="rgb(1,175,190)" stroke-width="1" opacity="0.36470588235294116" d="M 152.5 105 L 154.5 107 L 174 107.5 L 154.5 108 L 152.5 105 Z " /><path fill="rgb(1,175,190)" stroke="rgb(1,175,190)" stroke-width="1" opacity="0.36470588235294116" d="M 0.5 114 L 4 119.5 L 2 118.5 L 0.5 114 Z " /><path fill="rgb(1,175,190)" stroke="rgb(1,175,190)" stroke-width="1" opacity="0.36470588235294116" d="M 13 116 L 33.5 116 L 35 117.5 L 44 133.5 L 42 132.5 L 34 117 L 14.5 117 L 14 118.5 L 22 131.5 L 20 130.5 L 13 118.5 L 13 116 Z " /><path fill="rgb(1,175,190)" stroke="rgb(1,175,190)" stroke-width="1" opacity="0.36470588235294116" d="M 45 116 L 65 116.5 L 46 117 L 48 121.5 L 46 120.5 L 45 116 Z " /><path fill="rgb(1,175,190)" stroke="rgb(1,175,190)" stroke-width="1" opacity="0.36470588235294116" d="M 77 116 L 100.5 116 L 102 117.5 L 96.5 126 L 97 124.5 L 101 117.5 L 78 117 L 79 119.5 L 77 118.5 L 77 116 Z " /><path fill="rgb(1,175,190)" stroke="rgb(1,175,190)" stroke-width="1" opacity="0.36470588235294116" d="M 118 116 L 142 116.5 L 119 117 L 123 124.5 L 121 123.5 L 118 116 Z " /><path fill="rgb(1,175,190)" stroke="rgb(1,175,190)" stroke-width="1" opacity="0.36470588235294116" d="M 154.5 116 L 174 116.5 L 154.5 117 L 152.5 119 L 154.5 116 Z " /><path fill="rgb(1,175,190)" stroke="rgb(1,175,190)" stroke-width="1" opacity="0.36470588235294116" d="M 185 116 L 207 116.5 L 186.5 117 L 184.5 119 L 185 117.5 L 185 116 Z " /><path fill="rgb(1,175,190)" stroke="rgb(1,175,190)" stroke-width="1" opacity="0.36470588235294116" d="M 217.5 116 L 217 117.5 L 207.5 134 L 208 132.5 L 217.5 116 Z " /><path fill="rgb(1,175,190)" stroke="rgb(1,175,190)" stroke-width="1" opacity="0.36470588235294116" d="M 66.5 117 L 73 128.5 L 71 127.5 L 66 118.5 L 66.5 117 Z " /><path fill="rgb(1,175,190)" stroke="rgb(1,175,190)" stroke-width="1" opacity="0.36470588235294116" d="M 141.5 118 L 141 119.5 L 131.5 136 L 132 134.5 L 141.5 118 Z " /><path fill="rgb(1,175,190)" stroke="rgb(1,175,190)" stroke-width="1" opacity="0.36470588235294116" d="M 173.5 118 L 173 119.5 L 167.5 129 L 168 127.5 L 173.5 118 Z " /><path fill="rgb(1,175,190)" stroke="rgb(1,175,190)" stroke-width="1" opacity="0.36470588235294116" d="M 205.5 118 L 205 119.5 L 202.5 124 L 203 122.5 L 205.5 118 Z " /><path fill="rgb(1,175,190)" stroke="rgb(1,175,190)" stroke-width="1" opacity="0.36470588235294116" d="M 151.5 120 L 151 121.5 L 141.5 138 L 142 136.5 L 151.5 120 Z " /><path fill="rgb(1,175,190)" stroke="rgb(1,175,190)" stroke-width="1" opacity="0.36470588235294116" d="M 183.5 120 L 183 121.5 L 180.5 126 L 181 124.5 L 183.5 120 Z " /><path fill="rgb(1,175,190)" stroke="rgb(1,175,190)" stroke-width="1" opacity="0.36470588235294116" d="M 4.5 121 L 8 126.5 L 6 125.5 L 4.5 121 Z " /><path fill="rgb(1,175,190)" stroke="rgb(1,175,190)" stroke-width="1" opacity="0.36470588235294116" d="M 79.5 121 L 89.5 137 L 91.5 134 L 91 135.5 L 89.5 138 Q 87.3 138.8 88 136.5 L 79.5 121 Z " /><path fill="rgb(1,175,190)" stroke="rgb(1,175,190)" stroke-width="1" opacity="0.36470588235294116" d="M 109.5 122 Q 111.8 121.3 111 123.5 L 117 133.5 L 115 132.5 L 109.5 123 L 95.5 147 L 96 145.5 L 109.5 122 Z " /><path fill="rgb(1,175,190)" stroke="rgb(1,175,190)" stroke-width="1" opacity="0.36470588235294116" d="M 48.5 123 L 55 133.5 L 53 132.5 L 48.5 123 Z " /><path fill="rgb(1,175,190)" stroke="rgb(1,175,190)" stroke-width="1" opacity="0.36470588235294116" d="M 201.5 125 L 201 126.5 L 195.5 136 L 196 134.5 L 201.5 125 Z " /><path fill="rgb(1,175,190)" stroke="rgb(1,175,190)" stroke-width="1" opacity="0.36470588235294116" d="M 123.5 126 L 131 137.5 L 129 138 L 123.5 126 Z " /><path fill="rgb(1,175,190)" stroke="rgb(1,175,190)" stroke-width="1" opacity="0.36470588235294116" d="M 95.5 127 L 95 128.5 L 92.5 133 L 93 131.5 L 95.5 127 Z " /><path fill="rgb(1,175,190)" stroke="rgb(1,175,190)" stroke-width="1" opacity="0.36470588235294116" d="M 179.5 127 L 179 128.5 L 173.5 138 L 174 136.5 L 179.5 127 Z " /><path fill="rgb(1,175,190)" stroke="rgb(1,175,190)" stroke-width="1" opacity="0.36470588235294116" d="M 8.5 128 L 15 138.5 L 13 137.5 L 8.5 128 Z " /><path fill="rgb(1,175,190)" stroke="rgb(1,175,190)" stroke-width="1" opacity="0.36470588235294116" d="M 73.5 130 L 77 135.5 L 75 134.5 L 73.5 130 Z " /><path fill="rgb(1,175,190)" stroke="rgb(1,175,190)" stroke-width="1" opacity="0.36470588235294116" d="M 166.5 130 L 166 131.5 L 163.5 136 L 164 134.5 L 166.5 130 Z " /><path fill="rgb(1,175,190)" stroke="rgb(1,175,190)" stroke-width="1" opacity="0.36470588235294116" d="M 22.5 133 L 26 138.5 L 24 137.5 L 22.5 133 Z " /><path fill="rgb(1,175,190)" stroke="rgb(1,175,190)" stroke-width="1" opacity="0.36470588235294116" d="M 44.5 135 L 51 145.5 L 49 144.5 L 44.5 135 Z " /><path fill="rgb(1,175,190)" stroke="rgb(1,175,190)" stroke-width="1" opacity="0.36470588235294116" d="M 55.5 135 L 59 140.5 L 57 139.5 L 55.5 135 Z " /><path fill="rgb(1,175,190)" stroke="rgb(1,175,190)" stroke-width="1" opacity="0.36470588235294116" d="M 117.5 135 L 121 140.5 L 119 139.5 L 117.5 135 Z " /><path fill="rgb(1,175,190)" stroke="rgb(1,175,190)" stroke-width="1" opacity="0.36470588235294116" d="M 206.5 135 L 206 136.5 L 203.5 141 L 204 139.5 L 206.5 135 Z " /><path fill="rgb(1,175,190)" stroke="rgb(1,175,190)" stroke-width="1" opacity="0.36470588235294116" d="M 77.5 137 L 81 142.5 L 79 141.5 L 77.5 137 Z " /><path fill="rgb(1,175,190)" stroke="rgb(1,175,190)" stroke-width="1" opacity="0.36470588235294116" d="M 162.5 137 L 162 138.5 L 152.5 155 L 153 153.5 L 162.5 137 Z " /><path fill="rgb(1,175,190)" stroke="rgb(1,175,190)" stroke-width="1" opacity="0.36470588235294116" d="M 194.5 137 L 194 138.5 L 191.5 143 L 192 141.5 L 194.5 137 Z " /><path fill="rgb(1,175,190)" stroke="rgb(1,175,190)" stroke-width="1" opacity="0.36470588235294116" d="M 140.5 139 L 140 140.5 L 136 147.5 L 138 150.5 L 136 149.5 L 135 147.5 L 140.5 139 Z " /><path fill="rgb(1,175,190)" stroke="rgb(1,175,190)" stroke-width="1" opacity="0.36470588235294116" d="M 172.5 139 L 172 140.5 L 169.5 145 L 170 143.5 L 172.5 139 Z " /><path fill="rgb(1,175,190)" stroke="rgb(1,175,190)" stroke-width="1" opacity="0.36470588235294116" d="M 15.5 140 L 19 145.5 L 17 144.5 L 15.5 140 Z " /><path fill="rgb(1,175,190)" stroke="rgb(1,175,190)" stroke-width="1" opacity="0.36470588235294116" d="M 26.5 140 L 37 157.5 L 35 156.5 L 26.5 140 Z " /><path fill="rgb(1,175,190)" stroke="rgb(1,175,190)" stroke-width="1" opacity="0.36470588235294116" d="M 59.5 142 L 70 159.5 L 68 158.5 L 59.5 142 Z " /><path fill="rgb(1,175,190)" stroke="rgb(1,175,190)" stroke-width="1" opacity="0.36470588235294116" d="M 121.5 142 L 132 159.5 L 130 158.5 L 121.5 142 Z " /><path fill="rgb(1,175,190)" stroke="rgb(1,175,190)" stroke-width="1" opacity="0.36470588235294116" d="M 202.5 142 L 202 143.5 L 192.5 160 L 193 158.5 L 202.5 142 Z " /><path fill="rgb(1,175,190)" stroke="rgb(1,175,190)" stroke-width="1" opacity="0.36470588235294116" d="M 81.5 144 L 84 148.5 L 81.5 152 L 82 150.5 L 83 147.5 L 81.5 144 Z " /><path fill="rgb(1,175,190)" stroke="rgb(1,175,190)" stroke-width="1" opacity="0.36470588235294116" d="M 190.5 144 L 190 145.5 L 180.5 162 L 181 160.5 L 190.5 144 Z " /><path fill="rgb(1,175,190)" stroke="rgb(1,175,190)" stroke-width="1" opacity="0.36470588235294116" d="M 168.5 146 L 168 147.5 L 158.5 164 L 159 162.5 L 168.5 146 Z " /><path fill="rgb(1,175,190)" stroke="rgb(1,175,190)" stroke-width="1" opacity="0.36470588235294116" d="M 19.5 147 L 23 152.5 L 21 151.5 L 19.5 147 Z " /><path fill="rgb(1,175,190)" stroke="rgb(1,175,190)" stroke-width="1" opacity="0.36470588235294116" d="M 51.5 147 L 55 152.5 L 53 151.5 L 51.5 147 Z " /><path fill="rgb(1,175,190)" stroke="rgb(1,175,190)" stroke-width="1" opacity="0.36470588235294116" d="M 94.5 148 L 94 149.5 L 83 169.5 L 136.5 170 L 136.5 168 L 138 171 L 82.5 171 L 82 169.5 L 94.5 148 Z " /><path fill="rgb(1,175,190)" stroke="rgb(1,175,190)" stroke-width="1" opacity="0.36470588235294116" d="M 138.5 152 L 142 157.5 L 140 156.5 L 138.5 152 Z " /><path fill="rgb(1,175,190)" stroke="rgb(1,175,190)" stroke-width="1" opacity="0.36470588235294116" d="M 80.5 153 L 80 154.5 L 77.5 159 L 78 157.5 L 80.5 153 Z " /><path fill="rgb(1,175,190)" stroke="rgb(1,175,190)" stroke-width="1" opacity="0.36470588235294116" d="M 23.5 154 L 30 164.5 L 28 163.5 L 23.5 154 Z " /><path fill="rgb(1,175,190)" stroke="rgb(1,175,190)" stroke-width="1" opacity="0.36470588235294116" d="M 55.5 154 L 62 164.5 L 60 163.5 L 55.5 154 Z " /><path fill="rgb(1,175,190)" stroke="rgb(1,175,190)" stroke-width="1" opacity="0.36470588235294116" d="M 151.5 156 L 151 157.5 L 148.5 162 L 149 160.5 L 151.5 156 Z " /><path fill="rgb(1,175,190)" stroke="rgb(1,175,190)" stroke-width="1" opacity="0.36470588235294116" d="M 37.5 159 L 41 164.5 L 39 163.5 L 37.5 159 Z " /><path fill="rgb(1,175,190)" stroke="rgb(1,175,190)" stroke-width="1" opacity="0.36470588235294116" d="M 142.5 159 L 145 164 L 147.5 163 L 147 164.5 L 146.5 166 L 142.5 159 Z " /><path fill="rgb(1,175,190)" stroke="rgb(1,175,190)" stroke-width="1" opacity="0.36470588235294116" d="M 76.5 160 L 76 161.5 L 73.5 166 Q 71.3 166.8 72 164.5 L 70 161.5 L 72 162.5 L 73.5 165 L 76.5 160 Z " /><path fill="rgb(1,175,190)" stroke="rgb(1,175,190)" stroke-width="1" opacity="0.36470588235294116" d="M 132.5 161 L 136 166.5 L 134 165.5 L 132.5 161 Z " /><path fill="rgb(1,175,190)" stroke="rgb(1,175,190)" stroke-width="1" opacity="0.36470588235294116" d="M 191.5 161 L 191 162.5 L 188.5 167 L 189 165.5 L 191.5 161 Z " /><path fill="rgb(1,175,190)" stroke="rgb(1,175,190)" stroke-width="1" opacity="0.36470588235294116" d="M 179.5 163 L 179 164.5 L 176.5 169 L 177 167.5 L 179.5 163 Z " /><path fill="rgb(1,175,190)" stroke="rgb(1,175,190)" stroke-width="1" opacity="0.36470588235294116" d="M 157.5 165 L 157 166.5 L 154.5 171 L 155 169.5 L 157.5 165 Z " /><path fill="rgb(1,175,190)" stroke="rgb(1,175,190)" stroke-width="1" opacity="0.36470588235294116" d="M 30.5 166 L 34 171.5 L 32 170.5 L 30.5 166 Z " /><path fill="rgb(1,175,190)" stroke="rgb(1,175,190)" stroke-width="1" opacity="0.36470588235294116" d="M 41.5 166 L 52 183.5 L 50 182.5 L 41.5 166 Z " /><path fill="rgb(1,175,190)" stroke="rgb(1,175,190)" stroke-width="1" opacity="0.36470588235294116" d="M 62.5 166 L 66 171.5 L 64 170.5 L 62.5 166 Z " /><path fill="rgb(1,175,190)" stroke="rgb(1,175,190)" stroke-width="1" opacity="0.36470588235294116" d="M 187.5 168 L 187 169.5 L 181.5 179 L 182 177.5 L 187.5 168 Z " /><path fill="rgb(1,175,190)" stroke="rgb(1,175,190)" stroke-width="1" opacity="0.36470588235294116" d="M 175.5 170 L 175 171.5 L 169.5 181 L 170 179.5 L 175.5 170 Z " /><path fill="rgb(1,175,190)" stroke="rgb(1,175,190)" stroke-width="1" opacity="0.36470588235294116" d="M 153.5 172 L 153 173.5 L 152 175.5 L 160 188.5 L 158 187.5 L 151 175.5 L 153.5 172 Z " /><path fill="rgb(1,175,190)" stroke="rgb(1,175,190)" stroke-width="1" opacity="0.36470588235294116" d="M 34.5 173 L 45 190.5 L 43 189.5 L 34.5 173 Z " /><path fill="rgb(1,175,190)" stroke="rgb(1,175,190)" stroke-width="1" opacity="0.36470588235294116" d="M 66.5 173 L 71.5 179 L 73 179.5 L 71.5 180 L 68 177.5 L 66.5 173 Z " /><path fill="rgb(1,175,190)" stroke="rgb(1,175,190)" stroke-width="1" opacity="0.36470588235294116" d="M 143.5 180 L 146 183.5 L 144 182.5 L 143.5 180 Z " /><path fill="rgb(1,175,190)" stroke="rgb(1,175,190)" stroke-width="1" opacity="0.36470588235294116" d="M 180.5 180 L 180 181.5 L 177.5 186 L 178 184.5 L 180.5 180 Z " /><path fill="rgb(1,175,190)" stroke="rgb(1,175,190)" stroke-width="1" opacity="0.36470588235294116" d="M 168.5 182 L 168 183.5 L 165.5 188 L 166 186.5 L 168.5 182 Z " /><path fill="rgb(1,175,190)" stroke="rgb(1,175,190)" stroke-width="1" opacity="0.36470588235294116" d="M 52.5 185 L 60.5 198 L 153 197.5 L 150 192.5 L 152 193.5 L 154 199 L 60.5 199 L 58 196.5 L 52.5 185 Z " /><path fill="rgb(1,175,190)" stroke="rgb(1,175,190)" stroke-width="1" opacity="0.36470588235294116" d="M 146.5 185 L 150 190.5 L 148 189.5 L 146.5 185 Z " /><path fill="rgb(1,175,190)" stroke="rgb(1,175,190)" stroke-width="1" opacity="0.36470588235294116" d="M 176.5 187 L 176 188.5 L 166.5 205 L 167 203.5 L 176.5 187 Z " /><path fill="rgb(1,175,190)" stroke="rgb(1,175,190)" stroke-width="1" opacity="0.36470588235294116" d="M 164.5 189 L 164 190.5 L 162.5 193 Q 160.3 193.8 161 191.5 L 160.5 190 L 163 191.5 L 164.5 189 Z " /><path fill="rgb(1,175,190)" stroke="rgb(1,175,190)" stroke-width="1" opacity="0.36470588235294116" d="M 45.5 192 L 49 197.5 L 47 196.5 L 45.5 192 Z " /><path fill="rgb(1,175,190)" stroke="rgb(1,175,190)" stroke-width="1" opacity="0.36470588235294116" d="M 49.5 199 L 55.5 207 L 164.5 207 L 165.5 206 L 164.5 208 L 55.5 208 L 53 207 L 49.5 199 Z " /><path fill="rgb(0,175,191)" stroke="rgb(0,175,191)" stroke-width="1" opacity="0.9921568627450981" d="M 54.5 17 L 164.5 17 L 166 18.5 L 216 104.5 L 219 110.5 L 219 113.5 L 164.5 207 L 55.5 207 L 52 203.5 L 0 113.5 L 0 110.5 L 2.5 108 L 33.5 108 L 35 106.5 L 68 48.5 L 57.5 31 Q 55.3 30.3 56 32.5 L 22.5 89 Q 16.4 90.3 17 87.5 L 16 83.5 L 54.5 17 Z M 65 25 L 75 43 L 76 44 L 144 44 L 154 27 L 154 25 L 65 25 Z M 161 31 L 136 76 L 139 84 L 152 106 L 155 108 L 174 108 L 172 102 L 157 77 L 157 74 Q 158 70 164 71 L 184 106 L 187 108 L 206 108 L 205 104 L 164 33 L 161 31 Z M 82 53 L 91 71 L 92 72 L 128 72 L 138 55 L 138 53 L 82 53 Z M 74 58 L 45 106 L 46 108 L 66 108 L 84 77 L 74 58 Z M 98 81 L 110 103 L 122 83 L 122 81 L 98 81 Z M 88 86 L 77 106 L 78 108 L 101 108 L 100 104 L 90 88 Q 91 85 88 86 Z M 131 86 L 118 107 L 119 108 L 142 108 L 141 104 L 131 86 Z M 13 116 L 13 119 L 58 197 L 61 199 L 154 199 L 145 182 L 144 180 L 74 180 L 72 179 L 66 173 L 35 118 L 34 116 L 13 116 Z M 45 116 L 46 121 L 72 165 Q 71 167 74 166 L 84 149 L 67 117 L 65 116 L 45 116 Z M 77 116 L 77 119 L 88 137 Q 87 139 90 138 L 102 118 L 101 116 L 77 116 Z M 118 116 L 118 119 L 129 137 Q 128 139 131 138 L 142 119 L 142 116 L 118 116 Z M 155 116 L 135 148 L 147 166 L 174 119 L 174 116 L 155 116 Z M 185 116 L 151 176 L 161 192 Q 160 194 163 193 L 207 117 L 185 116 Z M 110 122 L 82 170 L 83 171 L 138 171 L 111 124 Q 112 121 110 122 Z " /><path fill="rgb(43,60,82)" stroke="rgb(43,60,82)" stroke-width="1" opacity="0.9490196078431372" d="M 270.5 104 L 289.5 104 L 294.5 105 L 297 107.5 L 300 121.5 L 298.5 121 Q 289.5 115 272.5 117 Q 264.9 118.5 261 123.5 Q 256.5 128 258 138.5 L 263.5 147 L 275.5 154 L 294.5 162 L 304 170.5 Q 311 178.5 310 194.5 Q 307.7 208.2 298.5 215 Q 287 224.5 265.5 224 L 264.5 223 L 253.5 222 L 244.5 219 L 240 215.5 L 243.5 203 Q 253.9 210.6 271.5 211 L 281.5 209 L 291 201.5 L 294 193.5 L 294 187.5 Q 291.9 179.2 285.5 175 L 259.5 163 L 247 152.5 Q 240 145 242 128.5 Q 245.1 118.1 252.5 112 Q 259.5 106 270.5 104 Z " /><path fill="rgb(43,60,82)" stroke="rgb(43,60,82)" stroke-width="1" opacity="0.9490196078431372" d="M 486.5 136 L 498.5 137 L 504.5 139 L 514 146.5 L 520 160.5 L 520 209.5 L 521 210.5 L 521 222 L 507 222 L 507 215.5 L 505.5 212 L 501.5 217 Q 492.9 224.9 475.5 224 L 461 217 L 456 208.5 L 455 194.5 Q 457.6 182.6 466.5 177 L 479.5 171 L 489.5 169 L 500.5 169 L 501.5 168 L 505 169 L 504 159.5 L 496.5 150 L 489.5 148 L 483.5 148 Q 482 150.5 476.5 149 L 464 154 L 461 143 L 473.5 138 L 485.5 137 L 486.5 136 Z M 493 180 L 484 182 L 478 185 L 471 194 Q 470 202 473 207 Q 476 211 482 212 Q 492 213 498 208 Q 503 204 505 198 L 505 180 L 493 180 Z " /><path fill="rgb(43,60,82)" stroke="rgb(43,60,82)" stroke-width="1" opacity="0.9490196078431372" d="M 671.5 136 L 686.5 138 Q 694.9 141.1 700 147.5 L 707 160.5 L 709 170.5 L 709 181.5 L 707.5 183 L 650 183 L 652 194.5 Q 654.9 202.6 661.5 207 Q 670.6 213.4 688.5 211 L 702 207 L 704 219 L 691.5 223 L 670.5 224 L 658.5 221 L 646 212.5 Q 638.9 205.1 636 193.5 L 635 175.5 L 639 159.5 Q 642.7 150.7 649.5 145 L 661.5 138 L 671.5 136 Z M 669 148 L 662 151 Q 654 157 651 168 Q 650 172 652 172 L 694 172 L 693 163 L 690 157 Q 685 146 669 148 Z " /><path fill="rgb(43,60,82)" stroke="rgb(43,60,82)" stroke-width="1" opacity="0.9490196078431372" d="M 358.5 137 L 378.5 137 L 390 141.5 L 387 153 L 377.5 150 L 367.5 149 L 357.5 151 L 346 159.5 L 340 173.5 L 340 186.5 Q 342.6 200.4 352.5 207 L 363.5 211 L 374.5 211 L 387 207 L 389 218.5 L 378.5 223 L 360.5 224 L 350.5 222 L 340.5 217 L 331 207.5 L 325 194.5 L 324 189.5 L 324 172.5 Q 327.8 154.3 340.5 145 Q 347.8 139.3 358.5 137 Z " /><path fill="rgb(43,60,82)" stroke="rgb(43,60,82)" stroke-width="1" opacity="0.9490196078431372" d="M 437.5 137 L 448 137 L 448 152 Q 433.4 149.6 428 157.5 L 422 170.5 L 422 222 L 406.5 222 L 406 221.5 L 406 138 L 418.5 138 L 420 139.5 L 420.5 154 Q 423.3 145.8 429.5 141 L 437.5 137 Z " /><path fill="rgb(43,60,82)" stroke="rgb(43,60,82)" stroke-width="1" opacity="0.9490196078431372" d="M 578.5 137 L 595.5 137 L 601.5 139 L 615 150.5 Q 624.6 162.9 623 186.5 L 617 205.5 L 605.5 218 L 590.5 224 L 579.5 224 Q 565.9 221.6 559.5 212 L 559 256 L 544.5 256 L 544 255.5 L 544 145.5 Q 541.8 144.3 543 139.5 L 544.5 138 L 557 138 L 558.5 152 L 564.5 144 L 578.5 137 Z M 580 149 L 569 154 Q 559 161 559 178 L 559 180 L 560 181 L 560 195 L 564 203 Q 569 209 577 211 Q 589 213 596 208 L 603 200 L 607 187 L 607 173 L 602 160 Q 598 153 591 150 L 580 149 Z " /><path fill="rgb(43,60,82)" stroke="rgb(43,60,82)" stroke-width="1" opacity="0.9490196078431372" d="M 758.5 137 L 768 137 L 768 152 Q 752.2 150 747 159.5 L 743 169.5 L 743 220.5 L 741.5 222 L 727.5 222 L 727 221.5 L 727 142.5 L 726 139.5 L 727.5 138 L 740 138 L 741.5 153 Q 744.3 144.3 751.5 140 L 758.5 137 Z " /></svg>